<?xml version="1.0" encoding="UTF-8"?><svg id="Layer_1" xmlns="http://www.w3.org/2000/svg" viewBox="0 0 1000 1000"><defs><style>.cls-1{fill:#3c91e6;}</style></defs><circle class="cls-1" cx="173.89" cy="173.09" r="173.09"/><path class="cls-1" d="m386.09,80.82h533.89s0,839.97,0,839.97H80.01s0-533.89,0-533.89c-30.41-13.51-57.38-33.37-79.21-57.91v671.01s998.4,0,998.4,0V1.6s-671.01,0-671.01,0c24.53,21.84,44.39,48.8,57.91,79.21Z"/><path class="cls-1" d="m472.49,872.79h180.82c46.08-28.55,88.78-62.4,127.65-101.26,34.63-34.63,65.28-72.31,91.75-112.71v-168.12c-67.14,181.11-215.29,323.22-400.21,382.1Z"/><path class="cls-1" d="m128.73,750.63v76c93.45-.67,184.12-19.32,269.59-55.47,84.08-35.56,159.58-86.46,224.4-151.29,64.83-64.83,115.73-140.33,151.29-224.4,35.77-84.58,54.41-174.25,55.45-266.65h-76c-4.37,341.9-282.46,619.01-624.73,621.81Z"/><path class="cls-1" d="m128.73,533.73v76.64c50.96-5.85,100.53-18.87,148.01-38.96,64.41-27.24,122.25-66.23,171.9-115.89,49.66-49.66,88.65-107.5,115.89-171.9,20.97-49.59,34.25-101.46,39.69-154.8h-76.51c-25.16,209.59-190.33,376.74-398.99,404.92Z"/></svg>