<?xml version="1.0" encoding="UTF-8"?><svg id="Layer_1" xmlns="http://www.w3.org/2000/svg" viewBox="0 0 1000 1000"><defs><style>.cls-1{fill:none;stroke:#3c91e6;stroke-linecap:round;stroke-miterlimit:10;stroke-width:52px;}.cls-2{fill:#3c91e6;}</style></defs><path class="cls-2" d="m500,320.57c47.81,0,92.76,18.62,126.57,52.43s52.43,78.76,52.43,126.57-18.62,92.76-52.43,126.57-78.76,52.43-126.57,52.43-92.76-18.62-126.57-52.43-52.43-78.76-52.43-126.57,18.62-92.76,52.43-126.57,78.76-52.43,126.57-52.43m0-70c-137.52,0-249,111.48-249,249s111.48,249,249,249,249-111.48,249-249-111.48-249-249-249h0Z"/><line class="cls-1" x1="34.43" y1="490.47" x2="192" y2="490.47"/><line class="cls-1" x1="808.43" y1="490.47" x2="966" y2="490.47"/><line class="cls-1" x1="500.35" y1="965.43" x2="500.35" y2="807.86"/><line class="cls-1" x1="500.35" y1="191.43" x2="500.35" y2="33.86"/><line class="cls-1" x1="170.99" y1="850.01" x2="282.41" y2="738.59"/><line class="cls-1" x1="718.29" y1="302.71" x2="829.71" y2="191.29"/><line class="cls-1" x1="829.71" y1="829.01" x2="718.29" y2="717.59"/><line class="cls-1" x1="282.41" y1="281.71" x2="170.99" y2="170.29"/></svg>