<?xml version="1.0" encoding="UTF-8"?><svg id="Layer_1" xmlns="http://www.w3.org/2000/svg" viewBox="0 0 1000 1000"><defs><style>.cls-1{fill:none;stroke:#3c91e6;stroke-miterlimit:10;stroke-width:33px;}.cls-2{fill:#3c91e6;}</style></defs><path class="cls-2" d="m438.36,52c22.26,0,40.3,18.04,40.3,40.3v815.39c0,22.26-18.04,40.3-40.3,40.3H109.3c-22.26,0-40.3-18.04-40.3-40.3V92.3c0-22.26,18.04-40.3,40.3-40.3h329.06m0-37H109.3c-42.62,0-77.3,34.68-77.3,77.3v815.39c0,42.62,34.68,77.3,77.3,77.3h329.06c42.62,0,77.3-34.68,77.3-77.3V92.3c0-42.62-34.68-77.3-77.3-77.3h0Z"/><circle class="cls-2" cx="123.77" cy="107.86" r="30.67"/><path class="cls-1" d="m560.83,312.59c96.16,0,174.12,77.96,174.12,174.12s-77.96,174.12-174.12,174.12"/><path class="cls-1" d="m561.49,130.49c204.07,0,369.51,165.43,369.51,369.51s-165.43,369.51-369.51,369.51"/><path class="cls-1" d="m559.5,208.91c153.42,0,277.79,124.37,277.79,277.79s-124.37,277.79-277.79,277.79"/></svg>