<?xml version="1.0" encoding="UTF-8"?><svg id="Layer_1" xmlns="http://www.w3.org/2000/svg" viewBox="0 0 5672 1000"><defs><style>.cls-1{fill:#fff;}</style></defs><path class="cls-1" d="m1497.24,217.1c43.53,0,82.32,8.72,116.37,26.21,34.07,17.55,61.58,41.38,82.54,71.56,20.97,30.18,33.33,64.22,37.05,102.13h-122.6c-3.72-20.03-10.54-37.85-20.42-53.47-9.9-15.61-22.84-27.92-38.87-36.86-16.03-8.94-35.26-13.41-57.69-13.41-26.98,0-50.21,6.51-69.71,19.59-19.5,13.13-34.46,34.21-44.89,63.34-10.4,29.08-15.61,67.54-15.61,115.37,0,72.11,11.56,124.26,34.65,156.48,23.09,32.17,54.96,48.28,95.56,48.28,22.43,0,41.66-5.19,57.69-15.45,16.03-10.26,28.97-23.89,38.87-40.89,9.88-16.94,16.69-35.59,20.42-55.89h122.6c-3.48,27.53-10.15,53.8-20.03,78.74-9.88,24.99-23.89,47.23-42.07,66.71-18.15,19.53-41.52,34.87-70.1,46.07-28.58,11.26-63.18,16.83-103.76,16.83-53.96,0-100.59-12.52-139.84-37.63-39.26-25.11-69.52-60.36-90.74-105.77-21.24-45.41-31.86-98.43-31.86-159.07s10.57-113.17,31.64-156.87c21.1-43.64,51.29-77.25,90.57-100.75,39.26-23.5,85.99-35.26,140.23-35.26Z"/><path class="cls-1" d="m2001.21,812.45c-40.58,0-75.92-8.66-105.97-26.04-30.04-17.33-53.27-41.93-69.71-73.72-16.41-31.78-24.64-69.41-24.64-113s8.22-81.55,24.64-114.16c16.44-32.61,39.67-57.93,69.71-76.14,30.04-18.15,65.52-27.2,106.38-27.2s76.25,8.88,106.16,26.59c29.93,17.77,53.02,42.98,69.33,75.54,16.28,32.61,24.44,71.07,24.44,115.37,0,41.71-7.95,78.52-23.84,110.41-15.89,31.89-38.73,56.94-68.53,75.09-29.77,18.21-65.77,27.26-107.98,27.26Zm.41-86.9c20.55,0,37.13-6.01,49.69-18.04,12.55-12.03,21.68-27.86,27.45-47.51,5.74-19.64,8.61-41.05,8.61-64.28,0-21.9-2.62-42.6-7.81-62.13-5.21-19.48-14.1-35.26-26.65-47.29-12.55-11.97-29.66-17.99-51.29-17.99s-37.19,5.68-49.88,16.99c-12.69,11.37-21.99,26.71-27.84,46.07-5.9,19.37-8.83,40.83-8.83,64.34,0,21.63,2.68,42.38,8,62.29,5.35,19.92,14.29,36.14,26.87,48.67,12.52,12.58,29.77,18.87,51.67,18.87Z"/><path class="cls-1" d="m2441.93,812.45c-28.86,0-56.64-4.75-83.34-14.24-26.71-9.44-49.27-24.39-67.7-44.86-18.43-20.42-30.18-46.95-35.26-79.51h101.36c3.48,14.68,9.82,26.32,19.04,34.87,9.21,8.55,19.7,14.62,31.45,18.21,11.75,3.59,22.98,5.41,33.66,5.41,22.43,0,40.53-3.53,54.29-10.59,13.74-7.12,20.64-17.99,20.64-32.66,0-11.26-4.08-20.19-12.22-26.87-8.17-6.68-21.57-11.75-40.28-15.23l-72.92-15.23c-36.58-7.72-65.96-20.86-88.14-39.45-22.18-18.54-33.52-44.91-34.04-79.12,0-24.83,6.59-47.12,19.84-66.93,13.21-19.75,32.77-35.37,58.68-46.84,25.91-11.48,57.71-17.21,95.37-17.21,51.01,0,91.81,11.2,122.38,33.6,30.6,22.46,46.15,54.13,46.68,94.96h-97.74c-2.95-16-10.9-28.36-23.84-37.02-12.97-8.66-29.19-13.02-48.69-13.02s-37,3.59-50.07,10.81c-13.1,7.23-19.64,18.15-19.64,32.83,0,10.98,5.35,19.59,16.03,25.88,10.68,6.23,27.26,11.64,49.69,16.22l67.31,15.23c23.23,5.57,42.13,13.24,56.69,23.01,14.54,9.77,25.82,20.36,33.85,31.84,8,11.53,13.55,23.06,16.61,34.71,3.09,11.59,4.61,22.07,4.61,31.45,0,27.48-7.34,50.93-22.02,70.29-14.7,19.37-35.12,34.1-61.3,44.25-26.18,10.15-56.5,15.23-90.96,15.23Z"/><path class="cls-1" d="m2945.55,471.51h-92.17l.8,220.76c0,10.15,1.27,17.71,3.81,22.62,2.54,4.97,6.57,8.17,12.03,9.6,5.46,1.49,12.5,2.21,21.05,2.21h55.67v72.11c-5.35,2.43-13.68,4.69-25.02,6.84-11.37,2.1-27.2,3.2-47.48,3.2-36.33,0-64.45-4.69-84.34-14.01-19.92-9.38-33.74-22.46-41.49-39.29-7.72-16.83-11.61-36.31-11.61-58.49v-225.56h-67.31v-81.33h71.34l29.24-125.03h83.32v124.64h92.17v81.72Z"/><path class="cls-1" d="m3150.69,225.48v105.39h-113.8v-105.39h113.8Zm-1.21,164.7v414.26h-111.79v-414.26h111.79Z"/><path class="cls-1" d="m3440.34,804.45V225.1h169.86l132.62,413.1,133.83-413.1h169.47v579.35h-118.19v-443.12l-139.43,443.12h-91.76l-138.63-441.13v441.13h-117.77Z"/><path class="cls-1" d="m4246.05,624.13c-.28,21.13,3.06,39.51,10.01,55.12,6.92,15.61,17.02,27.64,30.24,36.03,13.24,8.44,29.19,12.64,47.89,12.64,20.03,0,37.57-4.25,52.69-12.8,15.06-8.55,25.55-22.57,31.45-42.1h105.36c-4.55,29.41-16.22,54.51-35.06,75.32-18.82,20.86-41.6,36.75-68.31,47.73-26.71,10.92-54.49,16.39-83.34,16.39-40.86,0-76.86-8.61-107.95-25.82-31.12-17.21-55.37-41.6-72.72-73.11-17.38-31.51-26.04-68.64-26.04-111.4s7.86-78.74,23.64-112.01c15.75-33.22,38.65-59.53,68.69-78.9,30.04-19.37,66.18-29.02,108.39-29.02s77.63,8.88,106.35,26.59c28.72,17.77,50.35,42.49,64.91,74.16,14.57,31.62,21.85,68.14,21.85,109.58v31.62h-278.06Zm-.41-69.69h169.09c0-16.55-3.09-31.78-9.21-45.69-6.15-13.9-15.42-24.83-27.86-32.83-12.41-8.06-27.97-12.03-46.65-12.03s-33.6,4.36-46.29,13.02c-12.69,8.66-22.37,19.97-29.05,33.82-6.68,13.9-10.01,28.47-10.01,43.7Z"/><path class="cls-1" d="m4759.27,812.45c-55.56,0-98.82-19.15-129.8-57.49-31.01-38.29-46.49-91.65-46.49-160.07,0-43.26,6.26-80.78,18.84-112.56,12.55-31.78,31.09-56.45,55.67-73.94,24.58-17.49,54.62-26.21,90.16-26.21,14.95,0,28.91,1.66,41.88,4.97,12.94,3.37,24.75,7.95,35.45,13.85,10.68,5.85,20.03,12.69,28.03,20.42,8.03,7.78,14.57,16.06,19.64,24.83v-237.15h117.39v595.35h-84.94l-13.21-84.92c-3.75,11.48-8.94,22.68-15.61,33.66-6.68,10.92-15.23,20.86-25.66,29.85-10.4,8.94-23.17,16.06-38.26,21.41-15.09,5.35-32.77,8-53.08,8Zm25.63-84.14c29.38,0,51.37-10.26,65.91-30.84,14.57-20.53,21.85-55.29,21.85-104.17-.28-28.31-3.61-51.81-10.01-70.51-6.4-18.7-15.97-32.66-28.64-41.88-12.69-9.21-28.8-13.79-48.28-13.79-25.38,0-46.49,9.66-63.31,29.02-16.83,19.37-25.24,51.76-25.24,97.16s7.86,80.28,23.64,102.19c15.75,21.9,37.11,32.83,64.09,32.83Z"/><path class="cls-1" d="m5211.63,225.48v105.39h-113.8v-105.39h113.8Zm-1.21,164.7v414.26h-111.79v-414.26h111.79Z"/><path class="cls-1" d="m5436.77,812.45c-26.43,0-50.21-4.91-71.31-14.79-21.1-9.88-37.8-24.28-50.07-43.09-12.3-18.82-18.43-41.71-18.43-68.69,0-45.41,16.94-79.95,50.87-103.57,33.93-23.67,87.48-35.86,160.67-36.69l51.67-.77v-24.88c0-18.93-5.55-33.55-16.64-43.86-11.06-10.26-28.22-15.28-51.48-15.01-17.08.28-33.33,4.3-48.67,12.03-15.37,7.72-25.85,21.24-31.45,40.44h-97.36c1.6-29.91,10.26-54.51,26.04-73.88,15.75-19.37,37.19-33.82,64.31-43.31,27.09-9.44,57.88-14.18,92.34-14.18,42.46,0,76.53,5.24,102.16,15.78,25.66,10.59,44.22,25.66,55.7,45.3,11.48,19.64,17.21,42.93,17.21,69.91v291.27h-97.74l-9.63-71.34c-14.15,29.96-31.84,50.65-53.08,62.13-21.24,11.48-46.27,17.21-75.12,17.21Zm39.26-76.92c10.68,0,21.05-1.93,31.06-5.79,10.01-3.86,18.95-9.1,26.84-15.61,7.86-6.57,14.21-13.96,19.04-22.24,4.8-8.28,7.2-16.83,7.2-25.66v-61.3l-42.07.77c-19.5.28-37.66,2.65-54.49,7.01-16.83,4.41-30.37,11.59-40.66,21.46-10.29,9.88-15.42,23.23-15.42,40.06,0,19.26,6.68,34.26,20.03,45.08,13.35,10.81,29.52,16.22,48.47,16.22Z"/><path class="cls-1" d="m999.65-.32H0v999.65h439.72v.25h109.6v-.25h132.16l.09.25h75.26l.09-.25h132.52v.25h109.96v-.25h.25V-.32ZM56.04,943.29V55.72h887.57v411.94h-88.15l-135.9,385.79-136.63-385.79h-143.21v475.63H56.04Zm493.28,0v-89.11l-10.96-250.61,122.85,339.73h-111.89Zm227.89,0l123.18-340.09-10.96,250.98v89.11h-112.23Z"/></svg>