<?xml version="1.0" encoding="UTF-8"?><svg id="Layer_1" xmlns="http://www.w3.org/2000/svg" viewBox="0 0 5856 1000"><defs><style>.cls-1{fill:#fff;}</style></defs><circle class="cls-1" cx="173.05" cy="172.86" r="173.05"/><path class="cls-1" d="m385.2,80.61h533.76s0,839.77,0,839.77H79.19s0-533.76,0-533.76C48.79,373.11,21.83,353.25,0,328.72v670.85s998.16,0,998.16,0V1.41s-670.85,0-670.85,0c24.53,21.83,44.38,48.79,57.89,79.19Z"/><path class="cls-1" d="m471.57,872.39h180.78c46.07-28.54,88.76-62.38,127.62-101.24,34.62-34.62,65.27-72.29,91.73-112.68v-168.08c-67.13,181.07-215.24,323.14-400.12,382Z"/><path class="cls-1" d="m127.9,750.26v75.98c93.42-.67,184.08-19.31,269.52-55.45,84.06-35.55,159.54-86.44,224.35-151.25,64.81-64.81,115.7-140.29,151.25-224.35,35.76-84.56,54.4-174.2,55.43-266.59h-75.98c-4.37,341.82-282.39,618.86-624.58,621.67Z"/><path class="cls-1" d="m127.9,533.42v76.62c50.94-5.84,100.51-18.87,147.97-38.95,64.39-27.24,122.22-66.22,171.86-115.87,49.65-49.65,88.63-107.47,115.87-171.86,20.97-49.57,34.25-101.43,39.68-154.76h-76.49c-25.15,209.54-190.28,376.65-398.9,404.82Z"/><path class="cls-1" d="m1497.03,217.2c43.53,0,82.31,8.72,116.35,26.21,34.07,17.54,61.57,41.38,82.53,71.55,20.96,30.18,33.32,64.22,37.05,102.12h-122.58c-3.72-20.03-10.54-37.85-20.41-53.46-9.9-15.61-22.84-27.92-38.87-36.85-16.03-8.94-35.25-13.41-57.68-13.41-26.98,0-50.2,6.51-69.71,19.58-19.5,13.13-34.45,34.2-44.88,63.33-10.4,29.07-15.61,67.53-15.61,115.36,0,72.11,11.56,124.24,34.65,156.46,23.09,32.16,54.95,48.27,95.55,48.27,22.43,0,41.65-5.19,57.68-15.45,16.03-10.26,28.96-23.89,38.87-40.88,9.88-16.94,16.69-35.58,20.41-55.89h122.58c-3.48,27.53-10.15,53.79-20.03,78.73-9.88,24.99-23.89,47.22-42.07,66.7-18.15,19.53-41.51,34.87-70.09,46.07-28.58,11.25-63.17,16.83-103.74,16.83-53.95,0-100.57-12.52-139.82-37.62-39.25-25.1-69.51-60.35-90.72-105.76-21.24-45.4-31.86-98.42-31.86-159.05s10.56-113.15,31.64-156.84c21.1-43.64,51.28-77.24,90.56-100.74,39.25-23.5,85.98-35.25,140.21-35.25Z"/><path class="cls-1" d="m2000.94,812.47c-40.58,0-75.91-8.66-105.95-26.04-30.04-17.32-53.27-41.93-69.71-73.71-16.41-31.78-24.63-69.4-24.63-112.99s8.22-81.54,24.63-114.14c16.44-32.6,39.67-57.93,69.71-76.13,30.04-18.15,65.51-27.2,106.37-27.2s76.24,8.88,106.14,26.59c29.93,17.76,53.02,42.98,69.32,75.53,16.27,32.6,24.44,71.06,24.44,115.36,0,41.71-7.94,78.5-23.83,110.39-15.89,31.89-38.73,56.93-68.52,75.08-29.76,18.21-65.76,27.25-107.96,27.25Zm.41-86.89c20.55,0,37.13-6.01,49.68-18.04,12.55-12.03,21.68-27.86,27.45-47.5,5.74-19.64,8.61-41.05,8.61-64.27,0-21.9-2.62-42.59-7.81-62.12-5.21-19.47-14.1-35.25-26.65-47.28-12.55-11.97-29.65-17.98-51.28-17.98s-37.18,5.68-49.87,16.99c-12.69,11.36-21.98,26.7-27.83,46.07-5.9,19.36-8.83,40.82-8.83,64.33,0,21.63,2.68,42.37,8,62.29,5.35,19.92,14.29,36.14,26.87,48.66,12.52,12.58,29.76,18.87,51.67,18.87Z"/><path class="cls-1" d="m2441.6,812.47c-28.85,0-56.63-4.74-83.33-14.23-26.7-9.43-49.27-24.38-67.69-44.85-18.43-20.41-30.18-46.95-35.25-79.5h101.34c3.48,14.67,9.82,26.32,19.03,34.87,9.21,8.55,19.7,14.62,31.45,18.21,11.75,3.59,22.98,5.41,33.65,5.41,22.43,0,40.52-3.53,54.29-10.59,13.74-7.12,20.63-17.98,20.63-32.66,0-11.25-4.08-20.19-12.22-26.87-8.16-6.68-21.57-11.75-40.27-15.23l-72.91-15.23c-36.58-7.72-65.95-20.85-88.13-39.45-22.18-18.54-33.51-44.91-34.04-79.11,0-24.83,6.59-47.11,19.83-66.92,13.21-19.75,32.77-35.36,58.67-46.84,25.9-11.48,57.71-17.21,95.36-17.21,51,0,91.8,11.2,122.36,33.6,30.59,22.45,46.15,54.12,46.67,94.95h-97.73c-2.95-16-10.9-28.36-23.83-37.02-12.96-8.66-29.18-13.02-48.69-13.02s-36.99,3.59-50.07,10.81c-13.1,7.23-19.64,18.15-19.64,32.83,0,10.98,5.35,19.58,16.03,25.87,10.68,6.23,27.25,11.64,49.68,16.22l67.31,15.23c23.23,5.57,42.12,13.24,56.69,23.01,14.54,9.76,25.82,20.36,33.85,31.83,8,11.53,13.54,23.06,16.61,34.7,3.09,11.59,4.61,22.07,4.61,31.45,0,27.47-7.34,50.92-22.01,70.28-14.7,19.36-35.11,34.09-61.29,44.25s-56.49,15.23-90.95,15.23Z"/><path class="cls-1" d="m2945.15,471.58h-92.16l.8,220.73c0,10.15,1.27,17.71,3.81,22.62,2.54,4.97,6.57,8.16,12.03,9.6,5.46,1.49,12.5,2.21,21.05,2.21h55.67v72.11c-5.35,2.43-13.68,4.69-25.02,6.84-11.36,2.1-27.2,3.2-47.47,3.2-36.33,0-64.44-4.69-84.33-14.01-19.92-9.38-33.74-22.45-41.49-39.28-7.72-16.83-11.61-36.3-11.61-58.48v-225.53h-67.31v-81.32h71.33l29.24-125.01h83.3v124.63h92.16v81.7Z"/><path class="cls-1" d="m3150.27,225.58v105.37h-113.79v-105.37h113.79Zm-1.21,164.68v414.21h-111.77v-414.21h111.77Z"/><path class="cls-1" d="m3680.63,812.47c-54.75,0-102.09-11.92-142-35.86-39.94-23.89-70.78-57.93-92.55-102.12-21.76-44.19-32.66-97.04-32.66-158.44s11.03-114.86,33.05-159.44c22.04-44.63,53.1-79,93.15-103.17,40.05-24.16,87.06-36.25,141.01-36.25s100.41,12.03,140.21,36.03c39.78,24.05,70.56,58.37,92.32,103,21.76,44.58,32.66,97.87,32.66,159.82s-10.76,113.92-32.25,158.22c-21.52,44.36-52.16,78.45-91.94,102.34-39.8,23.94-86.81,35.86-141.01,35.86Zm0-96.1c28.3,0,52.8-6.79,73.51-20.25,20.69-13.52,36.66-34.87,47.86-64.11,11.23-29.24,16.83-67.36,16.83-114.36s-5.68-87.44-17.02-117.4c-11.36-29.9-27.39-51.86-48.08-65.87-20.69-14.01-45.07-21.02-73.1-21.02s-52.49,7.01-73.32,21.02-36.99,36.03-48.47,66.09c-11.48,30.07-17.24,69.13-17.24,117.18s5.77,85.46,17.24,114.59c11.48,29.07,27.64,50.37,48.47,63.89,20.83,13.46,45.27,20.25,73.32,20.25Z"/><path class="cls-1" d="m4023.54,804.47v-414.21h114.97v58.48c6.43-10.15,14.76-19.97,25.05-29.46,10.29-9.49,23.31-17.27,39.06-23.45,15.75-6.12,34.45-9.21,56.08-9.21,25.38,0,49.07,4.97,71.11,14.84,22.04,9.88,39.86,25.43,53.49,46.67,13.6,21.24,20.41,48.93,20.41,83.14v273.19h-116.96v-258.8c0-22.4-6.68-39.22-20.03-50.48-13.38-11.2-29.65-16.83-48.88-16.83-12.83,0-25.18,2.26-37.07,6.84-11.86,4.52-21.54,11.36-29.02,20.41-7.5,9.1-11.23,20.3-11.23,33.65v265.2h-116.99Z"/><path class="cls-1" d="m4630.86,811.69c-30.45,0-54.62-3.64-72.52-10.81-17.9-7.23-31.12-16.77-39.67-28.69-8.52-11.86-14.01-25.1-16.41-39.61-2.4-14.56-3.61-29.35-3.61-44.3V209.2h114.59v464.69c0,15.23,3.25,27.58,9.82,37.02,6.54,9.49,18.87,15.34,37.05,17.43l19.64,1.21v72.11c-8.03,2.7-16.16,5.02-24.44,7.01-8.3,2.04-16.44,3.03-24.44,3.03Z"/><path class="cls-1" d="m4875.23,225.58v105.37h-113.79v-105.37h113.79Zm-1.21,164.68v414.21h-111.77v-414.21h111.77Z"/><path class="cls-1" d="m4982.56,804.47v-414.21h114.97v58.48c6.43-10.15,14.76-19.97,25.05-29.46s23.31-17.27,39.06-23.45c15.75-6.12,34.45-9.21,56.08-9.21,25.38,0,49.07,4.97,71.11,14.84,22.04,9.88,39.86,25.43,53.49,46.67,13.6,21.24,20.41,48.93,20.41,83.14v273.19h-116.96v-258.8c0-22.4-6.68-39.22-20.03-50.48-13.38-11.2-29.65-16.83-48.88-16.83-12.83,0-25.18,2.26-37.07,6.84-11.86,4.52-21.54,11.36-29.02,20.41-7.5,9.1-11.23,20.3-11.23,33.65v265.2h-116.99Z"/><path class="cls-1" d="m5553.8,624.18c-.28,21.13,3.06,39.5,10.01,55.11,6.92,15.61,17.02,27.64,30.23,36.03,13.24,8.44,29.18,12.63,47.89,12.63,20.03,0,37.57-4.25,52.69-12.8,15.06-8.55,25.54-22.56,31.45-42.09h105.34c-4.55,29.4-16.22,54.51-35.06,75.31-18.81,20.85-41.6,36.74-68.3,47.72-26.7,10.92-54.48,16.39-83.33,16.39-40.85,0-76.85-8.61-107.94-25.82-31.12-17.21-55.36-41.6-72.71-73.1-17.38-31.5-26.04-68.63-26.04-111.39s7.86-78.73,23.64-111.99c15.75-33.21,38.65-59.53,68.68-78.89,30.04-19.36,66.17-29.02,108.38-29.02s77.62,8.88,106.34,26.59c28.72,17.76,50.34,42.48,64.91,74.15,14.56,31.61,21.85,68.13,21.85,109.56v31.61h-278.02Zm-.41-69.68h169.06c0-16.55-3.09-31.78-9.21-45.68-6.15-13.9-15.42-24.83-27.86-32.83-12.41-8.05-27.97-12.03-46.65-12.03s-33.6,4.36-46.29,13.02c-12.69,8.66-22.37,19.97-29.05,33.82-6.68,13.9-10.01,28.47-10.01,43.69Z"/></svg>