<?xml version="1.0" encoding="UTF-8"?><svg id="Layer_1" xmlns="http://www.w3.org/2000/svg" viewBox="0 0 8668 1000"><defs><style>.cls-1{fill:#fff;}</style></defs><rect class="cls-1" x="816.76" y="4.28" width="183" height="183"/><rect class="cls-1" x="544.43" y="821.28" width="183" height="183"/><rect class="cls-1" x="272.1" y="821.28" width="183" height="183"/><rect class="cls-1" x="-.24" y="821.28" width="183" height="183"/><rect class="cls-1" x="-.24" y="548.95" width="183" height="183"/><rect class="cls-1" x="-.24" y="276.61" width="183" height="183"/><rect class="cls-1" x="544.43" y="4.28" width="183" height="183"/><rect class="cls-1" x="272.1" y="4.28" width="183" height="183"/><rect class="cls-1" x="-.24" y="4.28" width="183" height="183"/><rect class="cls-1" x="816.76" y="821.28" width="183" height="183"/><path class="cls-1" d="m1489.67,212.35c42.16,0,79.73,8.48,112.71,25.41,32.98,16.94,59.62,40.03,79.92,69.25,20.3,29.23,32.26,62.21,35.89,98.94h-118.72c-3.63-19.4-10.22-36.66-19.79-51.8-9.57-15.13-22.11-27.03-37.63-35.69-15.52-8.66-34.14-13-55.87-13-26.13,0-48.63,6.34-67.51,19.01-18.88,12.68-33.37,33.11-43.45,61.3-10.09,28.2-15.13,65.44-15.13,111.74,0,69.84,11.18,120.34,33.56,151.51,22.37,31.17,53.21,46.75,92.53,46.75,21.73,0,40.35-4.98,55.87-14.94,15.52-9.95,28.06-23.15,37.63-39.57,9.57-16.42,16.16-34.46,19.79-54.12h118.72c-3.36,26.64-9.83,52.06-19.4,76.24-9.57,24.19-23.15,45.72-40.74,64.6-17.59,18.88-40.22,33.75-67.9,44.62-27.68,10.86-61.17,16.3-100.49,16.3-52.25,0-97.38-12.15-135.41-36.47-38.02-24.31-67.31-58.45-87.88-102.43-20.56-43.97-30.84-95.31-30.84-154.03s10.21-109.6,30.65-151.89c20.43-42.29,49.66-74.81,87.68-97.58,38.02-22.76,83.28-34.14,135.79-34.14Z"/><path class="cls-1" d="m1977.74,788.89c-39.32,0-73.52-8.4-102.62-25.22-29.1-16.81-51.6-40.6-67.51-71.39-15.91-30.78-23.86-67.25-23.86-109.41s7.95-79.01,23.86-110.57c15.91-31.55,38.41-56.12,67.51-73.72,29.1-17.59,63.43-26.38,103.01-26.38s73.84,8.6,102.81,25.8c28.97,17.2,51.34,41.58,67.12,73.13,15.77,31.56,23.67,68.81,23.67,111.74,0,40.35-7.7,75.98-23.08,106.89-15.39,30.91-37.51,55.16-66.34,72.75-28.84,17.59-63.7,26.38-104.56,26.38Zm.39-84.19c19.91,0,35.95-5.82,48.11-17.46,12.15-11.64,21.01-26.96,26.58-45.98,5.56-19.01,8.34-39.77,8.34-62.27,0-21.21-2.52-41.25-7.57-60.14-5.04-18.88-13.65-34.14-25.8-45.78-12.16-11.64-28.71-17.46-49.66-17.46s-36.02,5.5-48.3,16.49c-12.29,11-21.28,25.87-26.96,44.62-5.69,18.76-8.54,39.51-8.54,62.27,0,20.95,2.58,41.07,7.76,60.33,5.17,19.27,13.83,34.99,26,47.14,12.15,12.16,28.84,18.24,50.05,18.24Z"/><path class="cls-1" d="m2246.98,781.13v-401.17h111.35v56.65c6.21-9.83,14.29-19.33,24.25-28.52,9.95-9.18,22.56-16.74,37.83-22.7,15.26-5.95,33.37-8.92,54.32-8.92,24.57,0,47.53,4.79,68.87,14.36,21.34,9.57,38.6,24.64,51.8,45.2s19.79,47.4,19.79,80.51v264.6h-113.29v-250.64c0-21.73-6.47-38.02-19.4-48.89-12.94-10.86-28.71-16.3-47.33-16.3-12.42,0-24.38,2.2-35.89,6.6-11.51,4.4-20.89,11-28.13,19.79-7.24,8.8-10.86,19.66-10.86,32.59v256.84h-113.29Z"/><path class="cls-1" d="m2860.77,788.89c-27.93,0-54.84-4.6-80.7-13.77-25.87-9.18-47.72-23.67-65.57-43.45-17.85-19.79-29.23-45.45-34.14-77.01h98.16c3.36,14.23,9.51,25.48,18.43,33.75,8.92,8.28,19.07,14.16,30.46,17.65,11.38,3.49,22.24,5.24,32.59,5.24,21.73,0,39.25-3.43,52.57-10.28,13.32-6.85,19.98-17.39,19.98-31.62,0-10.86-3.95-19.53-11.83-26-7.89-6.46-20.89-11.38-38.99-14.74l-70.61-14.74c-35.44-7.5-63.89-20.24-85.36-38.22-21.47-17.97-32.46-43.51-32.98-76.63,0-24.05,6.4-45.65,19.21-64.79,12.8-19.14,31.75-34.27,56.84-45.39,25.09-11.12,55.87-16.68,92.34-16.68,49.4,0,88.91,10.86,118.53,32.59,29.61,21.73,44.68,52.38,45.2,91.95h-94.67c-2.85-15.52-10.54-27.48-23.08-35.89-12.55-8.4-28.26-12.61-47.14-12.61s-35.83,3.49-48.5,10.48c-12.68,6.98-19.01,17.59-19.01,31.81,0,10.61,5.17,18.95,15.52,25.02,10.34,6.08,26.38,11.32,48.11,15.71l65.18,14.74c22.5,5.43,40.8,12.87,54.9,22.31,14.09,9.45,25.02,19.73,32.78,30.84,7.76,11.12,13.12,22.31,16.1,33.56,2.97,11.25,4.46,21.41,4.46,30.46,0,26.64-7.12,49.34-21.34,68.09-14.23,18.76-34.01,33.04-59.36,42.87-25.35,9.83-54.71,14.74-88.07,14.74Z"/><path class="cls-1" d="m3348.46,458.71h-89.24l.78,213.78c0,9.83,1.22,17.14,3.69,21.92,2.46,4.79,6.33,7.89,11.64,9.31,5.3,1.42,12.09,2.13,20.37,2.13h53.93v69.84c-5.18,2.33-13.26,4.53-24.25,6.6-11,2.07-26.32,3.1-45.98,3.1-35.18,0-62.4-4.52-81.67-13.58-19.27-9.05-32.66-21.73-40.16-38.02-7.5-16.3-11.25-35.17-11.25-56.65v-218.43h-65.18v-78.76h69.06l28.32-121.05h80.7v120.66h89.24v79.15Z"/><path class="cls-1" d="m3547.09,788.89c-25.61,0-48.63-4.79-69.06-14.36-20.44-9.57-36.6-23.47-48.5-41.71-11.9-18.23-17.85-40.41-17.85-66.54,0-43.97,16.42-77.4,49.27-100.29,32.84-22.89,84.71-34.72,155.58-35.5l50.05-.78v-24.05c0-18.36-5.37-32.52-16.1-42.48-10.74-9.95-27.35-14.8-49.86-14.55-16.56.26-32.27,4.14-47.14,11.64-14.88,7.5-25.02,20.56-30.46,39.19h-94.28c1.55-28.97,9.95-52.83,25.22-71.58,15.26-18.75,36.02-32.72,62.27-41.9,26.25-9.18,56.06-13.77,89.43-13.77,41.13,0,74.1,5.11,98.94,15.33,24.83,10.22,42.81,24.83,53.93,43.84,11.12,19.01,16.68,41.58,16.68,67.7v282.06h-94.67l-9.31-69.06c-13.71,28.97-30.84,49.02-51.41,60.14-20.56,11.12-44.81,16.68-72.75,16.68Zm38.02-74.49c10.34,0,20.37-1.87,30.07-5.63,9.7-3.75,18.36-8.79,25.99-15.13,7.63-6.33,13.77-13.51,18.43-21.53,4.66-8.01,6.98-16.3,6.98-24.83v-59.36l-40.74.78c-18.88.26-36.47,2.52-52.77,6.79-16.3,4.27-29.43,11.19-39.38,20.76-9.96,9.57-14.94,22.5-14.94,38.8,0,18.62,6.46,33.17,19.4,43.65,12.93,10.48,28.58,15.71,46.95,15.71Z"/><path class="cls-1" d="m3875.7,781.13v-401.17h111.35v56.65c6.21-9.83,14.29-19.33,24.25-28.52,9.95-9.18,22.56-16.74,37.83-22.7,15.26-5.95,33.37-8.92,54.32-8.92,24.57,0,47.53,4.79,68.87,14.36,21.34,9.57,38.6,24.64,51.8,45.2s19.79,47.4,19.79,80.51v264.6h-113.29v-250.64c0-21.73-6.47-38.02-19.4-48.89-12.94-10.86-28.71-16.3-47.33-16.3-12.42,0-24.38,2.2-35.89,6.6-11.51,4.4-20.89,11-28.13,19.79-7.24,8.8-10.86,19.66-10.86,32.59v256.84h-113.29Z"/><path class="cls-1" d="m4562.42,458.71h-89.24l.78,213.78c0,9.83,1.22,17.14,3.69,21.92,2.46,4.79,6.33,7.89,11.64,9.31,5.3,1.42,12.09,2.13,20.37,2.13h53.93v69.84c-5.18,2.33-13.26,4.53-24.25,6.6-11,2.07-26.32,3.1-45.98,3.1-35.18,0-62.4-4.52-81.67-13.58-19.27-9.05-32.66-21.73-40.16-38.02-7.51-16.3-11.25-35.17-11.25-56.65v-218.43h-65.18v-78.76h69.06l28.32-121.05h80.7v120.66h89.24v79.15Z"/><path class="cls-1" d="m4761.06,220.49v102.04h-110.19v-102.04h110.19Zm-1.16,159.46v401.17h-108.25v-401.17h108.25Z"/><path class="cls-1" d="m4865.03,781.13v-401.17h111.35v56.65c6.21-9.83,14.29-19.33,24.25-28.52,9.95-9.18,22.56-16.74,37.83-22.7,15.26-5.95,33.37-8.92,54.32-8.92,24.57,0,47.53,4.79,68.87,14.36,21.34,9.57,38.6,24.64,51.8,45.2s19.79,47.4,19.79,80.51v264.6h-113.29v-250.64c0-21.73-6.47-38.02-19.4-48.89-12.94-10.86-28.71-16.3-47.33-16.3-12.42,0-24.38,2.2-35.89,6.6-11.51,4.4-20.89,11-28.13,19.79-7.24,8.8-10.86,19.66-10.86,32.59v256.84h-113.29Z"/><path class="cls-1" d="m5418.28,606.54c-.26,20.44,2.97,38.22,9.7,53.35,6.72,15.13,16.49,26.77,29.29,34.92s28.26,12.22,46.36,12.22c19.4,0,36.4-4.13,51.02-12.42,14.61-8.27,24.76-21.85,30.46-40.74h102.04c-4.4,28.46-15.71,52.77-33.95,72.94-18.23,20.18-40.29,35.57-66.15,46.17-25.87,10.6-52.77,15.91-80.7,15.91-39.57,0-74.43-8.34-104.56-25.02-30.14-16.68-53.61-40.28-70.42-70.81-16.82-30.52-25.22-66.47-25.22-107.86s7.63-76.24,22.89-108.44c15.26-32.2,37.44-57.68,66.54-76.43,29.1-18.75,64.08-28.13,104.95-28.13s75.2,8.6,103.01,25.8c27.8,17.2,48.75,41.13,62.85,71.78,14.09,30.65,21.15,66.02,21.15,106.11v30.65h-269.26Zm-.39-67.51h163.73c0-16.03-2.98-30.78-8.92-44.23-5.95-13.45-14.94-24.06-26.96-31.81-12.03-7.76-27.1-11.64-45.2-11.64s-32.53,4.21-44.81,12.61c-12.29,8.41-21.67,19.34-28.13,32.78-6.47,13.45-9.7,27.55-9.7,42.29Z"/><path class="cls-1" d="m6415.38,781.13h-123.38l-148.6-261.11-83.03,100.1v161.01h-117.56V220.11h117.56v256.84l204.47-256.84h129.97l-170.32,217.27,190.89,343.75Z"/><path class="cls-1" d="m6484.83,781.13V204.59h112.51v233.18c6.46-9.31,14.61-18.56,24.44-27.74,9.83-9.18,22.12-16.88,36.86-23.08s32.72-9.31,53.93-9.31c25.61,0,48.95,4.98,70.03,14.94,21.08,9.96,38.02,24.38,50.83,43.26,12.8,18.88,19.21,41.9,19.21,69.06v276.24h-113.68v-259.56c0-18.1-6.54-32.01-19.59-41.71-13.06-9.7-28.9-14.55-47.53-14.55-12.16,0-23.93,2.2-35.31,6.6-11.38,4.4-20.63,11.06-27.74,19.98-7.12,8.92-10.67,19.98-10.67,33.17v256.07h-113.29Z"/><path class="cls-1" d="m7058.27,788.89c-25.61,0-48.63-4.79-69.06-14.36-20.44-9.57-36.6-23.47-48.5-41.71-11.9-18.23-17.85-40.41-17.85-66.54,0-43.97,16.42-77.4,49.27-100.29,32.84-22.89,84.71-34.72,155.58-35.5l50.05-.78v-24.05c0-18.36-5.37-32.52-16.1-42.48-10.74-9.95-27.35-14.8-49.86-14.55-16.56.26-32.27,4.14-47.14,11.64-14.88,7.5-25.02,20.56-30.46,39.19h-94.28c1.55-28.97,9.95-52.83,25.22-71.58,15.26-18.75,36.02-32.72,62.27-41.9,26.25-9.18,56.06-13.77,89.43-13.77,41.13,0,74.1,5.11,98.94,15.33,24.83,10.22,42.81,24.83,53.93,43.84,11.12,19.01,16.68,41.58,16.68,67.7v282.06h-94.67l-9.31-69.06c-13.71,28.97-30.84,49.02-51.41,60.14-20.56,11.12-44.81,16.68-72.75,16.68Zm38.02-74.49c10.34,0,20.37-1.87,30.07-5.63,9.7-3.75,18.36-8.79,25.99-15.13,7.63-6.33,13.77-13.51,18.43-21.53,4.66-8.01,6.98-16.3,6.98-24.83v-59.36l-40.74.78c-18.88.26-36.47,2.52-52.77,6.79-16.3,4.27-29.43,11.19-39.38,20.76-9.96,9.57-14.94,22.5-14.94,38.8,0,18.62,6.46,33.17,19.4,43.65,12.93,10.48,28.58,15.71,46.95,15.71Z"/><path class="cls-1" d="m7386.88,781.13v-401.17h110.96v56.65c12.15-17.59,28.52-32.72,49.08-45.39,20.56-12.67,46.49-19.01,77.79-19.01,13.71,0,27.67,2.46,41.9,7.37,14.22,4.92,27.61,12.09,40.16,21.53,12.54,9.45,22.7,21.28,30.46,35.5,12.93-18.36,29.94-33.69,51.02-45.98,21.08-12.28,44.55-18.43,70.42-18.43,15,0,30.2,2.46,45.59,7.37,15.39,4.92,29.55,12.94,42.48,24.05,12.93,11.12,23.34,25.93,31.23,44.42,7.89,18.5,11.83,41.32,11.83,68.48v264.6h-113.29v-250.64c0-16.03-3.17-28.9-9.51-38.6-6.34-9.7-14.35-16.68-24.05-20.95-9.7-4.27-19.98-6.4-30.84-6.4-10.09,0-20.31,2.01-30.65,6.01-10.35,4.01-19.14,10.42-26.38,19.21-7.24,8.8-10.86,20.31-10.86,34.53v256.84h-112.9v-260.72c0-12.15-3.24-22.37-9.7-30.65-6.47-8.27-14.55-14.55-24.25-18.82-9.7-4.27-19.59-6.4-29.68-6.4s-20.7,2.13-31.04,6.4c-10.35,4.27-19.01,10.86-25.99,19.79-6.98,8.92-10.48,20.11-10.48,33.56v256.84h-113.29Z"/><path class="cls-1" d="m8196.97,220.49v102.04h-110.19v-102.04h110.19Zm-1.16,159.46v401.17h-108.25v-401.17h108.25Z"/><path class="cls-1" d="m8457.31,788.89c-27.93,0-54.84-4.6-80.7-13.77-25.87-9.18-47.72-23.67-65.57-43.45-17.85-19.79-29.23-45.45-34.14-77.01h98.16c3.36,14.23,9.51,25.48,18.43,33.75,8.92,8.28,19.07,14.16,30.46,17.65,11.38,3.49,22.24,5.24,32.59,5.24,21.73,0,39.25-3.43,52.57-10.28,13.32-6.85,19.98-17.39,19.98-31.62,0-10.86-3.95-19.53-11.83-26-7.89-6.46-20.89-11.38-38.99-14.74l-70.61-14.74c-35.44-7.5-63.89-20.24-85.36-38.22-21.47-17.97-32.46-43.51-32.98-76.63,0-24.05,6.4-45.65,19.2-64.79,12.8-19.14,31.75-34.27,56.84-45.39,25.08-11.12,55.87-16.68,92.34-16.68,49.4,0,88.91,10.86,118.53,32.59,29.61,21.73,44.68,52.38,45.2,91.95h-94.67c-2.85-15.52-10.54-27.48-23.08-35.89-12.55-8.4-28.26-12.61-47.14-12.61s-35.83,3.49-48.5,10.48c-12.68,6.98-19.01,17.59-19.01,31.81,0,10.61,5.17,18.95,15.52,25.02,10.34,6.08,26.38,11.32,48.11,15.71l65.18,14.74c22.5,5.43,40.8,12.87,54.9,22.31,14.09,9.45,25.02,19.73,32.78,30.84,7.76,11.12,13.12,22.31,16.1,33.56,2.97,11.25,4.46,21.41,4.46,30.46,0,26.64-7.12,49.34-21.34,68.09-14.23,18.76-34.01,33.04-59.36,42.87-25.35,9.83-54.71,14.74-88.07,14.74Z"/></svg>