<?xml version="1.0" encoding="UTF-8"?><svg id="Layer_1" xmlns="http://www.w3.org/2000/svg" viewBox="0 0 1000 1000"><defs><style>.cls-1{fill:#3c91e6;}</style></defs><path class="cls-1" d="m500,608.35c158.32,0,290.29,65.56,320.03,152.55,57.84-71.01,92.54-161.63,92.54-260.36,0-227.86-184.72-412.57-412.57-412.57S87.43,272.67,87.43,500.53c0,98.73,34.7,189.35,92.54,260.36,29.74-86.98,161.71-152.55,320.03-152.55Zm0-432.7c104.8,0,189.76,84.96,189.76,189.76s-84.96,189.76-189.76,189.76-189.76-84.96-189.76-189.76,84.96-189.76,189.76-189.76Z"/><path class="cls-1" d="m500,54c60.23,0,118.64,11.78,173.59,35.03,53.1,22.46,100.81,54.63,141.78,95.6,40.98,40.98,73.14,88.68,95.6,141.78,23.24,54.95,35.03,113.35,35.03,173.59s-11.78,118.64-35.03,173.59c-22.46,53.1-54.63,100.81-95.6,141.78-40.98,40.98-88.68,73.14-141.78,95.6-54.95,23.24-113.35,35.03-173.59,35.03s-118.64-11.78-173.59-35.03c-53.1-22.46-100.81-54.63-141.78-95.6-40.98-40.98-73.14-88.68-95.6-141.78-23.24-54.95-35.03-113.35-35.03-173.59s11.78-118.64,35.03-173.59c22.46-53.1,54.63-100.81,95.6-141.78,40.98-40.98,88.68-73.14,141.78-95.6,54.95-23.24,113.35-35.03,173.59-35.03M500,0C223.86,0,0,223.86,0,500s223.86,500,500,500,500-223.86,500-500S776.14,0,500,0h0Z"/></svg>