<?xml version="1.0" encoding="UTF-8"?><svg id="Layer_1" xmlns="http://www.w3.org/2000/svg" viewBox="0 0 5259 1000"><defs><style>.cls-1{fill:#fff;}</style></defs><path class="cls-1" d="m1518.03,226.34c43.53,0,82.31,8.72,116.35,26.21,34.07,17.54,61.57,41.38,82.53,71.55,20.96,30.18,33.32,64.22,37.05,102.12h-122.58c-3.72-20.03-10.54-37.85-20.41-53.46-9.9-15.61-22.84-27.92-38.87-36.85-16.03-8.94-35.25-13.41-57.68-13.41-26.98,0-50.2,6.51-69.71,19.58-19.5,13.13-34.45,34.2-44.88,63.33-10.4,29.07-15.61,67.53-15.61,115.36,0,72.11,11.56,124.24,34.65,156.46,23.09,32.16,54.95,48.27,95.55,48.27,22.43,0,41.65-5.19,57.68-15.45s28.96-23.89,38.87-40.88c9.88-16.94,16.69-35.58,20.41-55.89h122.58c-3.48,27.53-10.15,53.79-20.03,78.73-9.88,24.99-23.89,47.22-42.07,66.7-18.15,19.53-41.51,34.87-70.09,46.07-28.58,11.25-63.17,16.83-103.74,16.83-53.95,0-100.57-12.52-139.82-37.62-39.25-25.1-69.51-60.35-90.72-105.76-21.24-45.4-31.86-98.42-31.86-159.05s10.56-113.15,31.64-156.84c21.1-43.64,51.28-77.24,90.56-100.74,39.25-23.5,85.98-35.25,140.21-35.25Z"/><path class="cls-1" d="m2021.94,821.61c-40.58,0-75.91-8.66-105.95-26.04-30.04-17.32-53.27-41.93-69.71-73.71-16.41-31.78-24.63-69.4-24.63-112.99s8.22-81.54,24.63-114.14c16.44-32.6,39.67-57.93,69.71-76.13,30.04-18.15,65.51-27.2,106.37-27.2s76.24,8.88,106.14,26.59c29.93,17.76,53.02,42.98,69.32,75.53,16.27,32.6,24.44,71.06,24.44,115.36,0,41.71-7.94,78.5-23.83,110.39-15.89,31.89-38.73,56.93-68.52,75.08-29.76,18.21-65.76,27.25-107.96,27.25Zm.41-86.89c20.55,0,37.13-6.01,49.68-18.04,12.55-12.03,21.68-27.86,27.45-47.5,5.74-19.64,8.61-41.05,8.61-64.27,0-21.9-2.62-42.59-7.81-62.12-5.21-19.47-14.1-35.25-26.65-47.28-12.55-11.97-29.65-17.98-51.28-17.98s-37.18,5.68-49.87,16.99c-12.69,11.36-21.98,26.7-27.83,46.07-5.9,19.36-8.83,40.82-8.83,64.33,0,21.63,2.68,42.37,8,62.29,5.35,19.92,14.29,36.14,26.87,48.66,12.52,12.58,29.76,18.87,51.67,18.87Z"/><path class="cls-1" d="m2462.6,821.61c-28.85,0-56.63-4.74-83.33-14.23-26.7-9.43-49.27-24.38-67.69-44.85-18.43-20.41-30.18-46.95-35.25-79.5h101.34c3.48,14.67,9.82,26.32,19.03,34.87,9.21,8.55,19.7,14.62,31.45,18.21,11.75,3.59,22.98,5.41,33.65,5.41,22.43,0,40.52-3.53,54.29-10.59,13.74-7.12,20.63-17.98,20.63-32.66,0-11.25-4.08-20.19-12.22-26.87-8.16-6.68-21.57-11.75-40.27-15.23l-72.91-15.23c-36.58-7.72-65.95-20.85-88.13-39.45-22.18-18.54-33.51-44.91-34.04-79.11,0-24.83,6.59-47.11,19.83-66.92,13.21-19.75,32.77-35.36,58.67-46.84,25.9-11.48,57.71-17.21,95.36-17.21,51,0,91.8,11.2,122.36,33.6,30.59,22.45,46.15,54.12,46.67,94.95h-97.73c-2.95-16-10.9-28.36-23.83-37.02-12.96-8.66-29.18-13.02-48.69-13.02s-36.99,3.59-50.07,10.81c-13.1,7.23-19.64,18.15-19.64,32.83,0,10.98,5.35,19.58,16.03,25.87,10.68,6.23,27.25,11.64,49.68,16.22l67.31,15.23c23.23,5.57,42.12,13.24,56.69,23.01,14.54,9.76,25.82,20.36,33.85,31.83,8,11.53,13.54,23.06,16.61,34.7,3.09,11.59,4.61,22.07,4.61,31.45,0,27.47-7.34,50.92-22.01,70.28-14.7,19.36-35.11,34.09-61.29,44.25-26.18,10.15-56.49,15.23-90.95,15.23Z"/><path class="cls-1" d="m2966.15,480.72h-92.16l.8,220.73c0,10.15,1.27,17.71,3.81,22.62,2.54,4.97,6.57,8.16,12.03,9.6,5.46,1.49,12.5,2.21,21.05,2.21h55.67v72.11c-5.35,2.43-13.68,4.69-25.02,6.84-11.36,2.1-27.2,3.2-47.47,3.2-36.33,0-64.44-4.69-84.33-14.01-19.92-9.38-33.74-22.45-41.49-39.28-7.72-16.83-11.61-36.3-11.61-58.48v-225.53h-67.31v-81.32h71.33l29.24-125.01h83.3v124.63h92.16v81.7Z"/><path class="cls-1" d="m3171.27,234.73v105.37h-113.79v-105.37h113.79Zm-1.21,164.68v414.21h-111.77v-414.21h111.77Z"/><path class="cls-1" d="m3480.48,231.67h120.54v491.59h257.48v101.27h-378.02V231.67Z"/><path class="cls-1" d="m4075.8,832.73c-27.06,0-51.39-5.06-72.98-15.17-21.59-10.11-38.68-24.8-51.25-44.07-12.58-19.27-18.86-42.7-18.86-70.31,0-46.46,17.35-81.79,52.07-105.99,34.71-24.19,89.51-36.69,164.41-37.51l52.89-.82v-25.42c0-19.4-5.68-34.37-17.02-44.9-11.34-10.52-28.9-15.64-52.68-15.38-17.5.28-34.1,4.38-49.82,12.3-15.72,7.93-26.44,21.73-32.18,41.41h-99.63c1.64-30.61,10.52-55.82,26.65-75.65,16.12-19.81,38.06-34.57,65.81-44.28,27.74-9.7,59.25-14.56,94.5-14.56,43.46,0,78.31,5.4,104.55,16.2,26.24,10.8,45.23,26.24,56.99,46.33,11.75,20.09,17.63,43.94,17.63,71.55v298.07h-100.04l-9.84-72.98c-14.49,30.62-32.59,51.8-54.33,63.55s-47.36,17.63-76.88,17.63Zm40.18-78.72c10.93,0,21.53-1.98,31.78-5.94,10.25-3.96,19.4-9.29,27.47-15.99,8.06-6.69,14.56-14.28,19.48-22.75,4.92-8.47,7.38-17.22,7.38-26.24v-62.73l-43.05.82c-19.96.28-38.54,2.67-55.76,7.17-17.22,4.51-31.1,11.83-41.61,21.94-10.53,10.12-15.79,23.78-15.79,41,0,19.68,6.83,35.06,20.5,46.12,13.66,11.07,30.2,16.6,49.61,16.6Z"/><path class="cls-1" d="m4659.22,832.73c-21.05,0-39.23-2.74-54.53-8.2-15.31-5.46-28.29-12.77-38.95-21.94-10.66-9.15-19.41-19.33-26.24-30.54-6.84-11.2-12.17-22.68-15.99-34.44l-13.53,86.92h-86.92V215.27h120.13v242.72c5.19-9.02,11.89-17.49,20.09-25.42,8.2-7.92,17.76-14.89,28.7-20.91,10.93-6.01,23.02-10.72,36.29-14.15,13.25-3.41,27.4-5.12,42.43-5.12,52.75,0,94.1,19,124.03,56.99,29.93,38,44.89,91.57,44.89,160.72,0,44.83-6.83,83.92-20.5,117.26-13.67,33.35-33.9,59.25-60.68,77.69-26.79,18.45-59.86,27.68-99.22,27.68Zm-26.24-86.1c25.69,0,47.08-10.59,64.17-31.77,17.08-21.18,25.62-56.64,25.62-106.4,0-44-8.14-76.53-24.39-97.58-16.27-21.04-38.33-31.57-66.22-31.57-19.96,0-36.49,4.72-49.61,14.15-13.12,9.43-22.9,23.72-29.32,42.85-6.42,19.14-9.78,43.19-10.04,72.16,0,50.02,7.44,85.56,22.34,106.6,14.89,21.05,37.37,31.57,67.45,31.57Z"/><path class="cls-1" d="m5085.62,832.73c-29.52,0-57.95-4.86-85.28-14.56-27.34-9.7-50.43-25.01-69.29-45.92-18.86-20.91-30.89-48.03-36.08-81.39h103.73c3.55,15.04,10.05,26.93,19.48,35.67,9.43,8.75,20.15,14.97,32.18,18.66,12.02,3.69,23.5,5.54,34.44,5.54,22.96,0,41.47-3.62,55.55-10.87,14.08-7.24,21.12-18.38,21.12-33.42,0-11.48-4.17-20.63-12.5-27.47-8.34-6.83-22.08-12.02-41.21-15.58l-74.62-15.58c-37.45-7.92-67.52-21.38-90.2-40.39-22.69-18.99-34.31-45.98-34.85-80.97,0-25.42,6.76-48.24,20.29-68.47,13.53-20.22,33.55-36.21,60.06-47.97,26.51-11.75,59.04-17.63,97.58-17.63,52.21,0,93.95,11.48,125.26,34.44,31.29,22.96,47.21,55.35,47.76,97.17h-100.04c-3.01-16.4-11.14-29.04-24.4-37.93-13.26-8.88-29.87-13.32-49.81-13.32s-37.86,3.69-51.25,11.07c-13.4,7.38-20.09,18.59-20.09,33.62,0,11.21,5.46,20.03,16.4,26.44,10.93,6.43,27.88,11.96,50.84,16.6l68.88,15.58c23.78,5.74,43.11,13.6,58.01,23.58,14.89,9.98,26.45,20.85,34.64,32.59,8.2,11.76,13.87,23.58,17.02,35.46,3.14,11.89,4.71,22.62,4.71,32.19,0,28.16-7.52,52.14-22.55,71.96-15.04,19.82-35.95,34.92-62.73,45.31-26.79,10.38-57.81,15.58-93.07,15.58Z"/><path class="cls-1" d="m.03,859.81h796.18l-283.47-475.09v-200.34h40.11v-45.16H243.95v45.16h45.97v200.19L.03,859.81Zm700.42-54.74H96.91l247-404.93v-198.64h114.86v198.5l241.69,405.08Z"/><polygon class="cls-1" points="0 0 0 746.29 62.35 641.46 62.35 62.35 878.74 62.35 878.74 937.22 62.35 937.22 62.35 937.08 0 937.08 0 999.57 941.09 999.57 941.09 0 0 0"/></svg>