<?xml version="1.0" encoding="UTF-8"?><svg id="Layer_1" xmlns="http://www.w3.org/2000/svg" viewBox="0 0 1000 1000"><defs><style>.cls-1{fill:#3c91e6;}</style></defs><path class="cls-1" d="m500,321c47.81,0,92.76,18.62,126.57,52.43s52.43,78.76,52.43,126.57-18.62,92.76-52.43,126.57c-33.81,33.81-78.76,52.43-126.57,52.43s-92.76-18.62-126.57-52.43c-33.81-33.81-52.43-78.76-52.43-126.57s18.62-92.76,52.43-126.57,78.76-52.43,126.57-52.43m0-70c-137.52,0-249,111.48-249,249s111.48,249,249,249,249-111.48,249-249-111.48-249-249-249h0Z"/></svg>