<?xml version="1.0" encoding="UTF-8"?>
<svg id="Layer_1" data-name="Layer 1" xmlns="http://www.w3.org/2000/svg" viewBox="0 0 1000 1000">
  <defs>
    <style>
      .cls-1 {
        fill: #3c91e6;
        stroke-width: 0px;
      }

      .cls-2 {
        opacity: .34;
      }

      .cls-3 {
        fill: none;
        stroke: #3c91e6;
        stroke-linecap: round;
        stroke-miterlimit: 10;
        stroke-width: 52px;
      }
    </style>
  </defs>
  <path class="cls-1" d="M500,321c47.81,0,92.76,18.62,126.57,52.43s52.43,78.76,52.43,126.57-18.62,92.76-52.43,126.57c-33.81,33.81-78.76,52.43-126.57,52.43s-92.76-18.62-126.57-52.43c-33.81-33.81-52.43-78.76-52.43-126.57s18.62-92.76,52.43-126.57,78.76-52.43,126.57-52.43M500,251c-137.52,0-249,111.48-249,249s111.48,249,249,249,249-111.48,249-249-111.48-249-249-249h0Z"/>
  <line class="cls-3" x1="162" y1="489.99" x2="199.49" y2="489.99"/>
  <line class="cls-3" x1="801" y1="489.99" x2="838.49" y2="489.99"/>
  <line class="cls-3" x1="260.53" y1="270.81" x2="287.04" y2="297.32"/>
  <line class="cls-3" x1="712.37" y1="722.65" x2="738.88" y2="749.16"/>
  <line class="cls-3" x1="738.88" y1="270.81" x2="712.37" y2="297.32"/>
  <line class="cls-3" x1="287.04" y1="722.65" x2="260.53" y2="749.16"/>
  <line class="cls-3" x1="499.71" y1="161.74" x2="499.71" y2="199.23"/>
  <line class="cls-3" x1="499.71" y1="800.74" x2="499.71" y2="838.23"/>
  <g class="cls-2">
    <circle class="cls-1" cx="500" cy="500" r="249"/>
  </g>
</svg>