<?xml version="1.0" encoding="UTF-8"?><svg id="Layer_1" xmlns="http://www.w3.org/2000/svg" viewBox="0 0 1000 1000"><defs><style>.cls-1{fill:none;stroke:#3c91e6;stroke-miterlimit:10;stroke-width:129px;}.cls-2{fill:#3c91e6;}</style></defs><path class="cls-2" d="m500,70c58.08,0,114.39,11.36,167.35,33.76,51.2,21.65,97.19,52.67,136.7,92.18s70.53,85.51,92.18,136.7c22.4,52.97,33.76,109.27,33.76,167.35s-11.36,114.39-33.76,167.35c-21.65,51.2-52.67,97.19-92.18,136.7s-85.51,70.53-136.7,92.18c-52.97,22.4-109.27,33.76-167.35,33.76s-114.39-11.36-167.35-33.76c-51.2-21.65-97.19-52.67-136.7-92.18s-70.53-85.51-92.18-136.7c-22.4-52.97-33.76-109.27-33.76-167.35s11.36-114.39,33.76-167.35c21.65-51.2,52.67-97.19,92.18-136.7s85.51-70.53,136.7-92.18c52.97-22.4,109.27-33.76,167.35-33.76M500,0C223.86,0,0,223.86,0,500s223.86,500,500,500,500-223.86,500-500S776.14,0,500,0h0Z"/><line class="cls-1" x1="835.21" y1="500" x2="164.79" y2="500"/></svg>