<?xml version="1.0" encoding="UTF-8"?>
<svg id="Layer_2" data-name="Layer 2" xmlns="http://www.w3.org/2000/svg" viewBox="0 0 1000 1000">
  <defs>
    <style>
      .cls-1 {
        fill: #fefefe;
      }

      .cls-1, .cls-2, .cls-3, .cls-4, .cls-5 {
        stroke-width: 0px;
      }

      .cls-2, .cls-5 {
        fill: #3c91e6;
      }

      .cls-3 {
        fill: #fdb71a;
      }

      .cls-4 {
        fill: #043ba7;
      }

      .cls-5 {
        opacity: .34;
      }
    </style>
  </defs>
  <path class="cls-5" d="M521.4,779.84c-7.41-12.96-12.96-26.83-19.7-40.12-.91-1.8-1.88-3.56-2.83-5.35-.59-1.09-.29-3.03-1.78-3.16-1.6-.13-1.49,1.73-1.91,2.86-9.72,25.57-21.38,50.16-37.52,72.38-13.01,17.9-28.41,32.77-50.06,40.14-52.07,17.72-104.04,35.75-156.06,53.63-20.84,7.16-41.7,14.25-62.65,21.41-.76-2.1-.11-3.78.35-5.58,21.63-85.85,43.21-171.72,64.79-257.58,2.18-8.69,2.18-8.53,11.31-9.37,32.7-3.02,63.64-11.9,92.08-28.59,34.24-20.1,57.62-48.87,68.87-87.18,2.07-7.05,2.08-7.01-5.04-7.23-4.79-.15-9.57-.5-14.36-.64-36.15-1.1-72.3-2.31-108.47-1.53-22.27.48-44.65-.21-66.52,5.35-4.31,1.1-2.97-1.81-2.31-3.69,16.28-46.59,41.47-87.41,80.85-117.81,59.13-45.64,125.64-54.85,195.56-32.24,94.95,30.71,143.86,99.63,155.7,196.89,2.92,23.99.59,47.9-2.62,71.69-1.6,11.85-4.12,23.57-8.6,34.77-1.25,3.14-2.53,3.85-5.63,1.93-6.1-3.79-12.4-7.26-18.7-10.72-10.26-5.64-20.52-11.3-32.87-16.04,45.3,61.7,89.72,122.21,134.85,183.68-2.82-.43-4.27-.58-5.68-.87-34.01-6.97-68.31-11.61-103.03-12.71-31.8-1.01-60.39-10.45-84.78-31.45-4-3.44-6.95-8-11.64-10.66,0,0,.08.08.08.08.36-1.44-.66-1.87-1.68-2.29Z"/>
  <path class="cls-2" d="M523,782.05c4.69,2.66,7.64,7.22,11.64,10.66,24.39,21,52.98,30.45,84.78,31.45,34.72,1.1,69.02,5.74,103.03,12.71,1.41.29,2.86.44,5.68.87-45.13-61.48-89.55-121.98-134.85-183.68,12.35,4.74,22.61,10.4,32.87,16.04,6.3,3.46,12.6,6.93,18.7,10.72,3.09,1.93,4.37,1.21,5.63-1.93,4.47-11.21,7-22.93,8.6-34.77,3.21-23.79,5.54-47.7,2.62-71.69-11.84-97.27-60.74-166.19-155.7-196.89-69.93-22.61-136.44-13.4-195.56,32.24-39.38,30.39-64.57,71.22-80.85,117.81-.65,1.87-2,4.78,2.31,3.69,21.87-5.56,44.25-4.87,66.52-5.35,36.17-.78,72.32.43,108.47,1.53,4.79.15,9.57.49,14.36.64,7.11.22,7.11.18,5.04,7.23-11.25,38.31-34.64,67.09-68.87,87.18-28.44,16.69-59.38,25.58-92.08,28.59-9.12.84-9.12.68-11.31,9.37-21.58,85.86-43.16,171.73-64.79,257.58-.45,1.8-1.11,3.49-.35,5.58,20.95-7.16,41.81-14.25,62.65-21.41,52.02-17.88,103.99-35.91,156.06-53.63,21.65-7.37,37.05-22.24,50.06-40.14,16.14-22.22,27.8-46.81,37.52-72.38.43-1.12.31-2.99,1.91-2.86,1.49.12,1.19,2.07,1.78,3.16,1.66,17.25,3.97,34.46,3.12,51.86-1.36,27.74-5.92,54.61-21.74,78.35-1.43,2.15-3.05,4.17-4.57,6.25-3.71,5.09-8.29,8.16-14.85,9.35-40.72,7.43-79.7,21.08-118.69,34.49-61.99,21.31-123.13,44.89-183.8,69.7-11.61,4.75-23.3,9.29-34.95,13.93-1.5.6-3.15,2.01-4.6.79-1.49-1.26-.23-3.16.15-4.67,17.24-68.22,34.55-136.43,51.81-204.65,14.05-55.54,28.11-111.07,41.98-166.65,1.24-4.96,3.31-6.76,8.55-6.91,29.61-.82,58.91-4.18,86.82-14.76,18.48-7.01,35.98-15.98,49.08-31.5,2.93-3.47,7.91-7.55,6.56-11.37-1.04-2.93-7.66-1.09-11.75-.99-35.4.88-70.82,1.48-106.18,3.13-22.86,1.07-40.63,10.69-50.95,32.81-14.51,31.12-26.44,63.17-37.11,95.72-1.34,4.08-3.33,6.53-7.39,8.01-12.59,4.57-25.07,9.45-37.57,14.25-1.21.46-2.59,1.42-3.61.62-1.42-1.1-.34-2.68.1-4.04,27.93-87.68,62-172.93,101.3-256.12,14.83-31.39,36.21-57.68,61.8-80.72,3.6-3.25,3.48-4.85.1-7.92-10.11-9.18-19.78-18.83-29.99-27.89-2.89-2.56-2.5-3.57-.04-5.75,13.07-11.6,27.41-21.44,41.98-30.98,35.17-23.04,73.63-37.98,114.79-45.93,21.25-4.1,42.84-4.9,64.44-3.56,65.41,4.07,124.16,25.82,175.85,66.38,65.87,51.69,105,119.18,118.04,201.56,5.41,34.19,4.8,68.59-1.52,102.9-4.43,24.05-11.5,47.09-21.18,69.43-.35.81-.9,1.54-2.42,2.26,0-3.65-.47-7.36.07-10.93,6.43-42.74,7.37-85.69.79-128.31-14.69-95.22-59.51-170.89-146.78-217.1-43.32-22.94-89.8-34.18-139.04-31.76-24.97,1.23-48.8,7.22-70.4,20.43-1.69,1.04-3.66,1.79-4.7,3.69-.32.12-.64.24-.96.36.18.12.35.23.53.35l.32-.81c9.17-1.85,18.28-4.18,27.53-5.47,39.77-5.56,78.86-1.35,116.93,10.65,98.58,31.08,156.12,99.87,180.27,198.6,14.19,58,8.83,115.34-7.34,172.1-1.57,5.52-1.03,9.69,2.33,14.34,38.38,53.22,76.6,106.55,114.86,159.86,6.83,9.52,13.67,19.03,20.49,28.55,1.12,1.57,2.13,3.21,2.43,5.74-6.42-2.05-12.85-4.07-19.27-6.15-49.19-15.94-99.35-27.81-150.59-34.76-31.12-4.22-62.4-6.41-93.83-3.89-2.8.22-4.6-.33-5.97-3.29-11.82-25.56-23.87-51.01-35.76-76.53-.76-1.63-2.71-3.15-1.38-5.38Z"/>
  <path class="cls-2" d="M794.62,421.41c22.74-21.52,45.74-41.87,67.77-63.29,13.91-13.53,28.63-26.22,43.11-39.15,3.23-2.88,5.65-6.44,9.32-9.07,4.23-3.04,4.53-.16,5.56,2.31,10.16,24.29,18.98,49.06,25.86,74.5,4.52,16.71,8.17,33.62,10.84,50.73.93,5.94.68,6.38-5.52,5.54-27.93-3.77-55.85-7.63-83.77-11.47-24.23-3.33-48.46-6.69-73.16-10.09Z"/>
  <path class="cls-2" d="M749.27,323.43c27.82-48.28,55.41-96.17,83.24-144.46,5.47,4.95,9.52,10.59,13.84,15.99,22.96,28.71,43.58,58.97,60.11,91.87,5,9.95,6.23,10.38-6.09,12.38-43.99,7.14-87.93,14.6-131.89,21.95-6.24,1.04-12.43,2.57-19.21,2.28Z"/>
  <path class="cls-2" d="M583.09,183.82c-2.31-28.24-4.57-55.59-6.79-82.94-2.12-26.09-4.09-52.2-6.41-78.28-.43-4.85.13-5.85,5.17-4.43,42.47,12.01,83.38,27.79,121.94,49.44,4.01,2.25,4.21,3.58.88,6.76-37.51,35.76-74.9,71.64-112.33,107.49-.51.49-1.11.89-2.45,1.96Z"/>
  <path class="cls-2" d="M678.92,242.3c4.37-19.68,8.5-38.54,12.75-57.37,7.62-33.75,15.29-67.49,23.01-101.21.42-1.81-.42-5.76,3.92-2.97,38.32,24.55,73.8,52.55,105,85.81,2.36,2.52,1.65,3.21-.94,4.5-47.13,23.44-94.22,46.95-141.33,70.44-.48.24-1.04.35-2.41.8Z"/>
  <path class="cls-2" d="M474.71,157.41c-5.91-14.54-11.41-27.95-16.83-41.4-13.47-33.45-26.9-66.91-40.39-100.35-.95-2.36-2.32-4.56-3.39-6.87-3.05-6.55-2.53-7.4,4.53-7.84,13.26-.83,26.53-.61,39.77.17,29.62,1.75,59.18,4.19,88.21,10.82,1.25.29,2.47.81,3.73.99,3.14.42,2.86,1.72,1.56,4.07-21.97,39.97-43.6,80.14-66.25,119.73-3.69,6.45-6.96,13.13-10.94,20.67Z"/>
  <path class="cls-2" d="M361.79,162.51c-13.29-16.11-25.86-31.43-38.51-46.68-21.07-25.38-42.17-50.74-63.3-76.07-5.58-6.69-5.58-6.42,3.01-9.35,31.77-10.82,64.11-19.36,97.33-24.38,9.83-1.48,19.76-2.32,29.61-3.68,3.9-.54,3.98,1.47,3.45,4.18-4.12,21.12-8.23,42.24-12.4,63.35-5.83,29.51-11.7,59.01-17.59,88.52-.21,1.05-.77,2.03-1.58,4.11Z"/>
  <path class="cls-2" d="M814.16,532.43c49.02-25.04,96.74-49.42,144.95-74.04,3.56,17.18,4.61,34.1,5.22,51.07.85,23.6.88,47.17-1.32,70.71-.05.55-.07,1.1-.12,1.66-1.32,14.42-1.59,14.55-14.77,8.81-35.4-15.41-70.82-30.77-106.23-46.16-8.84-3.84-17.69-7.69-27.73-12.05Z"/>
  <path class="cls-2" d="M798.45,637.94c11.97-2.28,23.08-4.55,34.25-6.49,39.52-6.85,79.04-13.72,118.72-19.56,1.46-.21,2.93-.32,4.39-.53,2.21-.31,2.87.33,2.41,2.73-7.94,41.65-19.28,82.24-36.94,120.91-3.38,7.39-3.33,7.34-9.31,2.13-36.26-31.63-72.55-63.23-108.82-94.85-1.36-1.19-2.66-2.45-4.71-4.35Z"/>
  <path class="cls-2" d="M240.45,39.49c5.05,54.48,10.05,108.37,15.05,162.32-2.77.37-3.99-1.26-5.56-2.42-39.6-29.35-79.23-58.64-118.86-87.94-7.37-5.45-7.29-5.37.08-10.54,21.29-14.94,43.14-28.97,66.12-41.21,13.87-7.39,28.14-13.88,43.17-20.2Z"/>
  <path class="cls-2" d="M173.45,282.69c-15.65-9.95-30.19-19.18-44.71-28.42-30.3-19.28-60.57-38.6-90.91-57.81-2.72-1.72-3.86-2.22-1.11-5.7,20.68-26.16,44.91-48.75,69.76-70.76,4.37-3.87,5.36-3.65,7.39,1.77,18.89,50.47,37.79,100.93,56.65,151.41,1.06,2.83,1.8,5.79,2.93,9.51Z"/>
  <path class="cls-2" d="M746.5,721.93c12.02,2.13,23.02,4.01,33.99,6.03,41.49,7.62,82.97,15.27,124.45,22.91.72.13,1.46.22,2.19.3,5.16.56,5.62,2.95,3.25,7.18-4.05,7.23-7.55,14.76-11.61,21.97-11.13,19.77-23.01,39.05-36.77,57.14-2.27,2.98-3.64,4.37-6.92.74-10.09-11.15-20.58-21.94-30.95-32.84-16.25-17.09-32.3-34.36-48.81-51.22-9.07-9.26-17.58-19.13-26.37-28.71-.7-.77-1.21-1.72-2.44-3.51Z"/>
  <path class="cls-5" d="M717,355.85c12.31-1.28,24.14-2.48,35.97-3.74,15.68-1.68,31.34-3.46,47.02-5.11,6.54-.69,13.12-1.09,19.66-1.8,1.12-.12,2.23-.72,2.93.45.77,1.29-.64,1.9-1.26,2.64-6.58,7.95-13.19,15.87-19.84,23.76-13.89,16.48-27.89,32.87-41.66,49.46-3.04,3.66-4.3,2.75-5.88-.95-8.68-20.33-19.55-39.4-32.77-57.14-1.59-2.13-2.61-4.69-4.16-7.55Z"/>
  <path class="cls-5" d="M747.07,248.21c-.94,6.86-4.51,12.75-7.16,18.95-10.2,23.85-20.61,47.6-30.98,71.37-2.15,4.92-3.01,4.81-6.42.67-10.28-12.5-21.41-24.11-34.12-34.28-6.4-5.13-11.99-11.33-19.56-16.63,10.56-4.44,20.32-8.55,30.1-12.64,20.71-8.66,41.42-17.31,62.15-25.92,1.84-.76,3.55-2.02,5.71-1.8l.27.28Z"/>
  <path class="cls-5" d="M640.52,282.13c-22.38-15.35-45.3-27.67-70.63-37.8,27.97-22.18,55.24-43.82,82.52-65.45l1.46.65c-4.41,33.88-8.82,67.75-13.35,102.6Z"/>
  <path class="cls-5" d="M280.12,265c-23.16,13.83-43.91,29.05-63.98,46.93-8.88-33.85-17.54-66.85-26.2-99.85.48-.43.97-.86,1.45-1.3,29.3,17.9,58.61,35.81,88.73,54.21Z"/>
  <path class="cls-5" d="M554.48,238.64c-25.45-8.42-50.6-13.2-77.11-16.42,20-28.79,39.56-56.94,59.12-85.1.51.08,1.03.17,1.54.25,5.42,33.39,10.84,66.78,16.45,101.26Z"/>
  <path class="cls-5" d="M414.98,130.5c14.61,29.99,29.23,59.97,44.38,91.05-26.36-1.15-51.46.98-77.37,5.59,10.62-32.78,20.98-64.73,31.33-96.68.56.01,1.11.03,1.67.04Z"/>
  <path class="cls-5" d="M782.76,519.98c-1.96-16.76-4.4-32.35-8.19-47.69-2.04-8.23-4.37-16.39-6.69-24.55-.74-2.59-.56-3.71,2.61-3.2,25.42,4.03,50.82,8.13,76.01,13.46,5.31,1.12,10.65,2.12,17.48,3.47-27.45,19.78-53.91,38.83-81.22,58.51Z"/>
  <path class="cls-5" d="M294.52,257.03c1.22-33.64,2.41-66.65,3.67-101.47,6.19,6.71,11.26,12.08,16.21,17.58,15.8,17.54,31.55,35.11,47.32,52.67,4.24,4.73,4.29,4.85-1.5,6.45-21.35,5.9-42.04,13.5-61.91,23.31-.95.47-1.98.78-3.79,1.47Z"/>
  <path class="cls-5" d="M876.26,593.01c-33.21,8.47-65.51,16.7-97.8,24.93-1.44-3.16-.01-5.98.52-8.81,3.55-18.9,5.04-37.97,4.52-57.17-.12-4.41.9-4.99,4.84-3.02,24.03,12.02,48.18,23.83,72.26,35.76,4.95,2.45,10.5,3.79,15.67,8.31Z"/>
  <path class="cls-5" d="M748.68,701.25c7.97-13.62,14.74-26.87,19.81-40.9,1.31-3.63,2.78-7.24,3.64-10.98.88-3.8,2.09-3.47,4.5-1.21,10.34,9.7,20.79,19.29,31.16,28.95,11.72,10.92,23.41,21.88,35.1,32.84.63.59,1.12,1.34,1.3,3.37-31.61-4-63.22-7.99-95.52-12.07Z"/>
  <path class="cls-4" d="M521.4,779.84c1.03.42,2.04.84,1.68,2.29-2.12.39-.95-1.65-1.68-2.29Z"/>
  <path class="cls-3" d="M746.8,247.94c.18-.22.36-.44.54-.65.1.11.31.31.3.33-.17.21-.38.4-.57.6,0,0-.27-.28-.27-.28Z"/>
  <path class="cls-1" d="M372.29,327.68l-.32.81c-.18-.12-.35-.23-.53-.35.32-.12.64-.24.96-.36,0,0-.11-.1-.11-.1Z"/>
</svg>