<?xml version="1.0" encoding="UTF-8"?><svg id="Layer_1" xmlns="http://www.w3.org/2000/svg" viewBox="0 0 1000 1000"><defs><style>.cls-1{fill:#3c91e6;}</style></defs><path class="cls-1" d="m820.95,899.44c-36.7,29.18-81.68,53.15-134.95,71.95-53.28,18.79-111.97,28.18-176.06,28.18-78.69,0-149.1-12.6-211.21-37.8-62.12-25.2-114.84-59.91-158.16-104.11-43.33-44.2-76.26-95.49-98.81-153.85-22.55-58.36-33.82-120.91-33.82-187.67s12.27-135.83,36.8-197.94c24.54-62.11,59.9-117.04,106.1-164.79,46.19-47.75,101.46-85.32,165.78-112.73C380.97,13.28,452.69-.43,531.83-.43c57.03,0,112.84,8.07,167.44,24.2,54.59,16.14,104,40.9,148.21,74.27,44.2,33.38,79.35,76.26,105.44,128.65,26.08,52.39,39.12,115.05,39.12,188,0,65.88-10.84,123.9-32.49,174.07-21.67,50.18-51.51,89.42-89.52,117.71-38.03,28.3-81.35,42.44-129.97,42.44-35.37,0-62.33-6.07-80.9-18.24-18.57-12.15-31.4-28.18-38.46-48.08-2.65-5.31-4.87-7.96-6.63-7.96s-4.87,2.43-9.28,7.29c-19.01,24.32-43.1,44.66-72.28,61.01-29.18,16.36-63.89,24.54-104.11,24.54-34.05,0-65.43-9.39-94.16-28.18-28.74-18.79-51.62-45.31-68.63-79.58-17.02-34.25-25.31-74.6-24.87-121.02,0-53.93,10.61-103.67,31.83-149.2,21.22-45.53,50.95-81.9,89.19-109.08,38.23-27.19,82.56-40.78,132.96-40.78,35.81,0,65.42,7.08,88.86,21.22,23.43,14.15,42.44,32.49,57.03,55.04,1.76,1.77,3.65,2.32,5.64,1.66s3.2-2.76,3.65-6.3l9.95-38.46h91.51l-49.07,291.78c-6.2,35.81-4.87,60.46,3.98,73.94,8.84,13.49,22.98,20.23,42.44,20.23,25.63,0,49.4-9.17,71.29-27.52,21.88-18.34,39.79-45.09,53.71-80.24,13.93-35.15,20.89-77.92,20.89-128.32,0-61.89-10.51-114.16-31.5-156.83-21-42.66-48.97-77.14-83.89-103.45-34.93-26.3-73.94-45.42-117.04-57.36s-86.77-17.9-130.97-17.9c-69.86,0-131.2,11.39-184.02,34.15-52.83,22.77-97.04,53.94-132.63,93.5-35.59,39.57-62.45,85.21-80.57,136.94-18.13,51.72-27.19,106.55-27.19,164.46s9.28,111.3,27.85,160.15c18.57,48.85,45.86,91.18,81.9,126.99,36.03,35.81,80.24,63.43,132.63,82.89,52.39,19.45,112.4,29.18,180.04,29.18,39.79,0,73.49-3.76,101.13-11.27,27.62-7.52,52.39-17.47,74.27-29.84,21.88-12.38,43.87-26.08,65.98-41.11l50.4,66.31Zm-469.5-369.36c0,41.56,8.62,75.6,25.86,102.12,17.24,26.53,42.21,39.79,74.93,39.79,26.96,0,51.83-7.96,74.6-23.87,22.76-15.92,41.66-36.91,56.7-63,15.02-26.08,24.09-54.38,27.19-84.88,4.41-35.36,1.99-65.32-7.29-89.85s-22.99-43.32-41.11-56.37c-18.13-13.03-38.24-19.56-60.34-19.56-29.18,0-55.15,8.85-77.92,26.53-22.77,17.69-40.56,41.23-53.38,70.62-12.83,29.41-19.23,62.23-19.23,98.47Z"/></svg>