<?xml version="1.0" encoding="UTF-8"?><svg id="Layer_1" xmlns="http://www.w3.org/2000/svg" viewBox="0 0 1000 1000"><defs><style>.cls-1{fill:#3c91e6;fill-rule:evenodd;}</style></defs><path class="cls-1" d="m500,14.49C224.97,14.49,2.21,237.25,2.21,512.28c0,220.27,142.49,406.32,340.36,472.28,24.89,4.36,34.22-10.58,34.22-23.64,0-11.82-.62-51.02-.62-92.71-125.07,23.02-157.43-30.49-167.38-58.49-5.6-14.31-29.87-58.49-51.02-70.31-17.42-9.33-42.31-32.36-.62-32.98,39.2-.62,67.2,36.09,76.53,51.02,44.8,75.29,116.36,54.13,144.98,41.07,4.36-32.36,17.42-54.13,31.73-66.58-110.76-12.44-226.49-55.38-226.49-245.78,0-54.13,19.29-98.94,51.02-133.78-4.98-12.44-22.4-63.47,4.98-131.91,0,0,41.69-13.07,136.89,51.02,39.82-11.2,82.13-16.8,124.45-16.8s84.62,5.6,124.45,16.8c95.2-64.71,136.89-51.02,136.89-51.02,27.38,68.45,9.96,119.47,4.98,131.91,31.73,34.85,51.02,79.02,51.02,133.78,0,191.03-116.36,233.34-227.12,245.78,18.04,15.56,33.6,45.42,33.6,92.09,0,66.58-.62,120.09-.62,136.89,0,13.07,9.33,28.62,34.22,23.64,196.63-65.96,339.12-252.63,339.12-472.28,0-275.03-222.76-497.79-497.79-497.79Z"/></svg>