<?xml version="1.0" encoding="UTF-8"?><svg id="Layer_1" xmlns="http://www.w3.org/2000/svg" viewBox="0 0 1000 1000"><defs><style>.cls-1{fill:#3c91e6;}</style></defs><path class="cls-1" d="m699.31,999.57h-399.05C134.7,999.57,0,864.88,0,699.31v-399.05C0,134.7,134.7,0,300.26,0h399.05c165.56,0,300.26,134.7,300.26,300.26v399.05c0,165.56-134.7,300.26-300.26,300.26ZM300.26,90.87c-115.46,0-209.39,93.93-209.39,209.39v399.05c0,115.46,93.93,209.39,209.39,209.39h399.05c115.46,0,209.39-93.93,209.39-209.39v-399.05c0-115.46-93.93-209.39-209.39-209.39h-399.05Z"/><path class="cls-1" d="m499.79,754.22c-140.3,0-254.44-114.14-254.44-254.44s114.14-254.44,254.44-254.44,254.44,114.14,254.44,254.44-114.14,254.44-254.44,254.44Zm0-418c-90.19,0-163.57,73.38-163.57,163.57s73.38,163.57,163.57,163.57,163.57-73.38,163.57-163.57-73.38-163.57-163.57-163.57Z"/><circle class="cls-1" cx="767.85" cy="233.99" r="65.88"/></svg>