<?xml version="1.0" encoding="UTF-8"?>
<svg id="Layer_1" data-name="Layer 1" xmlns="http://www.w3.org/2000/svg" viewBox="0 0 1000 1000">
  <defs>
    <style>
      .cls-1 {
        fill: #3c91e6;
        stroke-width: 0px;
      }

      .cls-2 {
        stroke-linecap: square;
        stroke-width: 52px;
      }

      .cls-2, .cls-3 {
        fill: none;
        stroke: #3c91e6;
        stroke-miterlimit: 10;
      }

      .cls-3 {
        stroke-width: 37px;
      }
    </style>
  </defs>
  <g>
    <path class="cls-1" d="M629.73,298.34l66.87,66.87-66.87,66.87-66.87-66.87,66.87-66.87M629.73,246.01l-119.19,119.19,119.19,119.19,119.19-119.19-119.19-119.19h0Z"/>
    <line class="cls-3" x1="675.4" y1="200.35" x2="794.59" y2="319.54"/>
    <path class="cls-1" d="M419.21,508.87l66.87,66.87-66.87,66.87-66.87-66.87,66.87-66.87M419.21,456.54l-119.19,119.19,119.19,119.19,119.19-119.19-119.19-119.19h0Z"/>
    <line class="cls-3" x1="464.87" y1="410.87" x2="584.07" y2="530.07"/>
    <path class="cls-1" d="M208.68,719.39l66.87,66.87-66.87,66.87-66.87-66.87,66.87-66.87M208.68,667.07l-119.19,119.19,119.19,119.19,119.19-119.19-119.19-119.19h0Z"/>
    <line class="cls-3" x1="254.35" y1="621.4" x2="373.54" y2="740.59"/>
    <polyline class="cls-2" points="46.11 742.95 692.43 96.63 906.05 310.26 259.73 956.57"/>
  </g>
  <line class="cls-2" x1="735" y1="139.2" x2="832.97" y2="41.23"/>
  <line class="cls-2" x1="851.02" y1="255.23" x2="949" y2="157.25"/>
  <g>
    <line class="cls-2" x1="109.37" y1="372.94" x2="226.88" y2="372.94"/>
    <line class="cls-2" x1="178.7" y1="200.56" x2="261.79" y2="283.66"/>
    <line class="cls-2" x1="349.6" y1="132.08" x2="349.6" y2="249.6"/>
  </g>
  <g>
    <line class="cls-2" x1="862.2" y1="644.69" x2="744.69" y2="644.69"/>
    <line class="cls-2" x1="792.87" y1="817.07" x2="709.78" y2="733.98"/>
    <line class="cls-2" x1="621.97" y1="885.55" x2="621.97" y2="768.03"/>
  </g>
</svg>