<?xml version="1.0" encoding="UTF-8"?><svg id="Layer_1" xmlns="http://www.w3.org/2000/svg" viewBox="0 0 1000 1000"><defs><style>.cls-1{fill:#3c91e6;}</style></defs><path class="cls-1" d="m232.41,321.47H31.39c-8.92,0-16.15,7.23-16.15,16.15v645.8c0,8.92,7.23,16.15,16.15,16.15h201.02c8.92,0,16.15-7.23,16.15-16.15V337.62c0-8.92-7.23-16.15-16.15-16.15Z"/><path class="cls-1" d="m131.97.43C58.83.43-.68,59.87-.68,132.93s59.51,132.56,132.65,132.56,132.54-59.47,132.54-132.56c0-73.06-59.46-132.5-132.54-132.5Z"/><path class="cls-1" d="m743.73,305.42c-80.74,0-140.42,34.71-176.62,74.15v-41.94c0-8.92-7.23-16.15-16.15-16.15h-192.51c-8.92,0-16.15,7.23-16.15,16.15v645.8c0,8.92,7.23,16.15,16.15,16.15h200.58c8.92,0,16.15-7.23,16.15-16.15v-319.52c0-107.67,29.25-149.62,104.3-149.62,81.74,0,88.24,67.25,88.24,155.16v313.98c0,8.92,7.23,16.15,16.15,16.15h200.66c8.92,0,16.15-7.23,16.15-16.15v-354.23c0-160.1-30.53-323.77-256.95-323.77Z"/></svg>