<?xml version="1.0" encoding="UTF-8"?>
<svg id="Layer_1" data-name="Layer 1" xmlns="http://www.w3.org/2000/svg" viewBox="0 0 1000 1000">
  <defs>
    <style>
      .cls-1, .cls-2 {
        fill: #3c91e6;
        stroke-width: 0px;
      }

      .cls-2 {
        opacity: .34;
      }

      .cls-3 {
        fill: none;
        stroke: #3c91e6;
        stroke-linecap: square;
        stroke-miterlimit: 10;
        stroke-width: 52px;
      }
    </style>
  </defs>
  <circle class="cls-2" cx="500" cy="500" r="476"/>
  <path class="cls-1" d="M500,50c60.77,0,119.7,11.89,175.14,35.34,53.58,22.66,101.71,55.12,143.05,96.46,41.34,41.34,73.8,89.47,96.46,143.05,23.45,55.45,35.34,114.37,35.34,175.15s-11.89,119.7-35.34,175.15c-22.66,53.58-55.12,101.71-96.46,143.05-41.34,41.34-89.47,73.8-143.05,96.46-55.45,23.45-114.37,35.34-175.14,35.34s-119.7-11.89-175.15-35.34c-53.58-22.66-101.71-55.12-143.05-96.46-41.34-41.34-73.8-89.47-96.46-143.05-23.45-55.45-35.34-114.37-35.34-175.15s11.89-119.7,35.34-175.15c22.66-53.58,55.12-101.71,96.46-143.05,41.34-41.34,89.47-73.8,143.05-96.46,55.45-23.45,114.37-35.34,175.15-35.34M500,0C223.86,0,0,223.86,0,500s223.86,500,500,500,500-223.86,500-500S776.14,0,500,0h0Z"/>
  <line class="cls-3" x1="501" y1="164.79" x2="501" y2="835.21"/>
  <line class="cls-3" x1="836.21" y1="500" x2="165.79" y2="500"/>
</svg>