<?xml version="1.0" encoding="UTF-8"?><svg id="Layer_1" xmlns="http://www.w3.org/2000/svg" viewBox="0 0 1000 1000"><defs><style>.cls-1{fill:none;stroke:#3c91e6;stroke-miterlimit:10;stroke-width:56px;}.cls-2{fill:#3c91e6;}</style></defs><path class="cls-2" d="m636.59,436.15c20.51,28.41,31.59,62.44,31.59,98.17,0,44.92-17.49,87.16-49.26,118.92-31.77,31.77-74,49.26-118.92,49.26-35.73,0-69.75-11.08-98.17-31.59l-42.12,42.12c38.63,30.36,87.34,48.47,140.28,48.47,125.47,0,227.18-101.71,227.18-227.18,0-52.94-18.11-101.66-48.47-140.28l-42.12,42.12Z"/><path class="cls-2" d="m362.42,631.12c-19.89-28.14-30.6-61.65-30.6-96.81,0-44.92,17.49-87.16,49.26-118.92,31.77-31.77,74-49.26,118.92-49.26,35.16,0,68.67,10.72,96.81,30.6l42.15-42.15c-38.41-29.74-86.61-47.46-138.96-47.46-125.47,0-227.18,101.71-227.18,227.18,0,52.34,17.71,100.54,47.46,138.96l42.15-42.15Z"/><line class="cls-1" x1="833.78" y1="166.37" x2="166.79" y2="833.36"/><path class="cls-2" d="m693.86,299.54l46.09-46.09c-75.66-29.18-158.17-44.46-241.54-44.46-100.44,0-199.77,22.19-287.25,64.17C123.07,315.44,49.32,376.65-2.12,450.19l48.35,33.82c93.2-133.24,266.46-216,452.17-216,68.03,0,134.25,11.04,195.46,31.54Z"/><path class="cls-2" d="m794.88,277.72l-44.23,44.23c83.56,38.2,154.46,95.23,202.91,166.39l48.77-33.21c-49.8-73.12-121.43-134.34-207.45-177.41Z"/></svg>