<?xml version="1.0" encoding="UTF-8"?>
<svg id="Layer_1" data-name="Layer 1" xmlns="http://www.w3.org/2000/svg" viewBox="0 0 1000 1000">
  <defs>
    <style>
      .cls-1, .cls-2 {
        fill: #3c91e6;
        stroke-width: 0px;
      }

      .cls-2 {
        opacity: .34;
      }
    </style>
  </defs>
  <g>
    <path class="cls-1" d="M483.02,568.12h304.98c0,167.31-137.67,304.98-304.98,304.98s-304.98-137.67-304.98-304.98,137.37-304.71,304.49-304.98l.49,304.98Z"/>
    <path class="cls-1" d="M853.98,249.9l44.39,44.39,50.06-50.06-44.39-44.39-50.06-50.06-44.39-44.39-50.06,50.06,44.39,44.39-40.44,40.44c-67.03-57.39-151.85-94.58-245.06-102.15v-66.91h129.57V.43h-329.93v70.8h129.57v66.91C225.9,156.13,51.57,341.76,51.57,568.12c0,238.28,193.17,431.45,431.45,431.45s431.45-193.17,431.45-431.45c0-105.72-38.04-202.53-101.16-277.56l40.67-40.67ZM859.7,568.12c0,50.88-9.95,100.2-29.58,146.61-18.97,44.85-46.14,85.14-80.75,119.75-34.61,34.61-74.9,61.78-119.75,80.75-46.4,19.63-95.73,29.58-146.61,29.58s-100.2-9.95-146.61-29.58c-44.85-18.97-85.14-46.14-119.75-80.75-34.61-34.61-61.78-74.9-80.75-119.75-19.63-46.4-29.58-95.73-29.58-146.61s9.95-100.2,29.58-146.61c18.97-44.85,46.14-85.14,80.75-119.75,34.61-34.61,74.9-61.78,119.75-80.75,46.4-19.63,95.73-29.58,146.61-29.58s100.2,9.95,146.61,29.58c44.85,18.97,85.14,46.14,119.75,80.75s61.78,74.9,80.75,119.75c19.63,46.4,29.58,95.73,29.58,146.61Z"/>
  </g>
  <circle class="cls-2" cx="483" cy="568.57" r="306"/>
</svg>