<?xml version="1.0" encoding="UTF-8"?><svg id="Layer_1" xmlns="http://www.w3.org/2000/svg" viewBox="0 0 1000 1000"><defs><style>.cls-1{fill:none;stroke:#3c91e6;stroke-miterlimit:10;stroke-width:53px;}.cls-2{fill:#3c91e6;}</style></defs><path class="cls-2" d="m829.51,531.76c30.43,19.25,56.09,45.56,74.89,77.33,18.8,31.77,29.51,66.93,31.73,102.87-27.56-22.36-51.05-49.55-69.41-80.57-18.36-31.03-30.88-64.7-37.21-99.63m-50.35-71.9c-3.44,66.09,11.82,133.85,47.97,194.95,36.15,61.1,88.2,107.1,147.78,135.89,16.11-67.33,7.12-140.75-30.92-205.04-38.04-64.29-98.06-107.51-164.83-125.8h0Z"/><path class="cls-2" d="m475.72,721.75c33.72,24.16,62.12,55.11,83.65,91.49,21.53,36.38,34.99,76.17,39.93,117.36-9.39-4.91-18.46-10.48-27.18-16.69-26.15-18.65-47.78-42.26-64.29-70.17-16.51-27.91-26.8-58.24-30.56-90.13-1.25-10.63-1.77-21.26-1.55-31.86m-34.94-72.66c-20.62,70.79-13.04,149.61,27.46,218.08,40.51,68.46,105.95,113.04,177.92,129.05,5.92-69.68-8.97-141.76-47.21-206.39s-94.26-112.38-158.18-140.73h0Z"/><path class="cls-2" d="m696.43,496.17c.56,13.07,1.72,26.11,3.46,39.05,7.72,57.19,26.64,111.56,56.24,161.59,29.6,50.03,68.15,92.79,114.56,127.08,10.51,7.76,21.39,15.06,32.57,21.84-6.05,10.02-12.86,19.56-20.4,28.57-16.74,20.01-36.73,36.96-59.43,50.39-28.72,17-60.67,27.52-93.53,30.93-.41-15.46-1.64-30.9-3.71-46.23-7.72-57.19-26.64-111.56-56.24-161.59-29.6-50.03-68.15-92.79-114.56-127.08-12.45-9.2-25.39-17.72-38.76-25.52,18.75-27.14,43.19-49.94,72.16-67.08,32.82-19.42,69.85-30.39,107.64-31.95m9.42-46.2c-47.85,0-96.31,12.43-140.47,38.56-51.54,30.5-89.55,75.12-112.02,126.03,26.37,11.5,51.37,25.9,74.71,43.15,41.44,30.62,75.86,68.81,102.31,113.51s43.35,93.26,50.24,144.32c3.88,28.76,4.48,57.61,1.86,86.26,7.94.69,15.92,1.04,23.92,1.04,47.85,0,96.31-12.43,140.48-38.56,55.61-32.91,95.47-82.26,117.06-138.21-23.14-10.79-45.16-23.86-65.89-39.18-41.44-30.62-75.86-68.81-102.31-113.51s-43.35-93.26-50.24-144.32c-3.45-25.54-4.3-51.14-2.62-76.61-12.24-1.65-24.61-2.49-37.01-2.49h0Z"/><rect class="cls-1" x="338.12" y="218.8" width="185.6" height="426.66" transform="translate(431.78 -178.14) rotate(45)"/><path class="cls-1" d="m516.58,216.92c-44.45-44.45-44.45-116.52,0-160.97,44.45-44.45,116.52-44.45,160.97,0,26.43,26.43,37.26,62.95,32.26,97.3h0c34.35-5,70.34,5.52,96.77,31.95,44.45,44.45,44.45,116.52,0,160.97s-116.52,44.45-160.97,0"/><path class="cls-1" d="m346.42,649.26c44.45,44.45,44.45,116.52,0,160.97-44.45,44.45-116.52,44.45-160.97,0-26.43-26.43-37.26-62.95-32.26-97.3h0c-34.35,5-70.34-5.52-96.77-31.95-44.45-44.45-44.45-116.52,0-160.97,44.45-44.45,116.52-44.45,160.97,0"/></svg>