<?xml version="1.0" encoding="UTF-8"?>
<svg id="Layer_1" data-name="Layer 1" xmlns="http://www.w3.org/2000/svg" viewBox="0 0 1000 1000">
  <defs>
    <style>
      .cls-1, .cls-2 {
        fill: #3c91e6;
        stroke-width: 0px;
      }

      .cls-2 {
        opacity: .34;
      }

      .cls-3 {
        fill: none;
        stroke: #3c91e6;
        stroke-miterlimit: 10;
        stroke-width: 50px;
      }
    </style>
  </defs>
  <path class="cls-1" d="M500,50.57c60.77,0,119.7,11.89,175.15,35.34,53.58,22.66,101.71,55.12,143.05,96.46s73.8,89.47,96.46,143.05c23.45,55.45,35.34,114.37,35.34,175.15s-11.89,119.7-35.34,175.15c-22.66,53.58-55.12,101.71-96.46,143.05s-89.47,73.8-143.05,96.46c-55.45,23.45-114.37,35.34-175.15,35.34s-119.7-11.89-175.15-35.34c-53.58-22.66-101.71-55.12-143.05-96.46s-73.8-89.47-96.46-143.05c-23.45-55.45-35.34-114.37-35.34-175.15s11.89-119.7,35.34-175.15c22.66-53.58,55.12-101.71,96.46-143.05s89.47-73.8,143.05-96.46c55.45-23.45,114.37-35.34,175.15-35.34M500,.57C223.86.57,0,224.43,0,500.57s223.86,500,500,500,500-223.86,500-500S776.14.57,500,.57h0Z"/>
  <path class="cls-1" d="M500,50c34.99,0,69.28,10.57,101.92,31.43,33.49,21.4,63.92,52.56,90.44,92.62,27.52,41.57,49.21,90.29,64.48,144.81,16.03,57.25,24.16,118.2,24.16,181.14s-8.13,123.89-24.16,181.14c-15.27,54.52-36.96,103.24-64.48,144.81-26.52,40.06-56.95,71.22-90.44,92.62-32.64,20.85-66.93,31.43-101.92,31.43s-69.28-10.57-101.92-31.43c-33.49-21.4-63.92-52.56-90.44-92.62-27.52-41.57-49.21-90.29-64.48-144.81-16.03-57.25-24.16-118.2-24.16-181.14s8.13-123.89,24.16-181.14c15.27-54.52,36.96-103.24,64.48-144.81,26.52-40.06,56.95-71.22,90.44-92.62,32.64-20.85,66.93-31.43,101.92-31.43M500,0C317.19,0,169,223.86,169,500s148.19,500,331,500,331-223.86,331-500S682.81,0,500,0h0Z"/>
  <line class="cls-3" x1="500" x2="500" y2="1000"/>
  <line class="cls-3" x1="83" y1="259.6" x2="917" y2="259.6"/>
  <line class="cls-3" x1="83" y1="737.57" x2="917" y2="737.57"/>
  <line class="cls-3" x1="1000" y1="500" y2="500"/>
  <circle class="cls-2" cx="500" cy="499.57" r="476"/>
</svg>