<?xml version="1.0" encoding="UTF-8"?>
<svg id="Layer_1" data-name="Layer 1" xmlns="http://www.w3.org/2000/svg" viewBox="0 0 1000 1000">
  <defs>
    <style>
      .cls-1, .cls-2 {
        fill: #3c91e6;
        stroke-width: 0px;
      }

      .cls-2 {
        opacity: .34;
      }

      .cls-3 {
        opacity: .95;
      }
    </style>
  </defs>
  <circle class="cls-2" cx="500" cy="500" r="476"/>
  <path class="cls-1" d="M500,50c60.77,0,119.7,11.89,175.14,35.34,53.58,22.66,101.71,55.12,143.05,96.46,41.34,41.34,73.8,89.47,96.46,143.05,23.45,55.45,35.34,114.37,35.34,175.15s-11.89,119.7-35.34,175.15c-22.66,53.58-55.12,101.71-96.46,143.05-41.34,41.34-89.47,73.8-143.05,96.46-55.45,23.45-114.37,35.34-175.14,35.34s-119.7-11.89-175.14-35.34c-53.58-22.66-101.71-55.12-143.05-96.46-41.34-41.34-73.8-89.47-96.46-143.05-23.45-55.45-35.34-114.37-35.34-175.15s11.89-119.7,35.34-175.15c22.66-53.58,55.12-101.71,96.46-143.05,41.34-41.34,89.47-73.8,143.05-96.46,55.45-23.45,114.37-35.34,175.14-35.34M500,0C223.86,0,0,223.86,0,500s223.86,500,500,500,500-223.86,500-500S776.14,0,500,0h0Z"/>
  <g class="cls-3">
    <path class="cls-1" d="M285.55,840.36v-109.86h181.05v109.86h-181.05ZM311.91,484.4v-109.86h264.55v109.86h-264.55ZM511.87,311.69c-22.56,0-40.87-7.03-54.93-21.09s-21.09-32.37-21.09-54.93,7.03-40.87,21.09-54.93,32.37-21.09,54.93-21.09,40.87,7.03,54.93,21.09,21.09,32.38,21.09,54.93-7.03,40.87-21.09,54.93-32.38,21.09-54.93,21.09ZM457.81,840.36v-439.45h118.65v439.45h-118.65ZM567.68,840.36v-109.86h146.78v109.86h-146.78Z"/>
  </g>
</svg>