<?xml version="1.0" encoding="UTF-8"?><svg id="Layer_1" xmlns="http://www.w3.org/2000/svg" xmlns:xlink="http://www.w3.org/1999/xlink" viewBox="0 0 1000 1000"><defs><style>.cls-1{fill:#333;}.cls-1,.cls-2,.cls-3,.cls-4{stroke:#000;stroke-width:3px;}.cls-1,.cls-2,.cls-4{stroke-linecap:round;stroke-linejoin:round;}.cls-2{fill:#5e5e5e;}.cls-3{stroke-miterlimit:10;}.cls-5{filter:url(#drop-shadow-1);}.cls-4{fill:#b3b3b3;}.cls-6{fill:#cb9b6a;}</style><filter id="drop-shadow-1" filterUnits="userSpaceOnUse"><feOffset dx="2" dy="0"/><feGaussianBlur result="blur" stdDeviation="12"/><feFlood flood-color="#000" flood-opacity=".36"/><feComposite in2="blur" operator="in"/><feComposite in="SourceGraphic"/></filter></defs><g class="cls-5"><polyline class="cls-4" points="315.45 737.99 315.45 830.6 325.85 830.6 315.45 861.14 288.81 861.14 288.81 737.99"/><polyline class="cls-4" points="684.55 737.99 684.55 829.95 674.15 829.95 693 861.14 711.19 861.14 711.19 737.99"/><polygon class="cls-2" points="329.1 824.1 667.65 824.1 693 861.14 693 908.57 314.15 908.57 314.15 861.14 329.1 824.1"/><line class="cls-1" x1="314.15" y1="861.14" x2="693" y2="861.14"/><rect class="cls-3" x="24.33" y="91.43" width="951.34" height="646.57" rx="1.21" ry="1.21"/><rect class="cls-1" x="41.23" y="108.29" width="917.55" height="612.83"/><path class="cls-6" d="m280.59,428.31l-45.93,1.08c-5.38-28.35-24.4-48.08-58.13-48.08-40.55,0-64.23,29.06-64.23,95.8s23.32,97.6,65.66,97.6c29.42,0,50.23-20.45,56.33-49.52l45.57,1.79c-5.74,46.29-36.96,84.32-101.19,84.32-71.4,0-114.46-53.1-114.46-134.56s42.34-132.04,113.39-132.04c57.41,0,97.96,36.24,102.98,83.6Z"/><path class="cls-6" d="m300.68,537.74l45.57-1.43c5.74,26.19,31.22,40.19,61.72,40.19,33.01,0,58.85-13.28,58.85-37.32,0-21.17-17.94-32.65-45.21-38.75l-48.8-10.05c-39.47-8.25-63.87-29.78-64.23-67.82-.36-47,41.98-77.5,98.32-77.5,61.36,0,97.6,36.24,101.9,75.71l-44.49,1.44c-4.31-30.5-27.27-41.62-56.69-41.62s-52.03,13.99-52.03,37.32c0,16.86,9.33,26.55,40.19,33.73l47.72,10.41c59.2,11.84,68.53,49.16,68.53,76.79,0,40.55-40.55,72.48-103.7,72.48-51.31,0-101.54-24.04-107.64-73.56Z"/><path class="cls-6" d="m569.79,611.3c-17.22,0-36.6-4.66-43.42-6.82l1.79-40.55c7.18,2.15,16.15,6.1,28.71,6.1,23.68,0,30.5-11.84,30.5-41.26v-180.48h43.78v192.32c0,45.93-12.2,70.69-61.36,70.69Z"/><path class="cls-6" d="m715.82,348.29v259.42h-43.78v-259.42h43.78Z"/><path class="cls-6" d="m733.4,348.29h202.37v39.47h-77.86v219.95h-43.78v-219.95h-80.73v-39.47Z"/><path class="cls-6" d="m507.23,203.05c.25,2.7,2.46,4.23,3.8,6.27.73,1.12,1.52.22,2.28-.31,1.84-1.29,3.01-4.38,5.15-4.03,1.9.31,2.31,3.41,3.37,5.28.94,1.65,1.85,1.62,3.26.61,1.7-1.22,3.21-3.78,5.24-3.16,1.79.54,2.06,3.35,2.75,5.26.79,2.19,2.07,1.56,3.5.87,1.81-.87,3.49-3.31,5.29-2.5,1.69.76,1.73,3.56,2.18,5.52.49,2.18,1.43,2.05,3.15,1.41,1.98-.74,4.03-3.08,5.83-2.03,1.73,1,.88,3.99,1.43,6.06.37,1.4.57,1.98,2.16,1.47,2.13-.69,4.66-2.72,6.33-1.61,1.66,1.1,1.15,4.2,1.18,6.47.02,1.59.79,1.44,1.95,1.29,2.24-.28,4.95-2.12,6.5-.87,1.57,1.26.46,4.29.5,6.55.04,2.37,1.68,1.73,2.91,1.67,6.08-.32,6.13-.34,5.4,5.68-.24,1.98.32,2.57,2.36,2.55,2.01-.02,4.63-1.37,5.88.04,1.25,1.41-.36,3.82-.77,5.77-.42,2,.44,2.41,2.27,2.77,1.92.37,4.61-.71,5.64,1.21.87,1.62-.78,3.65-1.31,5.5-.46,1.62-.45,2.37,1.62,2.68,6.74.98,6.79,1.12,4.15,7.25-.75,1.74-.36,2.37,1.36,2.89,6.18,1.88,6.23,1.96,3.12,7.46-.94,1.66-.55,2.23,1.03,3.03,1.8.91,4.59.68,5.28,2.68.65,1.9-1.86,3.13-2.74,4.82-1.27,2.42-.05,3.41,1.89,4,4.53,1.37,4.85,2.27,1.74,5.65q-3.24,3.53.93,6.08c3.69,2.26,3.52,2.11.53,5.5-2.25,2.55-4.71,3.36-8.05,3.33-15.65-.15-31.3-.04-46.95-.03-1.14,0-2.28-.03-3.43-.07-.6-.02-1.16-.19-1.17-.93-.01-.52.35-.8.83-.93.11-.03.22-.08.33-.08,6.18-.26,10.2-4.4,14.71-7.86,2.89-2.21,6.53-3.21,10.33-3.09,4.69.14,9.35.04,13.91-1.35,2.82-.86,5.21-2.28,7.08-4.55.47-.57,1.35-1.18.77-2.05-.54-.82-1.5-.97-2.46-.8-.11.02-.23.04-.33.1-6.31,3.99-12.23.56-18.05-1.24-7.75-2.4-14.81-1.83-21.41,3-1.97,1.44-4.22,2.25-6.61,2.63-1.02.16-2.17.1-2.68-1.02-.58-1.26.4-2.08,1.29-2.43,5.04-1.99,7.68-6.18,10.23-10.58,1.95-3.36,4.95-5.53,8.65-6.87,4.28-1.56,8.68-2.89,12.42-5.66,2.35-1.74,4.11-3.93,5.35-6.55.51-1.07.65-2.29-.47-3.11-1.07-.77-2.28-.04-2.73.67-2.99,4.71-7.68,4.21-12.23,4.25-6.08.06-12.16.23-17.31,4.12-2.93,2.21-5.23,5.08-7.75,7.72-1.18,1.24-2.38,2.45-3.91,3.28-.99.53-2.02.79-2.75-.26-.61-.88-.79-1.99.12-2.81,4.28-3.87,5.09-9.23,6.36-14.44,1.04-4.25,3.66-7.47,7.01-10.24,4.44-3.68,9.44-7.01,10.41-13.4.14-.89.24-1.81.22-2.7-.02-.74-.52-1.25-1.27-1.42-.8-.18-1.37.23-1.61.93-2.3,6.65-8.4,7.93-14.01,9.63-7.47,2.27-12.54,6.64-14.61,14.35-.76,2.85-1.94,5.62-4.29,7.66-.92.8-1.97,1.4-3.1.7-1.25-.78-.93-2.11-.33-3.05,2.67-4.22,2.28-8.56,1.2-13.17-1.04-4.49-.18-8.81,2.46-12.74,2.41-3.6,4.66-7.31,5.79-11.58.74-2.8.28-5.43-.78-8-.29-.71-.84-1.44-1.8-1.34-1.08.11-1.11,1.02-1.16,1.8-.31,5.01-3.01,8.67-7.06,11.11-9.25,5.56-12.83,13.74-12.17,24.2.11,1.69.23,3.45-.51,5.07-.45.98-1.09,1.78-2.33,1.64-1.22-.13-2.04-.99-1.84-2.06,1.22-6.39-2.58-11.04-5.26-16.15-2.23-4.27-.52-8.74.11-13.09.59-4.06,1.56-8.08.25-12.18-.64-2.01-1.69-3.74-3.32-5.07-.52-.42-1.11-.86-1.86-.46-.71.38-1.01,1.11-.73,1.74,2.78,6.2-.87,10.91-3.97,15.41-5.01,7.27-5.96,14.57-2.09,22.56.98,2.03,1.73,4.23,1.6,6.59-.07,1.25-.48,2.28-1.84,2.52-1.3.23-2-.76-2.19-1.73-1.02-5.28-4.77-8.4-8.76-11.32-5.02-3.67-5.24-9.34-6.19-14.67-.93-5.16-2.39-9.98-6.74-13.41-1.14-.9-2.4-1.85-3.65-.84-1.43,1.16.04,2.19.71,3.16,2.53,3.65,1.79,7.61,1.1,11.55-.63,3.58-1.76,7.07-1.8,10.76-.04,3.85,1.35,7.07,3.78,10,2.39,2.88,5.28,5.41,6.64,9.06.45,1.2,1.05,2.49-.24,3.43-1.45,1.05-2.9.19-3.47-1.04-2.2-4.72-6.71-5.82-10.94-7.43-4.57-1.73-8.01-4.63-10.02-9.22-1.47-3.35-3.55-6.37-5.96-9.14-2.16-2.49-4.87-4.12-8.1-4.79-.91-.19-1.9-.11-2.35.91-.36.83-.1,1.6.7,2.05,5.59,3.17,6.2,8.67,6.6,14.2.54,7.51,4,13.15,10.37,17.1,2.61,1.62,5.46,2.9,7.71,5.06,1.01.97,2.07,2.13,1.11,3.57-1.06,1.59-2.61.72-3.61-.05-4.24-3.26-9.11-4.01-14.22-3.83-6.25.22-10.25-3.68-14.39-7.49-3.68-3.38-7.96-5.74-13.09-6.02-1.53-.09-3.6-.41-3.99,1.55-.38,1.89,1.73,2.46,3.02,2.6,3.78.39,5.36,3.06,6.92,5.9,1.15,2.1,2.27,4.21,3.45,6.29,3.96,7,10.04,10.74,17.98,11.41,2.23.19,4.23.93,6.19,1.82,1.33.61,2.23,1.81,1.65,3.33-.63,1.66-1.99,1.07-3.19.64-3.71-1.35-7.27-1.11-10.98.35-6.08,2.38-12.09,2.47-18.12-.79-4.88-2.64-10.21-3.89-15.85-2.52-1.14.28-2.22.64-3.08,1.4-1.26,1.13-1.11,2.84.52,2.65,7.31-.85,11.63,3.77,16.09,8.2,6.42,6.37,14.06,7.54,22.46,5.3,2.35-.63,4.52-.38,6.7.38.86.3,1.73.89,1.49,1.99-.2.89-1.13,1.08-1.9,1.19-.78.12-1.6.07-2.39.07-16.22,0-32.44-.14-48.66.09-4.43.06-6.21-3.3-8.99-5.41-1.08-.82.03-1.49.72-2.12,1.54-1.39,4.45-1.95,4.57-3.98.12-2-2.1-3.62-3.63-5.13-1.11-1.1-.63-1.63.49-2.29,1.94-1.15,5.16-1.43,5.61-3.46.45-2-2.15-3.75-3.58-5.48-.79-.95-.67-1.62.43-2.12.31-.14.66-.2.97-.34,5.38-2.4,5.43-2.43,2.74-7.77-.85-1.69-.85-2.52,1.22-3.19,1.86-.61,4.71-.09,5.36-2.22.52-1.7-1.31-3.51-2.13-5.25-.76-1.59-.59-2.43,1.4-2.83,2.09-.42,5.01.03,6.04-1.72,1.02-1.72-.84-4.04-1.4-6.1-.47-1.73.04-2.18,1.7-2.36,6.46-.74,6.56-.81,5.22-7.19-.39-1.87.12-2.28,1.73-2.23,1.14.03,2.33-.15,3.42.11,3.32.8,3.72-.72,3.48-3.57-.46-5.38-.3-5.47,5-4.41,2.69.54,4.24.15,3.69-3.05-.08-.44,0-.91,0-1.37.06-3.98.28-4.16,4.09-3.21.77.19,1.56.37,2.31.64,1.97.7,2.57-.04,2.7-2.05.47-6.81.58-6.93,6.93-4.56,2.21.82,2.82.09,3.18-1.81.39-2.03-.11-5.04,1.81-5.68,1.43-.48,3.77,1.24,5.5,2.31,2.1,1.29,2.61.36,3.15-1.52,1.73-6,1.83-6.08,7.05-2.99,2.35,1.39,3.3.72,4.25-1.61,2.19-5.37,2.34-5.38,6.83-1.71,1.94,1.59,3.33,1.84,4.26-.87.04-.11.1-.2.16-.3,2.69-4.88,2.78-4.98,6.82-1.25,2.19,2.02,3.46,2.09,5.18-.61,2.95-4.65,3.18-4.59,6.8-.01,1.56,1.98,2.8,2.82,4.46.14,1-1.61,2.92-2.57,3.49-4.54h1.37Z"/></g></svg>