<?xml version="1.0" encoding="UTF-8"?><svg id="Layer_1" xmlns="http://www.w3.org/2000/svg" viewBox="0 0 1000 1000"><defs><style>.cls-1{fill:#3c91e6;}</style></defs><path class="cls-1" d="m521.84,840.04l-202.24-3.7c-65.48-1.29-131.12,1.28-195.32-12.07-97.66-19.95-104.57-117.77-111.81-199.82-9.97-115.35-6.11-232.8,12.71-347.19,10.63-64.19,52.45-102.49,117.12-106.65,218.32-15.13,438.1-13.33,655.94-6.28,23.01.65,46.17,4.18,68.86,8.21,111.98,19.63,114.71,130.48,121.97,223.8,7.24,94.28,4.18,189.04-9.65,282.68-11.1,77.53-32.34,142.54-121.97,148.82-112.3,8.21-222.03,14.81-334.65,12.71,0-.5-.64-.5-.96-.5Zm-118.89-196.28c84.63-48.59,167.64-96.37,251.79-144.64-84.79-48.59-167.64-96.37-251.79-144.64v289.27Z"/></svg>