<?xml version="1.0" encoding="UTF-8"?><svg id="Layer_1" xmlns="http://www.w3.org/2000/svg" viewBox="0 0 180 180"><defs><style>.cls-1{opacity:.11;}.cls-2{fill:#2561de;}.cls-3{fill:#f9f9f9;}</style></defs><rect class="cls-2" width="180" height="180"/><g class="cls-1"><ellipse class="cls-3" cx="23.65" cy="23.6" rx="11.8" ry="11.7"/><path class="cls-3" d="m38.05,17.3h36.3v56.9H17.25v-36.2c-2.1-.9-3.9-2.3-5.4-3.9v45.4h67.8V11.9h-45.6c1.8,1.6,3.1,3.4,4,5.4Z"/><path class="cls-3" d="m43.95,71h12.3c3.1-1.9,6-4.2,8.7-6.9,2.4-2.3,4.4-4.9,6.2-7.6v-11.4c-4.6,12.3-14.6,21.9-27.2,25.9Z"/><path class="cls-3" d="m20.65,62.7v5.1c6.3,0,12.5-1.3,18.3-3.8,5.7-2.4,10.8-5.9,15.2-10.2s7.9-9.5,10.3-15.2c2.4-5.7,3.7-11.8,3.8-18.1h-5.2c-.3,23.2-19.2,42-42.4,42.2Z"/><path class="cls-3" d="m20.65,48v5.2c3.5-.4,6.8-1.3,10.1-2.6,4.4-1.8,8.3-4.5,11.7-7.8,3.4-3.4,6-7.3,7.9-11.6,1.4-3.4,2.3-6.9,2.7-10.5h-5.2c-1.8,14.1-13.1,25.4-27.2,27.3Z"/><rect class="cls-3" x="155.75" y="11.9" width="12.4" height="12.4"/><rect class="cls-3" x="137.25" y="67.3" width="12.4" height="12.4"/><rect class="cls-3" x="118.85" y="67.3" width="12.4" height="12.4"/><rect class="cls-3" x="100.35" y="67.3" width="12.4" height="12.4"/><rect class="cls-3" x="100.35" y="48.8" width="12.4" height="12.4"/><rect class="cls-3" x="100.35" y="30.4" width="12.4" height="12.4"/><rect class="cls-3" x="137.25" y="11.9" width="12.4" height="12.4"/><rect class="cls-3" x="118.85" y="11.9" width="12.4" height="12.4"/><rect class="cls-3" x="100.35" y="11.9" width="12.4" height="12.4"/><rect class="cls-3" x="155.75" y="67.3" width="12.4" height="12.4"/><ellipse class="cls-3" cx="112.15" cy="112.1" rx="11.8" ry="11.7"/><path class="cls-3" d="m126.55,105.8h36.3v56.9h-57.1v-36.2c-2.1-.9-3.9-2.3-5.4-3.9v45.4h67.8v-67.6h-45.6c1.7,1.5,3.1,3.4,4,5.4Z"/><path class="cls-3" d="m132.35,159.5h12.3c3.1-1.9,6-4.2,8.7-6.9,2.4-2.3,4.4-4.9,6.2-7.6v-11.4c-4.5,12.2-14.6,21.9-27.2,25.9Z"/><path class="cls-3" d="m109.05,151.2v5.1c6.3,0,12.5-1.3,18.3-3.8,5.7-2.4,10.8-5.9,15.2-10.2,4.4-4.4,7.9-9.5,10.3-15.2,2.4-5.7,3.7-11.8,3.8-18.1h-5.2c-.3,23.2-19.2,42-42.4,42.2Z"/><path class="cls-3" d="m109.05,136.5v5.2c3.5-.4,6.8-1.3,10.1-2.6,4.4-1.8,8.3-4.5,11.7-7.8,3.4-3.4,6-7.3,7.9-11.6,1.4-3.4,2.3-6.9,2.7-10.5h-5.2c-1.8,14.1-13,25.4-27.2,27.3Z"/><rect class="cls-3" x="67.35" y="100.4" width="12.4" height="12.4"/><rect class="cls-3" x="48.85" y="155.7" width="12.4" height="12.4"/><rect class="cls-3" x="30.35" y="155.7" width="12.4" height="12.4"/><rect class="cls-3" x="11.95" y="155.7" width="12.4" height="12.4"/><rect class="cls-3" x="11.95" y="137.3" width="12.4" height="12.4"/><rect class="cls-3" x="11.95" y="118.8" width="12.4" height="12.4"/><rect class="cls-3" x="48.85" y="100.4" width="12.4" height="12.4"/><rect class="cls-3" x="30.35" y="100.4" width="12.4" height="12.4"/><rect class="cls-3" x="11.95" y="100.4" width="12.4" height="12.4"/><rect class="cls-3" x="67.35" y="155.7" width="12.4" height="12.4"/></g></svg>