<?xml version="1.0" encoding="utf-8"?>
<!-- Generator: Adobe Illustrator 27.2.0, SVG Export Plug-In . SVG Version: 6.00 Build 0)  -->
<svg version="1.1" id="Layer_1" xmlns="http://www.w3.org/2000/svg" xmlns:xlink="http://www.w3.org/1999/xlink" x="0px" y="0px"
	 viewBox="0 0 180 180" style="enable-background:new 0 0 180 180;" xml:space="preserve">
<style type="text/css">
	.st0{display:none;}
	.st1{display:inline;}
	.st2{opacity:0.2;}
	.st3{fill:#D2D2D1;}
	.st4{fill:#161616;}
</style>
<g id="Layer_1_00000033333346101147464870000006864510669864543619_" class="st0">
	<g id="Page-1_00000029005587159464984960000000682641638809673898_" class="st1">
		<g id="Group-2">
			<g id="Rectangle">
			</g>
			<g id="bg-sjsu-diamonds_00000004544156421893490300000017125735391329997230_" class="st2">
				<g id="Page-1" transform="translate(-1.000000, -1.000000)">
					<g>
						<g id="bg-sjsu-diamonds">
							<g id="Contact">
								<g id="Group-14636-Clipped">
									<g id="path-1_00000073720082766216557710000015673297739712202147_">
									</g>
									<g id="Group-14636">
										
											<g id="Fill-14634-Clipped_00000137091087801533912020000013375108893277873559_" transform="translate(0.000000, 156.000000)">
											<g>
												<g id="Group">
													<g id="Fill-14634-Clipped">
														<g id="path-3_00000106865885177844084570000017998492865020470206_">
														</g>
														<path id="Fill-14634" class="st3" d="M0.4,12.6L0.4,12.6l0.8-0.8L2,11l0.7-0.7l0.1-0.1L2.6,10l-0.7,0.2l0,0
															c-0.2,0-0.3,0-0.4-0.1l-4.8-4.8c-1.4-1.5-1.9-2.6-0.9-4.5l-0.2-0.2c0,0-1.6,1.6-1.4,3.1c0.1,0.8,0.5,1.7,1.4,2.7
															l4.8,4.8l0,0c0.1,0.1,0.2,0.3,0.2,0.4l0,0l0,0l-0.2,0.7L0.4,12.6z"/>
													</g>
												</g>
											</g>
										</g>
									</g>
								</g>
								<g id="Group-14639-Clipped">
									<g id="path-1_00000002348090696110175860000002470459258572261538_">
									</g>
									<g id="Group-14639">
										
											<g id="Fill-14637-Clipped_00000162327679804638404030000000199826518976678280_" transform="translate(0.000000, 153.000000)">
											<g>
												<g id="Group_00000183938749538222030360000016171196483736424332_">
													<g id="Fill-14637-Clipped">
														<g id="path-5_00000165925058313408136910000011477201023822428555_">
														</g>
														<path id="Fill-14637" class="st3" d="M-1.2,7.7C0.9,9.6,4.1,6,5.5,7.4c0.7,0.7,0.2,1.7-0.3,2.3
															c-0.2,0.2-0.6,0.5-1,0.7c-0.3,0.1-0.8,0.3-1.3,0.2c-0.1,0-0.1,0-0.1,0l0,0l0,0l-0.1,0.1l-0.1,0.1l1.7,1l0.1-0.1
															c0-0.1,0.2-0.3,0.2-0.3c0.5-0.3,0.7-0.5,1.1-0.8c1.4-1.2,2.1-3,0.8-4.3C4.3,4,1.3,7.9-0.3,6.3C-1,5.6-0.6,4.2-0.1,3.7
															c0.4-0.4,0.9-0.7,1.5-1c0.7-0.3,1.5-0.3,1.5-0.3L3,2.2L1.2,1.1L1.1,1.2c0,0,0.1,0.2-0.1,0.3l0,0
															C0.3,1.9-0.2,2.3-0.7,2.8C-2.5,4.6-2.3,6.7-1.2,7.7"/>
													</g>
												</g>
											</g>
										</g>
									</g>
								</g>
								<g id="Fill-14653-Clipped">
									<g id="path-1_00000130628248121630929990000017999178155182690746_">
									</g>
									<path id="Fill-14653" class="st3" d="M2,168.1l0.2,0.2l0,0l2,2l0,0l0.2,0.2l0.2-0.2l-0.2-0.7l0,0c0-0.1,0-0.3,0.1-0.4l0,0
										l3.5-3.5c1.3-1.3,2.6-1.5,3.6-0.6l0,0c0.1,0.1,0.1,0.1,0.2,0.2c1,1,0.9,2.3-0.5,3.7l-2.8,2.8c-0.4,0.4-0.6,0.6-0.7,0.7
										c-0.1,0.1-0.3,0.1-0.4,0.1l0,0l0,0l-0.7-0.2l-0.2,0.2l0.1,0.1l0,0l2,2l0,0l0.2,0.2l0.2-0.2L8.8,174l0,0
										c0-0.2,0-0.3,0.1-0.5l0,0l3.5-3.5c0.7-0.7,1.4-1.4,1.5-2.5c0-0.5-0.1-1-0.3-1.4c0,0,0-0.1-0.1-0.2l-0.1-0.1
										c-0.3-0.6-1.2-1.7-2.4-2.2l0,0l0,0l0,0c-0.4-0.2-0.9-0.3-1.3-0.3c-1.1,0.1-1.8,0.7-2.5,1.5l-3.5,3.5l0,0
										c-0.1,0.1-0.3,0.2-0.4,0.1l0,0l0,0L2.2,168L2,168.1z"/>
								</g>
								<g id="Fill-14655-Clipped">
									<g id="path-1_00000167385711433936521310000015766507230922088630_">
									</g>
									<path id="Fill-14655" class="st3" d="M14.6,180.7L14.6,180.7l0.8,0.8l0.8,0.8l0.7,0.7l0.1,0.1l0.2-0.2l-0.2-0.7l0,0
										c0-0.2,0-0.3,0.1-0.4l4.8-4.8c1.5-1.4,2.6-1.9,4.5-0.9l0.2-0.2c0,0-1.6-1.6-3.1-1.4l0,0c-0.8,0.1-1.7,0.5-2.7,1.4l-4.8,4.8
										l0,0c-0.1,0.1-0.3,0.2-0.4,0.2l0,0l0,0l-0.7-0.2L14.6,180.7z"/>
								</g>
								<g id="Fill-14657-Clipped">
									<g id="path-1_00000072254434996682242220000013833186030096836796_">
									</g>
									<path id="Fill-14657" class="st3" d="M22.4,179.1c-1.9,2.1,1.7,5.3,0.3,6.7c-0.7,0.7-1.7,0.2-2.3-0.3
										c-0.2-0.2-0.5-0.6-0.7-1c-0.1-0.3-0.3-0.8-0.2-1.3c0-0.1,0-0.1,0-0.1l0,0l0,0l-0.1-0.1l-0.1-0.1l-1,1.7l0.1,0.1
										c0.1,0,0.3,0.2,0.3,0.2c0.3,0.5,0.5,0.7,0.8,1.1c1.2,1.4,3,2.1,4.3,0.8c2.2-2.2-1.8-5.2-0.2-6.8c0.7-0.7,2.1-0.3,2.6,0.3
										c0.4,0.4,0.7,0.9,1,1.5c0.3,0.7,0.3,1.5,0.3,1.5l0.2,0.1l1.1-1.9l-0.1-0.1c0,0-0.2,0.1-0.3-0.1l0,0
										c-0.3-0.6-0.8-1.1-1.2-1.6C25.6,177.9,23.5,178,22.4,179.1"/>
								</g>
								<g id="Fill-14659-Clipped">
									<g id="path-1_00000129178986984751751870000011570120481860558739_">
									</g>
									<path id="Fill-14659" class="st3" d="M13.8,170.5c-1.9,2.1,1.7,5.3,0.3,6.7c-0.7,0.7-1.7,0.2-2.3-0.3
										c-0.2-0.2-0.5-0.6-0.7-1c-0.1-0.3-0.3-0.8-0.2-1.3c0-0.1,0-0.1,0-0.1l0,0l0,0l-0.1-0.1l-0.1-0.1l-1,1.7l0.1,0.1
										c0.1,0,0.3,0.2,0.3,0.2c0.3,0.5,0.5,0.7,0.8,1.1c1.2,1.4,3,2.1,4.3,0.8c2.2-2.2-1.7-5.2-0.2-6.8c0.7-0.7,2.1-0.3,2.6,0.3
										c0.4,0.4,0.7,0.9,1,1.5c0.3,0.7,0.3,1.5,0.3,1.5l0.2,0.1l1.1-1.9l-0.1-0.1c0,0-0.2,0.1-0.3-0.1l0,0
										c-0.3-0.6-0.8-1.1-1.2-1.6C17,169.2,14.9,169.4,13.8,170.5"/>
								</g>
								<g id="Group-14663-Clipped">
									<g id="path-1_00000149370690091923790930000009858880754695294106_">
									</g>
									<g id="Group-14663">
										
											<g id="Fill-14661-Clipped_00000036971351520669473910000004164880937035649456_" transform="translate(0.000000, 107.000000)">
											<g>
												<g id="Group_00000011727245093148847680000017784273191782513338_">
													<g id="Fill-14661-Clipped">
														<g id="path-7_00000011747047721453666290000007978532639030557855_">
														</g>
														<path id="Fill-14661" class="st3" d="M-1.6,36.4l0.2-0.2l2-2.1L3,31.8l2-2l0.2-0.2L4.8,29l-2.1,0.7H2.6
															c-0.5,0.1-0.9-0.1-1.2-0.4l-14.1-14.1c-4.2-4.4-5.5-7.5-2.6-13.3l-0.5-0.5c0,0-4.5,4.6-4.1,9.1
															c0.2,2.3,1.4,4.9,4.1,7.8l14.1,14.1l0,0c0.4,0.3,0.6,0.8,0.4,1.3v0.1l0,0L-2,35.9L-1.6,36.4z"/>
													</g>
												</g>
											</g>
										</g>
									</g>
								</g>
								<g id="Group-14666-Clipped">
									<g id="path-1_00000044177128074440521450000005269212141630925196_">
									</g>
									<g id="Group-14666">
										
											<g id="Fill-14664-Clipped_00000032633269576591958440000001864237401677685915_" transform="translate(0.000000, 100.000000)">
											<g>
												<g id="Group_00000031187360491851220990000002709460273297641396_">
													<g id="Fill-14664-Clipped">
														<g id="path-9_00000106859487246733509460000010306601341115545219_">
														</g>
														<path id="Fill-14664" class="st3" d="M-6.3,20.4c6.1,5.6,15.4-5,19.5-1c2.1,2.1,0.7,5-1,6.7c-0.6,0.6-1.8,1.5-2.8,1.9
															c-0.8,0.4-2.4,0.7-3.8,0.6c-0.2,0-0.3,0-0.3,0l0,0l0,0L5,28.8l-0.3,0.3L9.8,32l0.4-0.4c-0.1-0.4,0.6-0.9,0.6-0.9
															c1.3-0.8,2.1-1.4,3.3-2.4c4-3.6,6-8.9,2.3-12.7C10,9.4,1,20.8-3.7,16.2c-2.1-2.1-0.9-6,0.8-7.7
															c1.2-1.2,2.7-2.2,4.3-2.9c2.1-0.9,4.4-0.7,4.4-0.7l0.4-0.5L0.6,1.1L0.3,1.4c0,0,0.2,0.6-0.4,1l0,0
															c-1.7,1-3.3,2.2-4.7,3.6C-10,11.2-9.6,17.4-6.3,20.4"/>
													</g>
												</g>
											</g>
										</g>
									</g>
								</g>
								<g id="Fill-14677-Clipped">
									<g id="path-1_00000078764257166511624650000011597972690313553550_">
									</g>
									<path id="Fill-14677" class="st3" d="M3.2,142.1l0.4,0.5l0,0l5.9,5.9l0,0l0.4,0.4l0.5-0.5l-0.7-2.1v-0.1
										c-0.1-0.4,0-0.9,0.3-1.2l0.1-0.1l10.2-10.2c3.8-3.8,7.5-4.4,10.4-1.6l0,0c0.1,0.2,0.3,0.3,0.5,0.5c3,3,2.5,6.8-1.4,10.7
										l-8.1,8.1c-1.2,1.2-1.8,1.8-2.2,2.2c-0.3,0.3-0.7,0.4-1.2,0.3h-0.1l0,0l-2.1-0.7l-0.5,0.5l0.4,0.4l0,0l5.9,5.9l0,0l0.4,0.5
										l0.5-0.5l-0.7-2.1v-0.1c-0.1-0.5,0.1-1,0.4-1.3l0,0l10.1-10.1c2.1-2.1,4.1-4,4.3-7.3c0.1-1.4-0.3-2.8-0.9-4.1
										c0,0-0.1-0.2-0.3-0.6c-0.1-0.1-0.2-0.3-0.3-0.4c-1-1.7-3.4-5-7-6.5c0,0,0,0-0.1,0c0,0-0.1,0-0.1-0.1l0,0
										c-1.2-0.5-2.5-0.8-3.8-0.8c-3.2,0.2-5.2,2.2-7.3,4.3l-9.9,10l0,0c-0.4,0.3-0.8,0.5-1.3,0.4H5.8l0,0l-2.1-0.7L3.2,142.1z"/>
								</g>
								<g id="Fill-14679-Clipped">
									<g id="path-1_00000026848489647404622510000002179413168160602541_">
									</g>
									<path id="Fill-14679" class="st3" d="M39.9,178.8l0.2,0.2l2,2.1l2.3,2.3l2,2l0.2,0.2l0.5-0.5l-0.7-2.1v-0.1
										c-0.1-0.5,0.1-0.9,0.4-1.2l14.1-14.1c4.4-4.2,7.5-5.5,13.3-2.6l0.5-0.5c0,0-4.6-4.5-9.1-4.1l0,0c-2.3,0.2-4.9,1.4-7.8,4.1
										l-14.1,14.1l0,0c-0.4,0.4-0.8,0.6-1.3,0.4h-0.1l0,0l-2.1-0.7L39.9,178.8z"/>
								</g>
								<g id="Fill-14681-Clipped">
									<g id="path-1_00000081627256891394490820000009751955233435392958_">
									</g>
									<path id="Fill-14681" class="st3" d="M62.9,174.1c-5.6,6.1,5.1,15.4,1,19.5c-2.1,2.1-5,0.7-6.7-1c-0.6-0.6-1.5-1.8-1.9-2.8
										c-0.3-0.8-0.7-2.4-0.6-3.8c0-0.2,0.1-0.4,0.1-0.4l0,0l0,0l-0.2-0.2l-0.3-0.3l-2.9,5.1l0.4,0.4c0.4-0.1,0.9,0.6,0.9,0.6
										c0.8,1.3,1.4,2.1,2.4,3.3c3.6,4,8.9,6,12.7,2.3c6.3-6.3-5.1-15.3-0.5-20c2.1-2.1,6-0.9,7.7,0.8c1.2,1.2,2.2,2.7,2.9,4.3
										c0.9,2.1,0.7,4.4,0.7,4.4l0.5,0.4l3.2-5.5l-0.3-0.3c0,0-0.6,0.2-1-0.4l0,0c-1-1.7-2.2-3.3-3.6-4.7
										C72.2,170.5,66,170.8,62.9,174.1"/>
								</g>
								<g id="Fill-14683-Clipped">
									<g id="path-1_00000031203593967802920090000010504216975638768037_">
									</g>
									<path id="Fill-14683" class="st3" d="M37.7,148.9c-5.6,6.1,5.1,15.4,1,19.5c-2.1,2.1-5,0.7-6.7-1c-0.6-0.6-1.5-1.8-1.9-2.8
										c-0.4-0.8-0.7-2.4-0.6-3.8c0-0.2,0-0.4,0-0.4l0,0l0,0l-0.2-0.2l-0.3-0.3l-2.9,5.1l0.4,0.4c0.4-0.1,0.9,0.6,0.9,0.6
										c0.8,1.3,1.4,2.1,2.4,3.3c3.6,4,8.9,6,12.7,2.3c6.3-6.3-5.1-15.3-0.5-20c2.1-2.1,6-0.9,7.7,0.8c1.2,1.2,2.2,2.7,2.9,4.3
										c0.9,2.1,0.7,4.4,0.7,4.4l0.5,0.4L57,156l-0.3-0.3c0,0-0.6,0.2-1-0.4l0,0c-1-1.7-2.2-3.3-3.6-4.7
										C47,145.3,40.8,145.6,37.7,148.9"/>
								</g>
								<g id="Fill-14733-Clipped">
									<g id="path-1_00000117676481941139553010000008080588230778365866_">
									</g>
									<path id="Fill-14733" class="st3" d="M77.7,91.2l0.2-0.2l0,0l2-2l0,0l0.2-0.2l-0.2-0.2L79.2,89l0,0c-0.1,0-0.3,0-0.4-0.1
										l0,0l-3.5-3.5c-1.3-1.3-1.5-2.6-0.5-3.6l0,0c0.1-0.1,0.1-0.1,0.2-0.2c1-1,2.3-0.9,3.7,0.5l2.8,2.8c0.4,0.4,0.6,0.6,0.7,0.7
										s0.1,0.3,0.1,0.4l0,0l-0.2,0.7l0.2,0.2l0.1-0.1l2-2l0,0l0.2-0.2l-0.2-0.2l-0.7,0.2l0,0c-0.2,0-0.3,0-0.4-0.1l0,0L79.8,81
										c-0.7-0.7-1.4-1.4-2.5-1.5c-0.5,0-1,0.1-1.4,0.3c0,0-0.1,0-0.2,0.1c0,0-0.1,0.1-0.2,0.1c-0.6,0.3-1.7,1.2-2.2,2.4l0,0
										c0,0,0,0,0,0.1l0,0c-0.2,0.4-0.3,0.9-0.3,1.3c0.1,1.1,0.7,1.8,1.5,2.5l3.5,3.5l0,0c0.1,0.1,0.2,0.3,0.1,0.4l0,0l-0.2,0.7
										L77.7,91.2z"/>
								</g>
								<g id="Fill-14735-Clipped">
									<g id="path-1_00000182509786927530576460000004561514508023530931_">
									</g>
									<path id="Fill-14735" class="st3" d="M90.3,78.7L90.3,78.7l0.8-0.8l0.8-0.8l0.7-0.7l0.1-0.1l-0.2-0.2l-0.7,0.2l0,0
										c-0.2,0-0.3,0-0.4-0.1l-4.8-4.8c-1.4-1.5-1.9-2.6-0.9-4.5l-0.2-0.2c0,0-1.6,1.6-1.4,3.1c0.1,0.8,0.5,1.7,1.4,2.7l4.8,4.8
										l0,0c0.1,0.1,0.2,0.3,0.2,0.4l0,0l0,0l-0.2,0.7L90.3,78.7z"/>
								</g>
								<g id="Fill-14737-Clipped">
									<g id="path-1_00000181803622901462034900000000312625540317990846_">
									</g>
									<path id="Fill-14737" class="st3" d="M88.7,70.8c2.1,1.9,5.3-1.7,6.7-0.3c0.7,0.7,0.2,1.7-0.3,2.3c-0.2,0.2-0.6,0.5-1,0.7
										c-0.3,0.1-0.8,0.3-1.3,0.2c-0.1,0-0.1,0-0.1,0l0,0l0,0l-0.1,0.1l-0.1,0.1l1.7,1l0.1-0.1c0-0.2,0.2-0.3,0.2-0.3
										c0.5-0.3,0.7-0.5,1.1-0.8c1.4-1.2,2.1-3,0.8-4.3c-2.2-2.2-5.2,1.7-6.8,0.2c-0.7-0.7-0.3-2.1,0.3-2.6c0.4-0.4,0.9-0.7,1.5-1
										c0.7-0.3,1.5-0.3,1.5-0.3l0.1-0.2l-1.9-1.1L91,64.3c0,0,0.1,0.2-0.1,0.3l0,0c-0.6,0.3-1.1,0.8-1.6,1.2
										C87.5,67.7,87.6,69.8,88.7,70.8"/>
								</g>
								<g id="Fill-14739-Clipped">
									<g id="path-1_00000109010524605217322380000010068010752918112939_">
									</g>
									<path id="Fill-14739" class="st3" d="M80.1,79.4c2.1,1.9,5.3-1.7,6.7-0.3c0.7,0.7,0.2,1.7-0.3,2.3c-0.2,0.2-0.6,0.5-1,0.7
										c-0.3,0.1-0.8,0.3-1.3,0.2c-0.1,0-0.1,0-0.1,0l0,0l-0.1,0l-0.1,0.1l1.7,1l0.1-0.1c0-0.1,0.2-0.3,0.2-0.3
										c0.5-0.3,0.7-0.5,1.1-0.8c1.4-1.2,2.1-3,0.8-4.3c-2.2-2.2-5.2,1.7-6.8,0.2c-0.7-0.7-0.3-2.1,0.3-2.6c0.4-0.4,0.9-0.7,1.5-1
										c0.7-0.3,1.5-0.3,1.5-0.3l0.1-0.2l-1.9-1.1L82.4,73c0,0,0.1,0.2-0.1,0.3l0,0c-0.6,0.3-1.1,0.8-1.6,1.2
										C78.8,76.3,79,78.4,80.1,79.4"/>
								</g>
								<g id="Fill-14741-Clipped">
									<g id="path-1_00000099651014197058661220000001603671454693275051_">
									</g>
									<path id="Fill-14741" class="st3" d="M90.5,105.1l-0.2-0.2l0,0l-2-2l0,0l-0.2-0.2l-0.2,0.2l0.2,0.7l0,0
										c0,0.1,0,0.3-0.1,0.4l0,0l-3.5,3.5c-1.3,1.3-2.6,1.5-3.6,0.5l0,0c-0.1-0.1-0.1-0.1-0.2-0.2c-1-1-0.9-2.3,0.5-3.7l2.8-2.8
										c0.4-0.4,0.6-0.6,0.7-0.7s0.3-0.1,0.4-0.1l0,0l0.7,0.2l0.2-0.2l-0.1-0.1l0,0l-2-2l0,0l-0.2-0.2l-0.2,0.2l0.2,0.7l0,0
										c0,0.2,0,0.3-0.1,0.5l0,0l-3.5,3.5c-0.7,0.7-1.4,1.4-1.5,2.5c0,0.5,0.1,1,0.3,1.4c0,0,0,0.1,0.1,0.2c0,0.1,0.1,0.1,0.1,0.1
										c0.3,0.6,1.2,1.7,2.4,2.2l0,0l0,0l0,0c0.4,0.2,0.9,0.3,1.3,0.3c1.1-0.1,1.8-0.7,2.5-1.5l3.5-3.5l0,0
										c0.1-0.1,0.3-0.2,0.4-0.1l0,0l0,0l0.7,0.2L90.5,105.1z"/>
								</g>
								<g id="Fill-14743-Clipped">
									<g id="path-1_00000160185161053968703020000014941620875413342341_">
									</g>
									<path id="Fill-14743" class="st3" d="M78,92.5L78,92.5l-0.8-0.8L76.4,91l-0.7-0.7l-0.1-0.1l-0.2,0.2l0.2,0.7l0,0
										c0,0.2,0,0.3-0.1,0.4l-4.8,4.8c-1.5,1.4-2.6,1.9-4.5,0.9L66,97.4c0,0,1.6,1.6,3.1,1.4l0,0c0.8-0.1,1.7-0.5,2.7-1.4l4.8-4.8
										l0,0c0.1-0.1,0.3-0.2,0.4-0.2l0,0l0.7,0.2L78,92.5z"/>
								</g>
								<g id="Fill-14745-Clipped">
									<g id="path-1_00000005951791866319393360000011470670916062950075_">
									</g>
									<path id="Fill-14745" class="st3" d="M70.1,94.1c1.9-2.1-1.7-5.3-0.3-6.7c0.7-0.7,1.7-0.2,2.3,0.3c0.2,0.2,0.5,0.6,0.7,1
										c0.1,0.3,0.3,0.8,0.2,1.3c0,0.1,0,0.1,0,0.1l0,0l0,0l0.1,0.1l0.1,0.1l1-1.7L74,88.5c-0.2,0-0.3-0.2-0.3-0.2
										c-0.3-0.5-0.5-0.7-0.8-1.1c-1.2-1.4-3-2.1-4.3-0.8c-2.2,2.2,1.8,5.2,0.2,6.8C68,94,66.6,93.6,66.1,93
										c-0.4-0.4-0.7-0.9-1-1.5c-0.3-0.7-0.3-1.5-0.3-1.5l-0.2-0.1l-1.1,1.9l0.1,0.1c0,0,0.2-0.1,0.3,0.1l0,0
										c0.3,0.6,0.8,1.1,1.2,1.6C67,95.4,69.1,95.3,70.1,94.1"/>
								</g>
								<g id="Fill-14747-Clipped">
									<g id="path-1_00000123419805921974676680000012130412631465482880_">
									</g>
									<path id="Fill-14747" class="st3" d="M78.7,102.8c1.9-2.1-1.7-5.3-0.3-6.7c0.7-0.7,1.7-0.2,2.3,0.3c0.2,0.2,0.5,0.6,0.7,1
										c0.1,0.3,0.3,0.8,0.2,1.3c0,0.1,0,0.1,0,0.1l0,0l0.1,0.1l0.1,0.1l1-1.7l-0.1-0.1c-0.1,0-0.3-0.2-0.3-0.2
										c-0.3-0.5-0.5-0.7-0.8-1.1c-1.2-1.4-3-2.1-4.3-0.8c-2.2,2.2,1.7,5.2,0.2,6.8c-0.7,0.7-2.1,0.3-2.6-0.3
										c-0.4-0.4-0.7-0.9-1-1.5c-0.3-0.7-0.3-1.5-0.3-1.5l-0.2-0.1l-1.1,1.9l0.1,0.1c0,0,0.2-0.1,0.3,0.1l0,0
										c0.3,0.6,0.8,1.1,1.2,1.6C75.6,104,77.7,103.9,78.7,102.8"/>
								</g>
								<g id="Fill-14749-Clipped">
									<g id="path-1_00000176734852563380362390000002676692884728824193_">
									</g>
									<path id="Fill-14749" class="st3" d="M105.1,92.2l-0.2,0.2l0,0l-2,2l-0.2,0.2l0.2,0.2l0.7-0.2l0,0c0.1,0,0.3,0,0.4,0.1l0,0
										l3.5,3.5c1.3,1.3,1.5,2.6,0.6,3.6l0,0c-0.1,0.1-0.1,0.1-0.2,0.2c-1,1-2.3,0.9-3.7-0.5l-2.8-2.8c-0.4-0.4-0.6-0.6-0.7-0.7
										s-0.1-0.3-0.1-0.4l0,0l0,0l0.2-0.7l-0.2-0.2l-0.1,0.1l0,0l-2,2l0,0L98.3,99l0.2,0.2l0.7-0.2l0,0c0.2,0,0.3,0,0.5,0.1l0,0
										l3.5,3.5c0.7,0.7,1.4,1.4,2.5,1.5c0.5,0,1-0.1,1.4-0.3c0,0,0.1,0,0.2-0.1l0.1-0.1c0.6-0.3,1.7-1.2,2.2-2.4l0,0
										c0,0,0,0,0-0.1l0,0c0.2-0.4,0.3-0.9,0.3-1.3c-0.1-1.1-0.7-1.8-1.5-2.5l-3.5-3.5l0,0c-0.1-0.1-0.2-0.3-0.1-0.4l0,0l0,0
										l0.2-0.7L105.1,92.2z"/>
								</g>
								<g id="Fill-14751-Clipped">
									<g id="path-1_00000155854808900616576340000003133338716521620878_">
									</g>
									<path id="Fill-14751" class="st3" d="M92.5,104.7L92.5,104.7l-0.8,0.8l-0.8,0.8l-0.7,0.7l-0.1,0.1l0.2,0.2L91,107l0,0
										c0.2,0,0.3,0,0.4,0.1l4.8,4.8c1.4,1.5,1.9,2.6,0.9,4.5l0.2,0.2c0,0,1.5-1.6,1.4-3.1l0,0c-0.1-0.8-0.5-1.7-1.4-2.7l-4.8-4.8
										l0,0c-0.1-0.1-0.2-0.3-0.2-0.4l0,0l0,0l0.2-0.7V104.7z"/>
								</g>
								<g id="Fill-14753-Clipped">
									<g id="path-1_00000175317637163013849950000009719076658586105230_">
									</g>
									<path id="Fill-14753" class="st3" d="M94.1,112.6c-2.1-1.9-5.3,1.7-6.7,0.3c-0.7-0.7-0.2-1.7,0.3-2.3
										c0.2-0.2,0.6-0.5,1-0.7c0.3-0.1,0.8-0.3,1.3-0.2c0.1,0,0.1,0,0.1,0l0,0l0,0l0.1-0.1l0.1-0.1l-1.7-1l-0.1,0.1
										c0,0.1-0.2,0.3-0.2,0.3c-0.5,0.3-0.7,0.5-1.1,0.8c-1.4,1.2-2.1,3-0.8,4.3c2.2,2.2,5.2-1.7,6.8-0.2c0.7,0.7,0.3,2.1-0.3,2.6
										c-0.4,0.4-0.9,0.7-1.5,1c-0.7,0.3-1.5,0.3-1.5,0.3l-0.1,0.2l1.9,1.1l0.1-0.1c0,0-0.1-0.2,0.1-0.3l0,0
										c0.6-0.3,1.1-0.8,1.6-1.2C95.4,115.7,95.2,113.6,94.1,112.6"/>
								</g>
								<g id="Fill-14755-Clipped">
									<g id="path-1_00000007419533062545415990000014570694913055005851_">
									</g>
									<path id="Fill-14755" class="st3" d="M102.7,104c-2.1-1.9-5.3,1.7-6.7,0.3c-0.7-0.7-0.2-1.7,0.3-2.3c0.2-0.2,0.6-0.5,1-0.7
										c0.3-0.1,0.8-0.3,1.3-0.2c0.1,0,0.1,0,0.1,0l0,0l0,0l0.1-0.1l0.2,0l-1.7-1l-0.1,0.1c0,0.2-0.2,0.3-0.2,0.3
										c-0.5,0.3-0.7,0.5-1.1,0.8c-1.4,1.2-2.1,3-0.8,4.3c2.2,2.2,5.2-1.8,6.8-0.2c0.7,0.7,0.3,2.1-0.3,2.6
										c-0.4,0.4-0.9,0.7-1.5,1c-0.7,0.3-1.5,0.3-1.5,0.3l-0.1,0.2l1.9,1.1l0.1-0.1c0,0-0.1-0.2,0.1-0.3l0,0
										c0.6-0.3,1.1-0.8,1.6-1.2C104,107.1,103.8,105,102.7,104"/>
								</g>
								<g id="Fill-14757-Clipped">
									<g id="path-1_00000114031483379399539490000003390811334724966556_">
									</g>
									<path id="Fill-14757" class="st3" d="M92,78.2l0.2,0.2l0,0l2,2l0,0l0.2,0.2l0.2-0.2l-0.2-0.7l0,0c0-0.1,0-0.3,0.1-0.4l0,0
										l3.5-3.5c1.3-1.3,2.6-1.5,3.6-0.6l0,0c0.1,0.1,0.1,0.1,0.2,0.2c1,1,0.9,2.3-0.5,3.7l-2.8,2.8c-0.4,0.4-0.6,0.6-0.7,0.7
										s-0.3,0.1-0.4,0.1l0,0l0,0l-0.7-0.2l-0.2,0.2l0.1,0.1l0,0l2,2l0,0l0.2,0.2l0.2-0.2l-0.2-0.7l0,0c0-0.2,0-0.3,0.1-0.5l0,0
										l3.5-3.5c0.7-0.7,1.4-1.4,1.5-2.5c0-0.5-0.1-1-0.3-1.4c0,0,0-0.1-0.1-0.2l-0.1-0.1c-0.3-0.6-1.2-1.7-2.4-2.2l0,0l0,0l0,0
										c-0.4-0.2-0.9-0.3-1.3-0.3c-1.1,0.1-1.8,0.7-2.5,1.5l-3.5,3.5l0,0c-0.1,0.1-0.3,0.2-0.4,0.1l0,0l0,0l-0.7-0.2L92,78.2z"/>
								</g>
								<g id="Fill-14759-Clipped">
									<g id="path-1_00000158751034576465742210000006342839661157051777_">
									</g>
									<path id="Fill-14759" class="st3" d="M104.5,90.8L104.5,90.8l0.8,0.8l0.8,0.8l0.7,0.7l0.1,0.1L107,93l-0.2-0.7l0,0
										c0-0.2,0-0.3,0.1-0.4l4.8-4.8c1.5-1.4,2.6-1.9,4.5-0.9l0.2-0.2c0,0-1.6-1.6-3.1-1.4l0,0c-0.8,0.1-1.7,0.5-2.7,1.4l-4.8,4.8
										l0,0c-0.1,0.1-0.3,0.2-0.4,0.2l0,0l0,0l-0.7-0.2H104.5z"/>
								</g>
								<g id="Fill-14761-Clipped">
									<g id="path-1_00000144337060953908463800000017706890389897416890_">
									</g>
									<path id="Fill-14761" class="st3" d="M112.4,89.2c-1.9,2.1,1.7,5.3,0.3,6.7c-0.7,0.7-1.7,0.2-2.3-0.3
										c-0.2-0.2-0.5-0.6-0.7-1c-0.1-0.3-0.3-0.8-0.2-1.3c0-0.1,0-0.1,0-0.1l0,0l0,0l-0.1-0.1l-0.1-0.1l-1,1.7l0.1,0.1
										c0.1,0,0.3,0.2,0.3,0.2c0.3,0.5,0.5,0.7,0.8,1.1c1.2,1.4,3,2.1,4.3,0.8c2.2-2.2-1.8-5.2-0.2-6.8c0.7-0.7,2.1-0.3,2.6,0.3
										c0.4,0.4,0.7,0.9,1,1.5c0.3,0.7,0.3,1.5,0.3,1.5l0.2,0.1l1.1-1.9l-0.1-0.1c0,0-0.2,0.1-0.3-0.1l0,0
										c-0.3-0.6-0.8-1.1-1.2-1.6C115.5,87.9,113.4,88,112.4,89.2"/>
								</g>
								<g id="Fill-14763-Clipped">
									<g id="path-1_00000104691471299959743780000007713761420656534178_">
									</g>
									<path id="Fill-14763" class="st3" d="M103.7,80.6c-1.9,2.1,1.7,5.3,0.3,6.7c-0.7,0.7-1.7,0.2-2.3-0.3
										c-0.2-0.2-0.5-0.6-0.7-1c-0.1-0.3-0.3-0.8-0.2-1.3c0-0.1,0-0.1,0-0.1l0,0l0,0l-0.1-0.1l-0.1-0.1l-1,1.7l0.1,0.1
										c0.1,0,0.3,0.2,0.3,0.2c0.3,0.5,0.5,0.7,0.8,1.1c1.2,1.4,3,2.1,4.3,0.8c2.2-2.2-1.7-5.2-0.2-6.8c0.7-0.7,2.1-0.3,2.6,0.3
										c0.4,0.4,0.7,0.9,1,1.5c0.3,0.7,0.3,1.5,0.3,1.5l0.2,0.1l1.1-1.9l-0.1-0.1c0,0-0.2,0.1-0.3-0.1l0,0
										c-0.3-0.6-0.8-1.1-1.2-1.6C106.9,79.3,104.8,79.4,103.7,80.6"/>
								</g>
								<g id="Fill-14765-Clipped">
									<g id="path-1_00000009549982231926428270000003755768909852992954_">
									</g>
									<path id="Fill-14765" class="st3" d="M51.5,90.2l0.4-0.4l0,0l5.9-5.9l0,0l0.4-0.5l-0.5-0.5l-2.1,0.7h-0.1
										c-0.4,0.1-0.9,0-1.2-0.3l-0.1-0.1l-10-10.1c-3.8-3.8-4.4-7.5-1.6-10.4l0,0c0.2-0.2,0.3-0.3,0.5-0.5c3-3,6.8-2.5,10.7,1.4
										l8.1,8.1c1.2,1.2,1.8,1.8,2.2,2.2c0.3,0.3,0.4,0.7,0.3,1.2v0.1l-0.7,2.1l0.5,0.5l0.4-0.4l0,0l5.9-5.9l0,0l0.4-0.5l-0.5-0.5
										l-2.1,0.7h-0.1c-0.5,0.1-1-0.1-1.3-0.4l0,0L56.8,60.6c-2.1-2.1-4-4.1-7.3-4.3c-1.4-0.1-2.8,0.3-4.1,0.9
										c0,0-0.2,0.1-0.6,0.3c-0.1,0.1-0.3,0.2-0.4,0.3c-1.7,1-5,3.4-6.5,7l0,0c0,0.1-0.1,0.1-0.1,0.2l0,0
										c-0.5,1.2-0.8,2.5-0.8,3.8c0.2,3.2,2.2,5.2,4.3,7.3l10.1,10.2l0,0c0.3,0.4,0.5,0.8,0.4,1.3v0.1l-0.7,2.1L51.5,90.2z"/>
								</g>
								<g id="Fill-14767-Clipped">
									<g id="path-1_00000153699050202226649540000001464776909403724471_">
									</g>
									<path id="Fill-14767" class="st3" d="M88.3,53.5l0.2-0.2l2-2.1l2.3-2.3l2-2l0.2-0.2l-0.5-0.5l-2.1,0.7h-0.1
										c-0.5,0.1-0.9-0.1-1.2-0.4L77.2,32.3C73,28,71.7,24.8,74.6,19L74,18.5c0,0-4.5,4.6-4.1,9.1c0.2,2.3,1.4,4.9,4.1,7.8
										l14.1,14.1l0,0c0.4,0.3,0.6,0.8,0.4,1.3v0.1l0,0L87.8,53L88.3,53.5z"/>
								</g>
								<g id="Fill-14769-Clipped">
									<g id="path-1_00000136369045676036533400000013454352422515666618_">
									</g>
									<path id="Fill-14769" class="st3" d="M83.6,30.5c6.1,5.6,15.4-5,19.5-1c2.1,2.1,0.7,5-1,6.7c-0.6,0.6-1.8,1.5-2.8,1.9
										c-0.8,0.4-2.4,0.8-3.8,0.6c-0.2,0-0.3,0-0.3,0l0,0l0,0L95,38.9l-0.3,0.3l5.1,2.9l0.4-0.4c-0.1-0.4,0.6-0.9,0.6-0.9
										c1.3-0.8,2.1-1.4,3.3-2.4c4-3.6,6-8.9,2.3-12.7c-6.3-6.3-15.3,5.1-20,0.5c-2.1-2.1-0.9-6,0.8-7.7c1.2-1.2,2.7-2.2,4.3-2.9
										c2.1-0.9,4.4-0.7,4.4-0.7l0.4-0.5l-5.5-3.2l-0.3,0.3c0,0,0.2,0.6-0.4,1l0,0c-1.7,1-3.3,2.2-4.7,3.6
										C80,21.3,80.3,27.5,83.6,30.5"/>
								</g>
								<g id="Fill-14771-Clipped">
									<g id="path-1_00000101088281786855630830000010511467563789925026_">
									</g>
									<path id="Fill-14771" class="st3" d="M58.4,55.7c6.1,5.6,15.4-5,19.5-1c2.1,2.1,0.7,5-1,6.7c-0.6,0.6-1.8,1.5-2.8,1.9
										c-0.8,0.3-2.4,0.7-3.8,0.6c-0.2,0-0.3,0-0.3,0l0,0l-0.2,0.2l-0.3,0.3l5.1,2.9l0.4-0.4c-0.1-0.4,0.6-0.9,0.6-0.9
										c1.3-0.8,2.1-1.4,3.3-2.4c4-3.6,6-8.9,2.3-12.7c-6.3-6.3-15.3,5.1-20,0.5c-2.1-2.1-0.9-6,0.8-7.7c1.2-1.2,2.7-2.2,4.3-2.9
										c2.1-0.9,4.4-0.7,4.4-0.7l0.4-0.5l-5.5-3.2l-0.3,0.3c0,0,0.2,0.6-0.4,1l0,0c-1.7,1-3.3,2.2-4.7,3.6
										C54.8,46.5,55.1,52.6,58.4,55.7"/>
								</g>
								<g id="Fill-14773-Clipped">
									<g id="path-1_00000068675735255737133560000004719700832256797621_">
									</g>
									<path id="Fill-14773" class="st3" d="M89,130.8l-0.4-0.5l0,0l-5.9-5.9l0,0l-0.5-0.4l-0.5,0.5l0.7,2.1v0.1
										c0.1,0.4,0,0.8-0.3,1.2L82,128l-10.2,10.2c-3.8,3.8-7.5,4.4-10.4,1.6l0,0c-0.2-0.2-0.3-0.3-0.5-0.5c-3-3-2.5-6.8,1.4-10.7
										l8.1-8.1c1.2-1.2,1.8-1.8,2.2-2.2c0.3-0.3,0.7-0.4,1.2-0.3h0.1l2.1,0.7l0.5-0.5l-0.4-0.4l0,0l-5.9-5.9l0,0l-0.5-0.4
										l-0.5,0.5l0.7,2.1v0.1c0.1,0.5-0.1,1-0.4,1.3l0,0l-10.1,10.1c-2.1,2.1-4.1,4-4.3,7.3c-0.1,1.4,0.3,2.8,0.9,4.1
										c0,0,0.1,0.2,0.3,0.6c0.1,0.1,0.2,0.3,0.3,0.4c1,1.7,3.4,5,7,6.5c0,0,0,0,0.1,0s0.1,0,0.1,0.1l0,0c1.2,0.5,2.5,0.8,3.8,0.8
										c3.2-0.2,5.2-2.2,7.3-4.3L85.1,131l0,0c0.3-0.3,0.8-0.5,1.3-0.4h0.1l0,0l2.1,0.7L89,130.8z"/>
								</g>
								<g id="Fill-14775-Clipped">
									<g id="path-1_00000135672886462112806430000012811919300703257263_">
									</g>
									<path id="Fill-14775" class="st3" d="M52.3,94.1l-0.2-0.2L50,91.8l-2.3-2.3l-2-2l-0.2-0.2L45,87.8l0.7,2.1V90
										c0.1,0.5-0.1,0.9-0.4,1.2l-14.1,14.1c-4.4,4.2-7.5,5.5-13.3,2.6l-0.5,0.5c0,0,4.6,4.5,9.1,4.1l0,0c2.3-0.2,4.9-1.4,7.8-4.1
										l14.1-14.1l0,0c0.4-0.4,0.8-0.6,1.3-0.4h0.1l2.1,0.7L52.3,94.1z"/>
								</g>
								<g id="Fill-14777-Clipped">
									<g id="path-1_00000132089369524585513810000015478792337305861033_">
									</g>
									<path id="Fill-14777" class="st3" d="M29.3,98.7c5.6-6.1-5.1-15.4-1-19.5c2.1-2.1,5-0.7,6.7,1c0.6,0.6,1.5,1.8,1.9,2.8
										c0.4,0.8,0.7,2.4,0.6,3.8c0,0.2-0.1,0.3-0.1,0.3l0,0l0,0l0.2,0.2l0.3,0.3l2.9-5.1l-0.4-0.4c-0.4,0.1-0.9-0.6-0.9-0.6
										c-0.8-1.3-1.4-2.1-2.4-3.3c-3.6-4-8.9-6-12.7-2.3c-6.3,6.3,5.1,15.3,0.5,20c-2.1,2.1-6,0.9-7.7-0.8
										c-1.2-1.2-2.2-2.7-2.9-4.3c-0.9-2.1-0.7-4.4-0.7-4.4L13.1,86L10,91.8l0.3,0.3c0,0,0.6-0.2,1,0.4l0,0c1,1.7,2.2,3.3,3.6,4.7
										C20.1,102.4,26.2,102.1,29.3,98.7"/>
								</g>
								<g id="Fill-14779-Clipped">
									<g id="path-1_00000062900803419546511660000012424596745567316383_">
									</g>
									<path id="Fill-14779" class="st3" d="M54.5,123.9c5.6-6.1-5.1-15.4-1-19.5c2.1-2.1,5-0.7,6.7,1c0.6,0.6,1.5,1.8,1.9,2.8
										c0.3,0.8,0.7,2.4,0.6,3.8c0,0.2-0.1,0.4-0.1,0.4l0,0l0.2,0.2l0.3,0.3l2.9-5.1l-0.4-0.4c-0.4,0.1-0.9-0.6-0.9-0.6
										c-0.8-1.3-1.4-2.1-2.4-3.3c-3.6-4-8.9-6-12.7-2.3c-6.3,6.3,5.1,15.3,0.5,20c-2.1,2.1-6,0.9-7.7-0.8
										c-1.2-1.2-2.2-2.7-2.9-4.3c-0.9-2.1-0.7-4.4-0.7-4.4l-0.5-0.4l-3.2,5.5l0.3,0.3c0,0,0.6-0.2,1,0.4l0,0
										c1,1.7,2.2,3.3,3.6,4.7C45.3,127.6,51.4,127.3,54.5,123.9"/>
								</g>
								<g id="Fill-14781-Clipped">
									<g id="path-1_00000125572005183038977980000009993430856201014172_">
									</g>
									<path id="Fill-14781" class="st3" d="M131.5,93l-0.4,0.5l0,0l-5.9,5.9l-0.4,0.5l0.5,0.5l2.1-0.7h0.1c0.4-0.1,0.9,0,1.2,0.3
										l0.1,0.1l10.2,10.2c3.8,3.8,4.4,7.5,1.6,10.4l0,0c-0.2,0.1-0.3,0.3-0.5,0.4c-3,3-6.8,2.5-10.7-1.4l-8.1-8.1
										c-1.2-1.2-1.8-1.8-2.2-2.2c-0.3-0.3-0.4-0.7-0.3-1.2v-0.1l0,0l0.7-2.1l-0.5-0.5l-0.4,0.4l0,0l-5.9,5.9l0,0l-0.5,0.5
										l0.5,0.5l2.1-0.7h0.1c0.5-0.1,1,0.1,1.3,0.4l0,0l10.1,10.1c2.1,2.1,4,4.1,7.3,4.3c1.4,0.1,2.8-0.3,4.1-0.9
										c0,0,0.2-0.1,0.6-0.3c0.1-0.1,0.3-0.2,0.4-0.3c1.7-1,5-3.4,6.5-7l0,0c0-0.1,0.1-0.1,0.1-0.2l0,0c0.5-1.2,0.8-2.5,0.8-3.8
										c-0.2-3.3-2.2-5.2-4.3-7.3l-10.1-10.2l0,0c-0.3-0.4-0.5-0.8-0.4-1.3v-0.1l0,0l0.7-2.1L131.5,93z"/>
								</g>
								<g id="Fill-14783-Clipped">
									<g id="path-1_00000093862147660714020940000002523330368069549239_">
									</g>
									<path id="Fill-14783" class="st3" d="M94.7,129.7l-0.2,0.2l-2.1,2.1l-2.3,2.3l-2,2l-0.2,0.3l0.5,0.5l2.1-0.7h0.1
										c0.4-0.1,0.9,0.1,1.2,0.4l14.1,14.1c4.2,4.4,5.5,7.5,2.6,13.3l0.5,0.5c0,0,4.5-4.6,4.1-9.1l0,0c-0.2-2.3-1.4-4.9-4.1-7.8
										l-14.1-14.1l0,0c-0.4-0.4-0.6-0.8-0.4-1.3v-0.1l0,0l0.7-2.1L94.7,129.7z"/>
								</g>
								<g id="Fill-14785-Clipped">
									<g id="path-1_00000140723282295325170610000013293318099031325586_">
									</g>
									<path id="Fill-14785" class="st3" d="M99.4,152.7c-6.1-5.6-15.4,5.1-19.5,1c-2.1-2.1-0.7-5,1-6.7c0.6-0.6,1.8-1.5,2.8-1.9
										c0.8-0.3,2.4-0.7,3.8-0.6c0.2,0,0.3,0.1,0.3,0.1l0,0l0,0l0.2-0.2l0.3-0.3l-5.1-2.9l-0.4,0.4c0.1,0.4-0.6,0.9-0.6,0.9
										c-1.3,0.8-2.1,1.4-3.3,2.4c-4,3.6-6,8.9-2.3,12.7c6.3,6.3,15.3-5.1,20-0.5c2.1,2.1,0.9,6-0.8,7.7c-1.2,1.2-2.7,2.2-4.3,2.9
										c-2.1,0.9-4.4,0.7-4.4,0.7l-0.4,0.5l5.5,3.2l0.3-0.3c0,0-0.2-0.6,0.4-1l0,0c1.7-1,3.3-2.2,4.7-3.6
										C103.1,161.9,102.7,155.7,99.4,152.7"/>
								</g>
								<g id="Fill-14787-Clipped">
									<g id="path-1_00000136381362363171022160000002727710309610364094_">
									</g>
									<path id="Fill-14787" class="st3" d="M124.6,127.5c-6.1-5.6-15.4,5.1-19.5,1c-2.1-2.1-0.7-5,1-6.7c0.6-0.6,1.8-1.5,2.8-1.9
										c0.8-0.4,2.4-0.7,3.8-0.6c0.2,0,0.4,0.1,0.4,0.1l0,0l0,0l0.2-0.2l0.3-0.3l-5.1-2.9l-0.4,0.4c0.1,0.4-0.6,0.9-0.6,0.9
										c-1.3,0.8-2.1,1.4-3.3,2.4c-4,3.6-6,8.9-2.3,12.7c6.3,6.3,15.3-5.1,20-0.5c2.1,2.1,0.9,6-0.8,7.7c-1.2,1.2-2.7,2.2-4.3,2.9
										c-2.1,0.9-4.4,0.7-4.4,0.7l-0.4,0.5l5.5,3.2l0.3-0.3c0,0-0.2-0.6,0.4-1l0,0c1.7-1,3.3-2.2,4.7-3.6
										C128.3,136.7,127.9,130.5,124.6,127.5"/>
								</g>
								<g id="Fill-14789-Clipped">
									<g id="path-1_00000067923565107500578920000008241318761413804172_">
									</g>
									<path id="Fill-14789" class="st3" d="M93.1,52.1l0.4,0.5l0,0l5.9,5.9l0,0l0.4,0.4l0.5-0.5l-0.7-2.1v-0.1
										c-0.1-0.4,0-0.9,0.3-1.2l0.1-0.1l10.2-10.2c3.8-3.8,7.5-4.4,10.4-1.6l0,0c0.1,0.2,0.3,0.3,0.5,0.5c3,3,2.5,6.8-1.4,10.7
										l-8.1,8.1c-1.2,1.2-1.8,1.8-2.2,2.2c-0.3,0.3-0.7,0.4-1.2,0.3h-0.1l0,0l-2.1-0.7l-0.5,0.5l0.4,0.4l0,0L112,71l0,0l0.5,0.5
										L113,71l-0.7-2.1v-0.1c-0.1-0.5,0.1-1,0.4-1.3l0,0l10.1-10.1c2.1-2.1,4.1-4,4.3-7.3c0.1-1.4-0.3-2.8-0.9-4.1
										c0,0-0.1-0.2-0.3-0.6c-0.1-0.1-0.2-0.3-0.3-0.4c-1-1.7-3.4-5-7-6.5c0,0,0,0-0.1,0c0,0-0.1,0-0.1-0.1l0,0
										c-1.2-0.5-2.5-0.8-3.8-0.8c-3.2,0.2-5.2,2.2-7.3,4.3L97.1,52l0,0c-0.4,0.3-0.8,0.5-1.3,0.4h-0.1l0,0l-2.1-0.7L93.1,52.1z"
										/>
								</g>
								<g id="Fill-14791-Clipped">
									<g id="path-1_00000005248884606132719430000017871604863060112804_">
									</g>
									<path id="Fill-14791" class="st3" d="M129.8,88.9l0.2,0.2l2,2.1l2.3,2.3l2,2l0.2,0.2l0.5-0.5l-0.7-2.1V93
										c-0.1-0.5,0.1-0.9,0.4-1.2l14.3-14c4.4-4.2,7.5-5.5,13.3-2.6l0.5-0.5c0,0-4.6-4.5-9.1-4.1l0,0c-2.3,0.2-4.9,1.4-7.8,4.1
										l-14.1,14.1l0,0c-0.4,0.4-0.8,0.6-1.3,0.4h-0.1l0,0l-2.1-0.7L129.8,88.9z"/>
								</g>
								<g id="Fill-14793-Clipped">
									<g id="path-1_00000076583574205857721760000016086932747204119433_">
									</g>
									<path id="Fill-14793" class="st3" d="M152.8,84.2c-5.6,6.1,5.1,15.4,1,19.5c-2.1,2.1-5,0.7-6.7-1c-0.6-0.6-1.5-1.8-1.9-2.8
										c-0.3-0.8-0.7-2.4-0.6-3.8c0-0.2,0.1-0.4,0.1-0.4l0,0l0,0l-0.2-0.2l-0.3-0.3l-2.9,5.1l0.4,0.4c0.4-0.1,0.9,0.6,0.9,0.6
										c0.8,1.3,1.4,2.1,2.4,3.3c3.6,4,8.9,6,12.7,2.3c6.3-6.3-5.1-15.3-0.5-20c2.1-2.1,6-0.9,7.7,0.8c1.2,1.2,2.2,2.7,2.9,4.3
										c0.9,2.1,0.7,4.4,0.7,4.4l0.5,0.4l3.2-5.5l-0.3-0.3c0,0-0.6,0.2-1-0.4l0,0c-1-1.7-2.2-3.3-3.6-4.7
										C162.1,80.6,155.9,80.9,152.8,84.2"/>
								</g>
								<g id="Fill-14795-Clipped">
									<g id="path-1_00000091719300467102731560000004921356867980652455_">
									</g>
									<path id="Fill-14795" class="st3" d="M127.6,59c-5.6,6.1,5.1,15.4,1,19.5c-2.1,2.1-5,0.7-6.7-1c-0.6-0.6-1.5-1.8-1.9-2.8
										c-0.4-0.8-0.7-2.4-0.6-3.8c0-0.2,0-0.4,0-0.4l0,0l0,0l-0.2-0.2l-0.3-0.3l-2.9,5.1l0.4,0.4c0.4-0.1,0.9,0.6,0.9,0.6
										c0.8,1.3,1.4,2.1,2.4,3.3c3.6,4,8.9,6,12.7,2.3c6.3-6.3-5.1-15.3-0.5-20c2.1-2.1,6-0.9,7.7,0.8c1.2,1.2,2.2,2.7,2.9,4.3
										c0.9,2.1,0.7,4.4,0.7,4.4l0.5,0.4l3.2-5.5l-0.3-0.3c0,0-0.6,0.2-1-0.4l0,0c-1-1.7-2.2-3.3-3.6-4.7
										C136.9,55.4,130.7,55.7,127.6,59"/>
								</g>
								<g id="Fill-14797-Clipped">
									<g id="path-1_00000074426218577351416290000001643706162996632243_">
									</g>
									<path id="Fill-14797" class="st3" d="M14.9,2l-0.2,0.2l0,0l-2,2l-0.2,0.2l0.2,0.2l0.7-0.2l0,0c0.1,0,0.3,0,0.4,0.1l0,0
										L17.3,8c1.3,1.3,1.5,2.6,0.6,3.6l0,0c-0.1,0-0.1,0.1-0.2,0.2c-1,1-2.3,0.9-3.7-0.5l-2.8-2.8c-0.4-0.4-0.6-0.6-0.7-0.7
										c-0.1-0.1-0.1-0.3-0.1-0.4l0,0l0,0l0.2-0.7l-0.2-0.2l-0.1,0.1l0,0l-2,2l0,0l0,0l0.2,0.2l0.7-0.2l0,0c0.2-0.1,0.3,0,0.4,0.1
										l0,0l3.5,3.5c0.7,0.7,1.4,1.4,2.5,1.5c0.5,0,1-0.1,1.4-0.3c0,0,0.1,0,0.2-0.1l0.1-0.1c0.6-0.3,1.7-1.2,2.2-2.4l0,0
										c0,0,0,0,0-0.1l0,0c0.2-0.4,0.3-0.9,0.3-1.3c-0.1-1.1-0.7-1.8-1.5-2.5L15,3.4l0,0c-0.1-0.1-0.2-0.3-0.1-0.4l0,0l0,0
										l0.2-0.7L14.9,2z"/>
								</g>
								<g id="Group-14801-Clipped">
									<g id="path-1_00000149358488496341020350000004701974147995962003_">
									</g>
									<g id="Group-14801">
										
											<g id="Fill-14799-Clipped_00000040557625657542985190000010500116709097267605_" transform="translate(0.000000, 14.000000)">
											<g>
												<g id="Group_00000141449439719409410590000001381306375750715554_">
													<g id="Fill-14799-Clipped">
														<g id="path-11_00000158717245657291195270000006354338180771421368_">
														</g>
														<path id="Fill-14799" class="st3" d="M2.3,0.6L2.3,0.6L1.6,1.3L0.8,2.1L0.1,2.8L0,2.9l0.2,0.2l0.7-0.2l0,0
															c0.2,0,0.3,0,0.4,0.1l4.8,4.8C7.6,9.3,8,10.3,7,12.3l0.2,0.2c0,0,1.5-1.6,1.4-3.1l0,0c0-0.8-0.5-1.7-1.4-2.7L2.4,1.9
															l0,0C2.3,1.8,2.2,1.6,2.3,1.5l0,0l0,0l0.2-0.7L2.3,0.6z"/>
													</g>
												</g>
											</g>
										</g>
									</g>
								</g>
								<g id="Group-14804-Clipped">
									<g id="path-1_00000093892956344848187720000011094262054937128606_">
									</g>
									<g id="Group-14804">
										
											<g id="Fill-14802-Clipped_00000077291581696422192430000004169483917184293807_" transform="translate(0.000000, 17.000000)">
											<g>
												<g id="Group_00000073699306216339650580000017061720717090140550_">
													<g id="Fill-14802-Clipped">
														<g id="path-13_00000007400609418614012860000001217768566325183922_">
														</g>
														<path id="Fill-14802" class="st3" d="M3.9,5.4c-2-1.9-5.2,1.7-6.6,0.4C-3.4,5-3,4-2.4,3.5c0.2-0.2,0.6-0.5,1-0.7
															c0.3-0.1,0.8-0.3,1.3-0.2c0.1,0,0.1,0,0.1,0l0,0l0,0l0.1-0.1l0.1-0.1l-1.7-1l-0.1,0.1c0,0.1-0.2,0.3-0.2,0.3
															C-2.3,2.1-2.6,2.3-3,2.7c-1.4,1.2-2.1,3-0.8,4.3C-1.6,9.2,1.4,5.2,3,6.8c0.7,0.7,0.3,2.1-0.3,2.6
															c-0.4,0.4-0.9,0.7-1.5,1c-0.7,0.3-1.5,0.3-1.5,0.3l-0.1,0.2l2,1.1l0.1-0.1c0,0-0.1-0.2,0.1-0.3l0,0
															c0.6-0.3,1.1-0.8,1.6-1.2C5.2,8.6,5.1,6.5,3.9,5.4"/>
													</g>
												</g>
											</g>
										</g>
									</g>
								</g>
								<g id="Fill-14805-Clipped">
									<g id="path-1_00000116210659777066875690000013241559232114421438_">
									</g>
									<path id="Fill-14805" class="st3" d="M12.6,13.8c-2.1-1.9-5.3,1.7-6.7,0.3c-0.7-0.7-0.2-1.7,0.3-2.3c0.2-0.2,0.6-0.5,1-0.7
										c0.3,0,0.8-0.2,1.3-0.1c0.1,0,0.1,0,0.1,0l0,0l0,0l0.1-0.1l0.1-0.1l-1.7-1L6.9,9.9c0,0.1-0.2,0.3-0.2,0.3
										C6.2,10.5,6,10.7,5.6,11c-1.4,1.2-2.1,3-0.8,4.3c2.2,2.2,5.2-1.7,6.8-0.2c0.7,0.7,0.3,2.1-0.3,2.6c-0.4,0.4-0.9,0.7-1.5,1
										C9.1,19,8.3,19,8.3,19l-0.1,0.2l1.9,1.1l0.1-0.1c0,0-0.1-0.2,0.1-0.3l0,0c0.6-0.3,1.1-0.8,1.6-1.2
										C13.8,17,13.7,14.8,12.6,13.8"/>
								</g>
								<g id="Group-14809-Clipped">
									<g id="path-1_00000018237794287265618700000003370692240305785254_">
									</g>
									<g id="Group-14809">
										
											<g id="Fill-14807-Clipped_00000165234462728449504460000011635834824457736615_" transform="translate(14.000000, 0.000000)">
											<g>
												<g id="Group_00000005240050050269458570000002496226900658256300_">
													<g id="Fill-14807-Clipped">
														<g id="path-15_00000183943944010909653790000006616359840508565423_">
														</g>
														<path id="Fill-14807" class="st3" d="M0.3,0.6L0.3,0.6l0.8,0.8l0.8,0.8l0.7,0.7L2.7,3l0.2-0.2L2.6,2.1l0,0
															c0-0.2,0-0.3,0.1-0.4l4.8-4.8C9-4.5,10.1-5,12-4l0.2-0.2c0,0-1.6-1.6-3.1-1.4l0,0c-0.7,0-1.6,0.4-2.6,1.3L1.7,0.6l0,0
															C1.6,0.7,1.4,0.8,1.2,0.7l0,0l0,0L0.5,0.5L0.3,0.6z"/>
													</g>
												</g>
											</g>
										</g>
									</g>
								</g>
								<g id="Group-14812-Clipped">
									<g id="path-1_00000039124087929053763750000004916245083531276417_">
									</g>
									<g id="Group-14812">
										
											<g id="Fill-14810-Clipped_00000021094419158307192370000006781453705832209537_" transform="translate(18.000000, 0.000000)">
											<g>
												<g id="Group_00000181069710161234625880000009671018079533320343_">
													<g id="Fill-14810-Clipped">
														<g id="path-17_00000164507628732106364170000016344367821551824023_">
														</g>
														<path id="Fill-14810" class="st3" d="M4.2-1C2.3,1.1,5.9,4.3,4.5,5.7C3.8,6.4,2.8,5.9,2.3,5.4C2,5.1,1.7,4.7,1.6,4.4
															C1.5,4.1,1.3,3.6,1.4,3.1c0-0.1,0-0.1,0-0.1l0,0l0,0L1.3,2.9L1.2,2.8l-1,1.7l0.1,0.1c0.1,0,0.3,0.2,0.3,0.2
															C0.9,5.3,1.1,5.6,1.5,6c1.2,1.4,3,2.1,4.3,0.8C8,4.6,4.1,1.5,5.7-0.1c0.7-0.7,2.1-0.3,2.6,0.3c0.4,0.4,0.7,0.9,1,1.5
															c0.3,0.7,0.3,1.5,0.3,1.5l0.2,0.1l1.1-1.9l-0.1-0.1c0,0-0.2,0.1-0.3-0.1l0,0C10,0.6,9.6,0,9.1-0.4
															C7.4-2.2,5.2-2.1,4.2-1"/>
													</g>
												</g>
											</g>
										</g>
									</g>
								</g>
								<g id="Fill-14813-Clipped">
									<g id="path-1_00000166642337839143249100000010312319266662524062_">
									</g>
									<path id="Fill-14813" class="st3" d="M41.3,2.8l-0.5,0.4l0,0L35,9.1l-0.4,0.5l0.5,0.5l2.1-0.7h0.1c0.4-0.1,0.9,0,1.2,0.3
										c0,0,0,0.1,0.1,0.1l10.2,10.1c3.8,3.8,4.4,7.5,1.6,10.4l0,0c-0.2,0.1-0.3,0.3-0.5,0.4c-3,3-6.8,2.5-10.7-1.4l-8.2-8
										c-1.2-1.2-1.8-1.8-2.2-2.2c-0.3-0.3-0.4-0.8-0.3-1.2v-0.1l0,0l0.7-2.1l-0.5-0.5l-0.4,0.4l0,0l-5.9,5.9l0,0L22,22.1l0.5,0.5
										l2.1-0.7h0.1c0.5-0.1,1,0.1,1.3,0.4l0,0l10.1,10.1c2.1,2.1,4,4.1,7.3,4.3c1.4,0.1,2.8-0.3,4.1-0.9c0,0,0.2-0.1,0.6-0.3
										c0.1-0.1,0.3-0.2,0.4-0.3c1.7-1,5-3.4,6.5-7l0,0c0-0.1,0-0.1,0.1-0.2l0,0c0.5-1.2,0.8-2.5,0.8-3.8
										c-0.2-3.3-2.2-5.2-4.3-7.3L41.5,6.7l0,0c-0.3-0.4-0.5-0.8-0.4-1.3V5.3l0,0l0.7-2.1L41.3,2.8z"/>
								</g>
								<g id="Group-14817-Clipped">
									<g id="path-1_00000090296988867664914350000014961909520316509071_">
									</g>
									<g id="Group-14817">
										
											<g id="Fill-14815-Clipped_00000027576391923310252740000007848836926313989039_" transform="translate(0.000000, 39.000000)">
											<g>
												<g id="Group_00000071551997816370917720000000597716870129945259_">
													<g id="Fill-14815-Clipped">
														<g id="path-19_00000021106832319401837210000014523024928922124444_">
														</g>
														<path id="Fill-14815" class="st3" d="M4.6,0.5L4.3,0.7l-2,2.1L0,5.1l-2,2l-0.2,0.3l0.5,0.5l2.1-0.7h0.1
															c0.2-0.2,0.7,0,1,0.4l14.1,14.1c4.2,4.4,5.5,7.5,2.6,13.3l0.5,0.5c0,0,4.5-4.6,4.1-9.1l0,0c-0.2-2.3-1.4-4.9-4.1-7.8
															L4.8,4.5l0,0C4.4,4.1,4.2,3.6,4.3,3.1V3l0,0L5,1L4.6,0.5z"/>
													</g>
												</g>
											</g>
										</g>
									</g>
								</g>
								<g id="Group-14820-Clipped">
									<g id="path-1_00000114062212872525881340000010168501687893532852_">
									</g>
									<g id="Group-14820">
										
											<g id="Fill-14818-Clipped_00000077306513355821918960000011596957758031641735_" transform="translate(0.000000, 50.000000)">
											<g>
												<g id="Group_00000047747379390246040910000011159716696258086804_">
													<g id="Fill-14818-Clipped">
														<g id="path-21_00000131332996332562656450000004905763343986795687_">
														</g>
														<path id="Fill-14818" class="st3" d="M9.3,12.5c-6.1-5.6-15.4,5.1-19.5,1c-2.1-2.1-0.7-5,1-6.7
															c0.6-0.6,1.8-1.5,2.8-1.9C-5.7,4.5-4,4.1-2.6,4.2c0.2,0,0.3,0.1,0.3,0.1l0,0l0,0l0.2-0.2l0.3-0.3l-5.1-2.9l-0.4,0.4
															c0.1,0.4-0.6,0.9-0.6,0.9c-1.2,0.7-2,1.3-3.1,2.3c-4,3.6-6,8.9-2.3,12.7c6.3,6.3,15.3-5.1,20-0.5
															c2.1,2.1,0.9,6-0.8,7.7c-1.2,1.2-2.7,2.2-4.3,2.9C-0.5,28.2-2.8,28-2.8,28l-0.4,0.5l5.5,3.2l0.3-0.3
															c0,0-0.2-0.6,0.4-1l0,0c1.7-1,3.3-2.2,4.7-3.6C12.9,21.7,12.6,15.6,9.3,12.5"/>
													</g>
												</g>
											</g>
										</g>
									</g>
								</g>
								<g id="Fill-14821-Clipped">
									<g id="path-1_00000042733390667537202700000003054871872791474821_">
									</g>
									<path id="Fill-14821" class="st3" d="M34.5,37.3c-6.1-5.6-15.4,5.1-19.5,1c-2.1-2.1-0.7-5,1-6.7c0.6-0.6,1.8-1.5,2.8-1.9
										c0.8-0.4,2.4-0.7,3.8-0.6c0.2,0,0.4,0.1,0.4,0.1l0,0l0,0l0.2-0.2l0.3-0.3l-5.1-2.9L18,26c0.1,0.4-0.6,0.9-0.6,0.9
										c-1.3,0.8-2.1,1.4-3.3,2.4c-4,3.6-6,8.9-2.3,12.7c6.3,6.3,15.3-5.1,20-0.5c2.1,2.1,0.9,6-0.8,7.7c-1.2,1.2-2.7,2.2-4.3,2.9
										c-2.1,0.9-4.4,0.7-4.4,0.7L22,53.4l5.5,3.2l0.3-0.3c0,0-0.2-0.6,0.4-1l0,0c1.7-1,3.3-2.2,4.7-3.6
										C38.1,46.5,37.8,40.4,34.5,37.3"/>
								</g>
								<g id="Group-14825-Clipped">
									<g id="path-1_00000114759372003974463430000007411811767578045337_">
									</g>
									<g id="Group-14825">
										
											<g id="Fill-14823-Clipped_00000012435751472917621120000008951917306631123371_" transform="translate(39.000000, 0.000000)">
											<g>
												<g id="Group_00000064349243001542314890000014641151707872657592_">
													<g id="Fill-14823-Clipped">
														<g id="path-23_00000116229778633849914160000013371023436554710179_">
														</g>
														<path id="Fill-14823" class="st3" d="M0.7-1.2L0.9-1L3,1l2.3,2.3l2,2l0.2,0.2L8,5L7.4,3.1V3c-0.2-0.4,0-0.9,0.3-1.2
															l14.1-14.1c4.4-4.2,7.5-5.5,13.3-2.6l0.5-0.5c0,0-4.6-4.5-9.1-4.1l0,0c-2.3,0.2-4.9,1.4-7.8,4.1L4.6-1.4l0,0
															C4.3-1.1,3.8-0.9,3.3-1H3.2l0,0l-2-0.7L0.7-1.2z"/>
													</g>
												</g>
											</g>
										</g>
									</g>
								</g>
								<g id="Group-14828-Clipped">
									<g id="path-1_00000141421170567354936210000009248464277189589141_">
									</g>
									<g id="Group-14828">
										
											<g id="Fill-14826-Clipped_00000157275026034765431490000004277698510218212001_" transform="translate(51.000000, 0.000000)">
											<g>
												<g id="Group_00000006683245313889751070000016511827933355253126_">
													<g id="Fill-14826-Clipped">
														<g id="path-25_00000047749943182505141170000009906817688520567194_">
														</g>
														<path id="Fill-14826" class="st3" d="M11.7-5.9c-5.6,6.1,5.1,15.4,1,19.5c-2.1,2.1-5,0.7-6.7-1
															c-0.7-0.7-1.5-1.8-2-2.8C3.7,9,3.3,7.4,3.4,6c0-0.2,0.1-0.4,0.1-0.4l0,0l0,0L3.3,5.4L3,5.1l-3,5l0.4,0.4
															c0.4-0.1,0.9,0.6,0.9,0.6c0.8,1.3,1.4,2.1,2.4,3.3c3.6,4,8.9,6,12.7,2.3c6.3-6.3-5.1-15.3-0.5-20
															c2.1-2.1,6-0.9,7.7,0.8c1.2,1.2,2.2,2.7,2.9,4.3c0.9,2.1,0.7,4.4,0.7,4.4l0.5,0.4L31,1l-0.3-0.3c0,0-0.6,0.2-1-0.4
															l0,0c-1-1.7-2.2-3.3-3.6-4.7C20.9-9.6,14.7-9.2,11.7-5.9"/>
													</g>
												</g>
											</g>
										</g>
									</g>
								</g>
								<g id="Group-14895-Clipped">
									<g id="path-1_00000179623110081260372240000003726192854875790509_">
									</g>
									<g id="Group-14895">
										
											<g id="Fill-14893-Clipped_00000071553556169383202570000006159426991211985087_" transform="translate(162.000000, 0.000000)">
											<g>
												<g id="Group_00000150801289580796848210000003157623635732936638_">
													<g id="Fill-14893-Clipped">
														<g id="path-27_00000131343994358597499150000013565978185542594964_">
														</g>
													</g>
												</g>
											</g>
										</g>
									</g>
								</g>
								<g id="Fill-14896-Clipped">
									<g id="path-1_00000046298368244436817620000012724828450394113722_">
									</g>
									<path id="Fill-14896" class="st3" d="M180.3,15.3l-0.2-0.2l0,0l-2-2l0,0L178,13l-0.2,0.2l0.2,0.7l0,0c0,0.1,0,0.3-0.1,0.4
										l0,0l-3.5,3.5c-1.3,1.3-2.6,1.5-3.6,0.5l0,0c-0.1-0.1-0.1-0.1-0.2-0.2c-1-1-0.9-2.3,0.5-3.7l2.8-2.8
										c0.4-0.4,0.6-0.6,0.7-0.7c0.1-0.1,0.3-0.1,0.4-0.1l0,0l0.7,0.2l0.2-0.2l-0.1-0.1l0,0l-2-2l0,0l-0.2-0.2l-0.2,0.2l0.2,0.7
										l0,0c0,0.2,0,0.3-0.1,0.4l0,0l-3.5,3.5c-0.7,0.7-1.4,1.4-1.5,2.5c0,0.5,0.1,1,0.3,1.4c0,0,0,0.1,0.1,0.2l0.1,0.1
										c0.3,0.6,1.2,1.7,2.4,2.2l0,0l0,0l0,0c0.4,0.2,0.9,0.3,1.3,0.3c1.1-0.1,1.8-0.7,2.5-1.5l3.5-3.5l0,0
										c0.1-0.1,0.3-0.2,0.4-0.1l0,0l0,0l0.7,0.2L180.3,15.3z"/>
								</g>
								<g id="Group-14900-Clipped">
									<g id="path-1_00000168100966402401208260000007414309360310364303_">
									</g>
									<g id="Group-14900">
										
											<g id="Fill-14898-Clipped_00000105400216332926450160000013824975997105505175_" transform="translate(155.000000, 0.000000)">
											<g>
												<g id="Group_00000023961027093284093880000005326315440797844158_">
													<g id="Fill-14898-Clipped">
														<g id="path-29_00000012448278510397814130000007276494473089281669_">
														</g>
														<path id="Fill-14898" class="st3" d="M12.8,2.7L12.8,2.7L12,2l-0.8-0.8l-0.7-0.7l-0.1-0.1l-0.2,0.2l0.2,0.7l0,0
															c0,0.2,0,0.3-0.1,0.4L5.6,6.5C4.1,8,3,8.4,1,7.4L0.8,7.6c0,0,1.6,1.6,3.1,1.4l0,0c0.8,0,1.7-0.5,2.7-1.4l4.8-4.8l0,0
															c0.1-0.1,0.3-0.2,0.4-0.1l0,0l0.7,0.2L12.8,2.7z"/>
													</g>
												</g>
											</g>
										</g>
									</g>
								</g>
								<g id="Group-14903-Clipped">
									<g id="path-1_00000120557077580524599010000007175036936903148940_">
									</g>
									<g id="Group-14903">
										
											<g id="Fill-14901-Clipped_00000145772870010730235890000010179843565176137604_" transform="translate(153.000000, 0.000000)">
											<g>
												<g id="Group_00000049222266817806374230000003069058457231267461_">
													<g id="Fill-14901-Clipped">
														<g id="path-31_00000011739401553048635910000008983157831492121493_">
														</g>
														<path id="Fill-14901" class="st3" d="M6.9,4.3C8.8,2.2,5.2-1,6.6-2.4C7.3-3,8.3-2.6,8.9-2c0.2,0.2,0.5,0.6,0.7,1
															c0.1,0.3,0.3,0.8,0.2,1.3c0,0.1,0,0.1,0,0.1l0,0l0,0l0.1,0.1L10,0.6l1-1.7l-0.1-0.1c-0.2,0-0.3-0.2-0.3-0.2
															C10.2-1.9,10-2.2,9.7-2.6C8.4-4,6.6-4.7,5.3-3.4C3.2-1.2,7.1,1.9,5.5,3.4C4.8,4.2,3.4,3.8,2.9,3.2
															c-0.4-0.4-0.7-0.9-1-1.5C1.6,1,1.6,0.2,1.6,0.2L1.4,0.1L0.4,2l0.1,0.1c0,0,0.2-0.1,0.3,0.1l0,0C1.1,2.8,1.5,3.3,2,3.8
															C3.8,5.6,5.9,5.5,6.9,4.3"/>
													</g>
												</g>
											</g>
										</g>
									</g>
								</g>
								<g id="Fill-14904-Clipped">
									<g id="path-1_00000054264611072328433700000000175686736576012984_">
									</g>
									<path id="Fill-14904" class="st3" d="M168.6,12.9c1.9-2.1-1.7-5.3-0.3-6.7c0.7-0.7,1.7-0.2,2.3,0.3c0.2,0.2,0.5,0.6,0.7,1
										c0.1,0.3,0.3,0.8,0.2,1.3c0,0.1,0,0.1,0,0.1l0,0l0.1,0.1l0.1,0.1l1-1.7l-0.1-0.1c-0.1,0-0.3-0.2-0.3-0.2
										c-0.3-0.5-0.5-0.7-0.8-1.1c-1.2-1.4-3-2.1-4.3-0.8c-2.2,2.2,1.7,5.2,0.2,6.8c-0.7,0.7-2.1,0.3-2.6-0.3
										c-0.4-0.4-0.7-0.9-1-1.5c-0.3-0.7-0.3-1.5-0.3-1.5l-0.2-0.1l-1.1,1.9l0.1,0.1c0,0,0.2-0.1,0.3,0.1l0,0
										c0.3,0.6,0.8,1.1,1.2,1.6C165.4,14.2,167.5,14.1,168.6,12.9"/>
								</g>
								<g id="Fill-14908-Clipped">
									<g id="path-1_00000159442095292575480920000006452496646520015238_">
									</g>
									<path id="Fill-14908" class="st3" d="M182.3,14.9L182.3,14.9l-0.8,0.8l-0.8,0.8l-0.7,0.7l-0.1,0.1l0.2,0.2l0.7-0.2l0,0
										c0.2,0,0.3,0,0.4,0.1l4.8,4.8c1.4,1.5,1.9,2.6,0.9,4.5l0.2,0.2c0,0,1.5-1.6,1.4-3.1l0,0c-0.1-0.8-0.5-1.7-1.4-2.7l-4.8-4.8
										l0,0c-0.1-0.1-0.2-0.3-0.2-0.4l0,0l0,0l0.2-0.7L182.3,14.9z"/>
								</g>
								<g id="Fill-14910-Clipped">
									<g id="path-1_00000074408128614118252660000003042077996882928515_">
									</g>
									<path id="Fill-14910" class="st3" d="M183.9,22.8c-2.1-1.9-5.3,1.7-6.7,0.3c-0.7-0.7-0.2-1.7,0.3-2.3
										c0.2-0.2,0.6-0.5,1-0.7c0.3-0.1,0.8-0.3,1.3-0.2c0.1,0,0.1,0,0.1,0l0,0l0,0l0.1-0.1l0.1-0.1l-1.7-1l-0.1,0.1
										c0,0.1-0.2,0.3-0.2,0.3c-0.5,0.3-0.7,0.5-1.1,0.8c-1.4,1.2-2.1,3-0.8,4.3c2.2,2.2,5.2-1.8,6.8-0.2c0.7,0.7,0.3,2.1-0.3,2.6
										c-0.4,0.4-0.9,0.7-1.5,1c-0.7,0.3-1.5,0.3-1.5,0.3l-0.1,0.2l1.9,1.1l0.1-0.1c0,0-0.1-0.2,0.1-0.3l0,0
										c0.6-0.3,1.1-0.8,1.6-1.2C185.2,25.9,185,23.8,183.9,22.8"/>
								</g>
								<g id="Fill-14920-Clipped">
									<g id="path-1_00000180332559910014798200000009680614445078327424_">
									</g>
									<path id="Fill-14920" class="st3" d="M178.8,41l-0.4-0.5l0,0l-5.9-5.9l0,0l-0.5-0.5l-0.5,0.5l0.7,2.1v0.1
										c0.1,0.4,0,0.8-0.3,1.2l-0.1,0.1l-10.2,10.2c-3.8,3.8-7.5,4.4-10.4,1.6l0,0c-0.2-0.2-0.3-0.3-0.5-0.5
										c-3-3-2.5-6.8,1.4-10.7l8.1-8.1c1.2-1.2,1.8-1.8,2.2-2.2c0.3-0.3,0.7-0.4,1.2-0.3h0.1l2.1,0.7l0.5-0.5l-0.4-0.4l0,0L160,22
										l0,0l-0.5-0.4l-0.5,0.5l0.7,2.1v0.1c0.1,0.5-0.1,1-0.4,1.3l0,0l-10.1,10.1c-2.1,2.1-4.1,4-4.3,7.3
										c-0.1,1.4,0.3,2.8,0.9,4.1c0,0,0.1,0.2,0.3,0.6c0.1,0.1,0.2,0.3,0.3,0.4c1,1.7,3.4,5,7,6.5c0,0,0,0,0.1,0
										c0,0,0.1,0,0.1,0.1l0,0c1.2,0.5,2.5,0.8,3.8,0.8c3.2-0.2,5.2-2.2,7.3-4.3l10.2-10.1l0,0c0.4-0.3,0.8-0.5,1.3-0.4h0.1l0,0
										l2.1,0.7L178.8,41z"/>
								</g>
								<g id="Group-14924-Clipped">
									<g id="path-1_00000131357771643242585770000012120839493230520200_">
									</g>
									<g id="Group-14924">
										
											<g id="Fill-14922-Clipped_00000022541600701443758530000001277078722923626890_" transform="translate(107.000000, 0.000000)">
											<g>
												<g id="Group_00000126321688350095376190000008695266686559172536_">
													<g id="Fill-14922-Clipped">
														<g id="path-33_00000181056230302301797260000001512028349908703374_">
														</g>
														<path id="Fill-14922" class="st3" d="M35.1,4.3L34.9,4l-2.1-2l-2.3-2.3l-2-2l-0.2-0.2L27.8-2l0.7,2.1v0.1
															c0.1,0.5-0.1,0.9-0.4,1.2L13.9,15.3C9.6,19.5,6.4,20.8,0.6,18l-0.5,0.5c0,0,4.6,4.5,9.1,4.1l0,0
															c2.3-0.2,4.9-1.4,7.8-4.1L31.1,4.4l0,0C31.5,4.1,32,3.9,32.5,4h0.1l2.1,0.7L35.1,4.3z"/>
													</g>
												</g>
											</g>
										</g>
									</g>
								</g>
								<g id="Group-14927-Clipped">
									<g id="path-1_00000011007171913220255250000011134912584231288239_">
									</g>
									<g id="Group-14927">
										
											<g id="Fill-14925-Clipped_00000010293053364144560120000011148509251116562867_" transform="translate(99.000000, 0.000000)">
											<g>
												<g id="Group_00000103981701370776271390000013040695773754869676_">
													<g id="Fill-14925-Clipped">
														<g id="path-35_00000142897871678126974350000010045507932580551331_">
														</g>
														<path id="Fill-14925" class="st3" d="M20.1,8.9c5.6-6.1-5.1-15.4-1-19.5c2.1-2.1,5-0.7,6.7,1c0.6,0.6,1.5,1.8,1.9,2.8
															C28.1-6,28.5-4.4,28.4-3c0,0.2-0.1,0.3-0.1,0.3l0,0l0,0l0.2,0.2l0.3,0.3l2.9-5.1l-0.4-0.4c-0.4,0.1-0.9-0.6-0.9-0.6
															c-0.8-1.3-1.4-2.1-2.4-3.3c-3.6-4-8.9-6-12.7-2.3C9-7.6,20.4,1.4,15.8,6.1c-2.1,2.1-6,0.9-7.7-0.8
															C7,4.4,6,2.9,5.3,1.3C4.4-0.8,4.6-3.1,4.6-3.1L4-3.5L0.8,2l0.3,0.3c0,0,0.6-0.2,1,0.4l0,0C3,4.4,4.3,6,5.7,7.4
															C10.9,12.6,17.1,12.2,20.1,8.9"/>
													</g>
												</g>
											</g>
										</g>
									</g>
								</g>
								<g id="Fill-14928-Clipped">
									<g id="path-1_00000170278758012263962950000017425818811033328824_">
									</g>
									<path id="Fill-14928" class="st3" d="M144.3,34.1c5.6-6.1-5.1-15.4-1-19.5c2.1-2.1,5-0.7,6.7,1c0.6,0.6,1.5,1.8,1.9,2.8
										c0.3,0.8,0.8,2.4,0.6,3.8c0,0.2-0.1,0.4-0.1,0.4l0,0l0.2,0.2l0.3,0.3l2.9-5.1l-0.4-0.4c-0.4,0.1-0.9-0.6-0.9-0.6
										c-0.8-1.3-1.4-2.1-2.4-3.3c-3.6-4-8.9-6-12.7-2.3c-6.3,6.3,5.1,15.3,0.5,20c-2.1,2.1-6,0.9-7.7-0.8
										c-1.2-1.2-2.2-2.7-2.9-4.3c-0.9-2.1-0.7-4.4-0.7-4.4l-0.5-0.4l-3.2,5.5l0.3,0.3c0,0,0.6-0.2,1,0.4l0,0
										c1,1.7,2.2,3.3,3.6,4.7C135.1,37.8,141.3,37.5,144.3,34.1"/>
								</g>
								<g id="Fill-14932-Clipped">
									<g id="path-1_00000032623160649844349720000014763089648240347776_">
									</g>
									<path id="Fill-14932" class="st3" d="M184.5,39.8l-0.2,0.2l-2.1,2.1l-2.3,2.3l-2,2l-0.2,0.3l0.5,0.5l2.1-0.7h0.1
										c0.4-0.1,0.9,0.1,1.2,0.4l14,14.1c4.2,4.4,5.5,7.5,2.6,13.3l0.5,0.5c0,0,4.5-4.6,4.1-9.1l0,0c-0.2-2.3-1.4-4.9-4.1-7.8
										l-14.1-14.1l0,0c-0.4-0.4-0.6-0.8-0.4-1.3v-0.1l0,0l0.7-2.1L184.5,39.8z"/>
								</g>
								<g id="Fill-14934-Clipped">
									<g id="path-1_00000091008507741406569160000018276799495286041010_">
									</g>
									<path id="Fill-14934" class="st3" d="M189.2,62.9c-6.1-5.6-15.4,5.1-19.5,1c-2.1-2.1-0.7-5,1-6.7c0.6-0.6,1.8-1.5,2.8-1.9
										c0.8-0.3,2.4-0.7,3.8-0.6c0.2,0,0.3,0.1,0.3,0.1l0,0l0,0l0.2-0.2l0.3-0.3l-5.1-2.9l-0.4,0.4c0.1,0.4-0.6,0.9-0.6,0.9
										c-1.3,0.8-2.1,1.4-3.3,2.4c-4,3.6-6,8.9-2.3,12.7c6.3,6.3,15.3-5.1,20-0.5c2.1,2.1,0.9,6-0.8,7.7c-1.2,1.2-2.7,2.2-4.3,2.9
										c-2.1,0.9-4.4,0.7-4.4,0.7l-0.4,0.5l5.5,3.2l0.3-0.3c0,0-0.2-0.6,0.4-1l0,0c1.7-1,3.3-2.2,4.7-3.6
										C192.9,72.1,192.5,65.9,189.2,62.9"/>
								</g>
								<g id="Fill-14992-Clipped">
									<g id="path-1_00000059312022871906414070000004031984520771088030_">
									</g>
									<path id="Fill-14992" class="st3" d="M167.5,180.9l0.2-0.2l0,0l2-2l0,0l0.2-0.2l-0.2-0.2l-0.7,0.2l0,0
										c-0.1,0-0.3,0-0.4-0.1l0,0l-3.5-3.5c-1.3-1.3-1.5-2.6-0.5-3.6l0,0c0.1-0.1,0.1-0.1,0.2-0.2c1-1,2.3-0.9,3.7,0.5l2.8,2.8
										c0.4,0.4,0.6,0.6,0.7,0.7c0.1,0.1,0.1,0.3,0.1,0.4l0,0l-0.2,0.7l0.2,0.2l0.1-0.1l0,0l2-2l0,0l0.2-0.2l-0.2-0.2l-0.7,0.2
										l0,0c-0.2,0-0.3,0-0.4-0.1l-3.5-3.5c-0.7-0.7-1.4-1.4-2.5-1.5c-0.5,0-1,0.1-1.4,0.3c0,0-0.1,0-0.2,0.1l-0.1,0.1
										c-0.6,0.3-1.7,1.2-2.2,2.4l0,0c0,0,0,0,0,0.1l0,0c-0.2,0.4-0.3,0.9-0.3,1.3c0.1,1.1,0.7,1.8,1.5,2.5l3.5,3.5l0,0
										c0.1,0.1,0.2,0.3,0.1,0.4l0,0l-0.2,0.7L167.5,180.9z"/>
								</g>
								<g id="Fill-14994-Clipped">
									<g id="path-1_00000009553771443687864430000014416859817254413214_">
									</g>
									<path id="Fill-14994" class="st3" d="M180,168.4L180,168.4l0.8-0.8l0.8-0.8l0.7-0.7l0.1-0.1l-0.2-0.2l-0.7,0.2l0,0
										c-0.2,0-0.3,0-0.4-0.1l-4.8-4.8c-1.4-1.5-1.9-2.6-0.9-4.5l-0.2-0.2c0,0-1.6,1.6-1.4,3.1c0.1,0.8,0.5,1.7,1.4,2.7l4.8,4.8
										l0,0c0.1,0.1,0.2,0.3,0.2,0.4l0,0l0,0l-0.2,0.7L180,168.4z"/>
								</g>
								<g id="Fill-14996-Clipped">
									<g id="path-1_00000005265086712353653090000009765548227835543184_">
									</g>
									<path id="Fill-14996" class="st3" d="M178.4,160.5c2.1,1.9,5.3-1.7,6.7-0.3c0.7,0.7,0.2,1.7-0.3,2.3
										c-0.2,0.2-0.6,0.5-1,0.7c-0.3,0.1-0.8,0.3-1.3,0.2c-0.1,0-0.1,0-0.1,0l0,0l0,0l-0.1,0.1l-0.1,0.1l1.7,1l0.1-0.1
										c0-0.1,0.2-0.3,0.2-0.3c0.5-0.3,0.7-0.5,1.1-0.8c1.4-1.2,2.1-3,0.8-4.3c-2.2-2.2-5.2,1.8-6.8,0.2c-0.7-0.7-0.3-2.1,0.3-2.6
										c0.4-0.4,0.9-0.7,1.5-1c0.7-0.3,1.5-0.3,1.5-0.3l0.1-0.2l-1.9-1.1l-0.1,0.1c0,0,0.1,0.2-0.1,0.3l0,0
										c-0.6,0.3-1.1,0.8-1.6,1.2C177.2,157.4,177.3,159.5,178.4,160.5"/>
								</g>
								<g id="Fill-14998-Clipped">
									<g id="path-1_00000085212934758229390740000006141628392431289229_">
									</g>
									<path id="Fill-14998" class="st3" d="M169.8,169.1c2.1,1.9,5.3-1.7,6.7-0.3c0.7,0.7,0.2,1.7-0.3,2.3
										c-0.2,0.2-0.6,0.5-1,0.7c-0.3,0.1-0.8,0.3-1.3,0.2c-0.1,0-0.1,0-0.1,0l0,0l-0.1,0.1l-0.1,0.1l1.7,1l0.1-0.1
										c0-0.1,0.2-0.3,0.2-0.3c0.5-0.3,0.7-0.5,1.1-0.8c1.4-1.2,2.1-3,0.8-4.3c-2.2-2.2-5.2,1.7-6.8,0.2c-0.7-0.7-0.3-2.1,0.3-2.6
										c0.4-0.4,0.9-0.7,1.5-1c0.7-0.3,1.5-0.3,1.5-0.3l0.1-0.2l-1.9-1.1l-0.1,0.1c0,0,0.1,0.2-0.1,0.3l0,0
										c-0.6,0.3-1.1,0.8-1.6,1.2C168.6,166,168.7,168.1,169.8,169.1"/>
								</g>
								<g id="Fill-15002-Clipped">
									<g id="path-1_00000003087833997947164830000003459004451506952580_">
									</g>
									<path id="Fill-15002" class="st3" d="M167.7,182.3L167.7,182.3l-0.8-0.8l-0.8-0.8l-0.7-0.7l-0.1-0.1l-0.2,0.2l0.2,0.7l0,0
										c0,0.2,0,0.3-0.1,0.4l-4.8,4.8c-1.5,1.4-2.6,1.9-4.5,0.9l-0.2,0.2c0,0,1.6,1.6,3.1,1.4l0,0c0.8-0.1,1.7-0.5,2.7-1.4
										l4.8-4.8l0,0c0.1-0.1,0.3-0.2,0.4-0.2l0,0l0.7,0.2L167.7,182.3z"/>
								</g>
								<g id="Fill-15004-Clipped">
									<g id="path-1_00000044887435770892311230000017991893723092415627_">
									</g>
									<path id="Fill-15004" class="st3" d="M159.8,183.9c1.9-2.1-1.7-5.3-0.3-6.7c0.7-0.7,1.7-0.2,2.3,0.3c0.2,0.2,0.5,0.6,0.7,1
										c0.1,0.3,0.3,0.8,0.2,1.3c0,0.1,0,0.1,0,0.1l0,0l0,0l0.1,0.1l0.1,0.1l1-1.7l-0.1-0.1c-0.2,0-0.3-0.2-0.3-0.2
										c-0.3-0.5-0.5-0.7-0.8-1.1c-1.2-1.4-3-2.1-4.3-0.8c-2.2,2.2,1.8,5.2,0.2,6.8c-0.7,0.7-2.1,0.3-2.6-0.3
										c-0.4-0.4-0.7-0.9-1-1.5c-0.3-0.7-0.3-1.5-0.3-1.5l-0.2-0.1l-1.1,1.9l0.1,0.1c0,0,0.2-0.1,0.3,0.1l0,0
										c0.3,0.6,0.8,1.1,1.2,1.6C156.7,185.1,158.8,185,159.8,183.9"/>
								</g>
								<g id="Fill-15024-Clipped">
									<g id="path-1_00000182496425147135909590000001378056377559932821_">
									</g>
									<path id="Fill-15024" class="st3" d="M141.3,179.9l0.4-0.4l0,0l5.9-5.9l0,0l0.4-0.4l-0.5-0.5l-2.1,0.7h-0.1
										c-0.4,0.1-0.9,0-1.2-0.3L144,173l-10-10.2c-3.8-3.8-4.4-7.5-1.6-10.4l0,0c0.2-0.2,0.3-0.3,0.5-0.5c3-3,6.8-2.5,10.7,1.4
										l8.1,8.1c1.2,1.2,1.8,1.8,2.2,2.2c0.3,0.3,0.4,0.7,0.3,1.2v0.1l-0.7,2.1l0.5,0.5l0.4-0.4l0,0l5.9-5.9l0,0l0.5-0.5l-0.5-0.5
										l-2.1,0.7h-0.1c-0.5,0.1-1-0.1-1.3-0.4l0,0l-10.1-10.1c-2.1-2.1-4-4.1-7.3-4.3c-1.4-0.1-2.8,0.3-4.1,0.9
										c0,0-0.2,0.1-0.6,0.3c-0.1,0.1-0.3,0.2-0.4,0.3c-1.7,1-5,3.4-6.5,7l0,0c0,0.1-0.1,0.1-0.1,0.2l0,0
										c-0.5,1.2-0.8,2.5-0.8,3.8c0.2,3.2,2.2,5.2,4.3,7.3l10.1,10.1l0,0c0.3,0.4,0.5,0.8,0.4,1.3v0.1l-0.7,2.1L141.3,179.9z"/>
								</g>
								<g id="Fill-15026-Clipped">
									<g id="path-1_00000086664274695226619710000005804567955438986630_">
									</g>
									<path id="Fill-15026" class="st3" d="M178,143.2l0.2-0.2l2.1-2.1l2.3-2.3l2-2l0.2-0.2l-0.5-0.5l-2.1,0.7h-0.1
										c-0.5,0.1-0.9-0.1-1.2-0.4l-14-14.2c-4.2-4.4-5.5-7.5-2.6-13.3l-0.5-0.5c0,0-4.5,4.6-4.1,9.1c0.2,2.3,1.4,4.9,4.1,7.8
										l14.1,14.1l0,0c0.4,0.4,0.6,0.8,0.4,1.3v0.1l0,0l-0.7,2.1L178,143.2z"/>
								</g>
								<g id="Fill-15028-Clipped">
									<g id="path-1_00000074432571480116385860000016265799135078927764_">
									</g>
									<path id="Fill-15028" class="st3" d="M173.3,120.2c6.1,5.6,15.4-5,19.5-1c2.1,2.1,0.7,5-1,6.7c-0.6,0.6-1.8,1.5-2.8,1.9
										c-0.8,0.4-2.4,0.8-3.8,0.6c-0.2,0-0.3,0-0.3,0l0,0l0,0l-0.2,0.2l-0.3,0.3l5.1,2.9l0.4-0.4c-0.1-0.4,0.6-0.9,0.6-0.9
										c1.3-0.8,2.1-1.4,3.3-2.4c4-3.6,6-8.9,2.3-12.7c-6.3-6.3-15.3,5.1-20,0.5c-2.1-2.1-0.9-6,0.8-7.7c1.2-1.2,2.7-2.2,4.3-2.9
										c2.1-0.9,4.4-0.7,4.4-0.7l0.4-0.5l-5.5-3.2l-0.3,0.3c0,0,0.2,0.6-0.4,1l0,0c-1.7,1-3.3,2.2-4.7,3.6
										C169.7,111,170,117.2,173.3,120.2"/>
								</g>
								<g id="Fill-15030-Clipped">
									<g id="path-1_00000001653192069039665400000011139305698660728993_">
									</g>
									<path id="Fill-15030" class="st3" d="M148.1,145.4c6.1,5.6,15.4-5,19.5-1c2.1,2.1,0.7,5-1,6.7c-0.6,0.6-1.8,1.5-2.8,1.9
										c-0.8,0.3-2.4,0.7-3.8,0.6c-0.2,0-0.3,0-0.3,0l0,0l-0.2,0.2l-0.3,0.3l5.1,2.9l0.4-0.4c-0.1-0.4,0.6-0.9,0.6-0.9
										c1.3-0.8,2.1-1.4,3.3-2.4c4-3.6,6-8.9,2.3-12.7c-6.3-6.3-15.3,5.1-20,0.5c-2.1-2.1-0.9-6,0.8-7.7c1.2-1.2,2.7-2.2,4.3-2.9
										c2.1-0.9,4.4-0.7,4.4-0.7l0.4-0.5l-5.5-3.2l-0.3,0.3c0,0,0.2,0.6-0.4,1l0,0c-1.7,1-3.3,2.2-4.7,3.6
										C144.5,136.2,144.8,142.4,148.1,145.4"/>
								</g>
								<g id="Fill-15034-Clipped">
									<g id="path-1_00000088095591880905116510000017654535382343769490_">
									</g>
									<path id="Fill-15034" class="st3" d="M142,183.8l-0.2-0.2l-2.1-2.1l-2.3-2.3l-2-2l-0.2-0.2l-0.5,0.5l0.7,2.1v0.1
										c0.1,0.5-0.1,0.9-0.4,1.2L120.9,195c-4.4,4.2-7.5,5.5-13.3,2.6L107,198c0,0,4.6,4.5,9.1,4.1l0,0c2.3-0.2,4.9-1.4,7.8-4.1
										l14.1-14.1l0,0c0.4-0.4,0.8-0.6,1.3-0.4h0.1l2.1,0.7L142,183.8z"/>
								</g>
								<g id="Fill-15036-Clipped">
									<g id="path-1_00000091010487192917344390000004598394128628593813_">
									</g>
									<path id="Fill-15036" class="st3" d="M119,188.5c5.6-6.1-5.1-15.4-1-19.5c2.1-2.1,5-0.7,6.7,1c0.6,0.6,1.5,1.8,1.9,2.8
										c0.4,0.8,0.7,2.4,0.6,3.8c0,0.2-0.1,0.3-0.1,0.3l0,0l0,0l0.2,0.2l0.3,0.3l2.9-5.1l-0.4-0.4c-0.4,0.1-0.9-0.6-0.9-0.6
										c-0.8-1.3-1.4-2.1-2.4-3.3c-3.6-4-8.9-6-12.7-2.3c-6.3,6.3,5.1,15.3,0.5,20c-2.1,2.1-6,0.9-7.7-0.8
										c-1.2-1.2-2.2-2.7-2.9-4.3c-0.9-2.1-0.7-4.4-0.7-4.4l-0.5-0.4l-3.2,5.5l0.3,0.3c0,0,0.6-0.2,1,0.4l0,0
										c1,1.7,2.2,3.3,3.6,4.7C109.8,192.1,116,191.8,119,188.5"/>
								</g>
							</g>
						</g>
					</g>
				</g>
			</g>
		</g>
	</g>
</g>
<g id="Layer_2_00000163770733880394759900000013730806656045245073_">
	<rect width="180" height="180"/>
	<g>
		<g>
			<g>
				<g>
					<g>
						<ellipse class="st4" cx="23.6" cy="23.6" rx="11.8" ry="11.7"/>
						<path class="st4" d="M38,17.3h36.3v56.9H17.2V38c-2.1-0.9-3.9-2.3-5.4-3.9v45.4h67.8V11.9H34C35.8,13.5,37.1,15.3,38,17.3z"/>
					</g>
					<g>
						<path class="st4" d="M43.9,71h12.3c3.1-1.9,6-4.2,8.7-6.9c2.4-2.3,4.4-4.9,6.2-7.6V45.1C66.5,57.4,56.5,67,43.9,71z"/>
						<path class="st4" d="M20.6,62.7v5.1c6.3,0,12.5-1.3,18.3-3.8c5.7-2.4,10.8-5.9,15.2-10.2s7.9-9.5,10.3-15.2
							c2.4-5.7,3.7-11.8,3.8-18.1H63C62.7,43.7,43.8,62.5,20.6,62.7z"/>
						<path class="st4" d="M20.6,48v5.2c3.5-0.4,6.8-1.3,10.1-2.6c4.4-1.8,8.3-4.5,11.7-7.8c3.4-3.4,6-7.3,7.9-11.6
							c1.4-3.4,2.3-6.9,2.7-10.5h-5.2C46,34.8,34.7,46.1,20.6,48z"/>
					</g>
				</g>
			</g>
			<g>
				<g>
					<rect x="155.7" y="11.9" class="st4" width="12.4" height="12.4"/>
					<rect x="137.2" y="67.3" class="st4" width="12.4" height="12.4"/>
					<rect x="118.8" y="67.3" class="st4" width="12.4" height="12.4"/>
					<rect x="100.3" y="67.3" class="st4" width="12.4" height="12.4"/>
					<rect x="100.3" y="48.8" class="st4" width="12.4" height="12.4"/>
					<rect x="100.3" y="30.4" class="st4" width="12.4" height="12.4"/>
					<rect x="137.2" y="11.9" class="st4" width="12.4" height="12.4"/>
					<rect x="118.8" y="11.9" class="st4" width="12.4" height="12.4"/>
					<rect x="100.3" y="11.9" class="st4" width="12.4" height="12.4"/>
					<rect x="155.7" y="67.3" class="st4" width="12.4" height="12.4"/>
				</g>
			</g>
		</g>
		<g>
			<g>
				<g>
					<ellipse class="st4" cx="112.1" cy="112.1" rx="11.8" ry="11.7"/>
					<path class="st4" d="M126.5,105.8h36.3v56.9h-57.1v-36.2c-2.1-0.9-3.9-2.3-5.4-3.9V168h67.8v-67.6h-45.6
						C124.2,101.9,125.6,103.8,126.5,105.8z"/>
				</g>
				<g>
					<path class="st4" d="M132.3,159.5h12.3c3.1-1.9,6-4.2,8.7-6.9c2.4-2.3,4.4-4.9,6.2-7.6v-11.4
						C155,145.8,144.9,155.5,132.3,159.5z"/>
					<path class="st4" d="M109,151.2v5.1c6.3,0,12.5-1.3,18.3-3.8c5.7-2.4,10.8-5.9,15.2-10.2c4.4-4.4,7.9-9.5,10.3-15.2
						c2.4-5.7,3.7-11.8,3.8-18.1h-5.2C151.1,132.2,132.2,151,109,151.2z"/>
					<path class="st4" d="M109,136.5v5.2c3.5-0.4,6.8-1.3,10.1-2.6c4.4-1.8,8.3-4.5,11.7-7.8c3.4-3.4,6-7.3,7.9-11.6
						c1.4-3.4,2.3-6.9,2.7-10.5h-5.2C134.4,123.3,123.2,134.6,109,136.5z"/>
				</g>
			</g>
		</g>
		<g>
			<g>
				<rect x="67.3" y="100.4" class="st4" width="12.4" height="12.4"/>
				<rect x="48.8" y="155.7" class="st4" width="12.4" height="12.4"/>
				<rect x="30.3" y="155.7" class="st4" width="12.4" height="12.4"/>
				<rect x="11.9" y="155.7" class="st4" width="12.4" height="12.4"/>
				<rect x="11.9" y="137.3" class="st4" width="12.4" height="12.4"/>
				<rect x="11.9" y="118.8" class="st4" width="12.4" height="12.4"/>
				<rect x="48.8" y="100.4" class="st4" width="12.4" height="12.4"/>
				<rect x="30.3" y="100.4" class="st4" width="12.4" height="12.4"/>
				<rect x="11.9" y="100.4" class="st4" width="12.4" height="12.4"/>
				<rect x="67.3" y="155.7" class="st4" width="12.4" height="12.4"/>
			</g>
		</g>
	</g>
</g>
</svg>
